{
	"asset":{
		"generator":"Khronos glTF Blender I/O v4.5.48",
		"version":"2.0"
	},
	"scene":0,
	"scenes":[
		{
			"name":"Scene",
			"nodes":[
				0
			]
		}
	],
	"nodes":[
		{
			"mesh":0,
			"name":"tv.001"
		}
	],
	"materials":[
		{
			"doubleSided":true,
			"name":"Material.009",
			"pbrMetallicRoughness":{
				"baseColorFactor":[
					0.800000011920929,
					0.800000011920929,
					0.800000011920929,
					1
				],
				"metallicFactor":0,
				"roughnessFactor":0.5
			}
		},
		{
			"doubleSided":true,
			"name":"Material.010",
			"pbrMetallicRoughness":{
				"baseColorFactor":[
					0.800000011920929,
					0.800000011920929,
					0.800000011920929,
					1
				],
				"metallicFactor":0,
				"roughnessFactor":0.5
			}
		},
		{
			"doubleSided":true,
			"name":"Material.011",
			"pbrMetallicRoughness":{
				"baseColorFactor":[
					0.800000011920929,
					0.800000011920929,
					0.800000011920929,
					1
				],
				"metallicFactor":0,
				"roughnessFactor":0.5
			}
		}
	],
	"meshes":[
		{
			"name":"tv.002",
			"primitives":[
				{
					"attributes":{
						"POSITION":0,
						"NORMAL":1,
						"TEXCOORD_0":2
					},
					"indices":3,
					"material":0
				},
				{
					"attributes":{
						"POSITION":4,
						"NORMAL":5,
						"TEXCOORD_0":6
					},
					"indices":7,
					"material":1
				},
				{
					"attributes":{
						"POSITION":8,
						"NORMAL":9,
						"TEXCOORD_0":10
					},
					"indices":11,
					"material":2
				}
			]
		}
	],
	"accessors":[
		{
			"bufferView":0,
			"componentType":5126,
			"count":1276,
			"max":[
				1.6578726768493652,
				2.150618076324463,
				0.1067371591925621
			],
			"min":[
				-1.6250303983688354,
				0.15061771869659424,
				-0.06384178251028061
			],
			"type":"VEC3"
		},
		{
			"bufferView":1,
			"componentType":5126,
			"count":1276,
			"type":"VEC3"
		},
		{
			"bufferView":2,
			"componentType":5126,
			"count":1276,
			"type":"VEC2"
		},
		{
			"bufferView":3,
			"componentType":5123,
			"count":1902,
			"type":"SCALAR"
		},
		{
			"bufferView":4,
			"componentType":5126,
			"count":1792,
			"max":[
				1.4499058723449707,
				0.15431228280067444,
				0.27337464690208435
			],
			"min":[
				-1.4520721435546875,
				0.0007017850875854492,
				-0.2717665731906891
			],
			"type":"VEC3"
		},
		{
			"bufferView":5,
			"componentType":5126,
			"count":1792,
			"type":"VEC3"
		},
		{
			"bufferView":6,
			"componentType":5126,
			"count":1792,
			"type":"VEC2"
		},
		{
			"bufferView":7,
			"componentType":5123,
			"count":3024,
			"type":"SCALAR"
		},
		{
			"bufferView":8,
			"componentType":5126,
			"count":4,
			"max":[
				1.5922147035598755,
				2.1106176376342773,
				0.08340523391962051
			],
			"min":[
				-1.5593721866607666,
				0.19061771035194397,
				0.08340386301279068
			],
			"type":"VEC3"
		},
		{
			"bufferView":9,
			"componentType":5126,
			"count":4,
			"type":"VEC3"
		},
		{
			"bufferView":10,
			"componentType":5126,
			"count":4,
			"type":"VEC2"
		},
		{
			"bufferView":11,
			"componentType":5123,
			"count":6,
			"type":"SCALAR"
		}
	],
	"bufferViews":[
		{
			"buffer":0,
			"byteLength":15312,
			"byteOffset":0,
			"target":34962
		},
		{
			"buffer":0,
			"byteLength":15312,
			"byteOffset":15312,
			"target":34962
		},
		{
			"buffer":0,
			"byteLength":10208,
			"byteOffset":30624,
			"target":34962
		},
		{
			"buffer":0,
			"byteLength":3804,
			"byteOffset":40832,
			"target":34963
		},
		{
			"buffer":0,
			"byteLength":21504,
			"byteOffset":44636,
			"target":34962
		},
		{
			"buffer":0,
			"byteLength":21504,
			"byteOffset":66140,
			"target":34962
		},
		{
			"buffer":0,
			"byteLength":14336,
			"byteOffset":87644,
			"target":34962
		},
		{
			"buffer":0,
			"byteLength":6048,
			"byteOffset":101980,
			"target":34963
		},
		{
			"buffer":0,
			"byteLength":48,
			"byteOffset":108028,
			"target":34962
		},
		{
			"buffer":0,
			"byteLength":48,
			"byteOffset":108076,
			"target":34962
		},
		{
			"buffer":0,
			"byteLength":32,
			"byteOffset":108124,
			"target":34962
		},
		{
			"buffer":0,
			"byteLength":12,
			"byteOffset":108156,
			"target":34963
		}
	],
	"buffers":[
		{
			"byteLength":108168,
			"uri":"tv.bin"
		}
	]
}
