{
	"asset":{
		"generator":"Khronos glTF Blender I/O v4.5.48",
		"version":"2.0"
	},
	"scene":0,
	"scenes":[
		{
			"name":"Scene",
			"nodes":[
				0
			]
		}
	],
	"nodes":[
		{
			"mesh":0,
			"name":"face_03"
		}
	],
	"meshes":[
		{
			"name":"Female_Body_Default.005",
			"primitives":[
				{
					"attributes":{
						"POSITION":0,
						"NORMAL":1,
						"TEXCOORD_0":2,
						"COLOR_0":3
					},
					"indices":4
				},
				{
					"attributes":{
						"POSITION":5,
						"NORMAL":6,
						"TEXCOORD_0":7,
						"COLOR_0":8
					},
					"indices":9
				}
			]
		}
	],
	"accessors":[
		{
			"bufferView":0,
			"componentType":5126,
			"count":907,
			"max":[
				0.08529829978942871,
				0.13637948036193848,
				0.09284275025129318
			],
			"min":[
				-0.09163949638605118,
				-0.09467092901468277,
				-0.1553671956062317
			],
			"type":"VEC3"
		},
		{
			"bufferView":1,
			"componentType":5126,
			"count":907,
			"type":"VEC3"
		},
		{
			"bufferView":2,
			"componentType":5126,
			"count":907,
			"type":"VEC2"
		},
		{
			"bufferView":3,
			"componentType":5123,
			"count":907,
			"normalized":true,
			"type":"VEC4"
		},
		{
			"bufferView":4,
			"componentType":5123,
			"count":5103,
			"type":"SCALAR"
		},
		{
			"bufferView":5,
			"componentType":5126,
			"count":26,
			"max":[
				0.041861847043037415,
				0.027781223878264427,
				0.0549127571284771
			],
			"min":[
				-0.04294149950146675,
				0.016369285061955452,
				0.026671040803194046
			],
			"type":"VEC3"
		},
		{
			"bufferView":6,
			"componentType":5126,
			"count":26,
			"type":"VEC3"
		},
		{
			"bufferView":7,
			"componentType":5126,
			"count":26,
			"type":"VEC2"
		},
		{
			"bufferView":8,
			"componentType":5123,
			"count":26,
			"normalized":true,
			"type":"VEC4"
		},
		{
			"bufferView":9,
			"componentType":5123,
			"count":66,
			"type":"SCALAR"
		}
	],
	"bufferViews":[
		{
			"buffer":0,
			"byteLength":10884,
			"byteOffset":0,
			"target":34962
		},
		{
			"buffer":0,
			"byteLength":10884,
			"byteOffset":10884,
			"target":34962
		},
		{
			"buffer":0,
			"byteLength":7256,
			"byteOffset":21768,
			"target":34962
		},
		{
			"buffer":0,
			"byteLength":7256,
			"byteOffset":29024,
			"target":34962
		},
		{
			"buffer":0,
			"byteLength":10206,
			"byteOffset":36280,
			"target":34963
		},
		{
			"buffer":0,
			"byteLength":312,
			"byteOffset":46488,
			"target":34962
		},
		{
			"buffer":0,
			"byteLength":312,
			"byteOffset":46800,
			"target":34962
		},
		{
			"buffer":0,
			"byteLength":208,
			"byteOffset":47112,
			"target":34962
		},
		{
			"buffer":0,
			"byteLength":208,
			"byteOffset":47320,
			"target":34962
		},
		{
			"buffer":0,
			"byteLength":132,
			"byteOffset":47528,
			"target":34963
		}
	],
	"buffers":[
		{
			"byteLength":47660,
			"uri":"face_03.bin"
		}
	]
}
