{
	"asset":{
		"generator":"Khronos glTF Blender I/O v4.5.48",
		"version":"2.0"
	},
	"scene":0,
	"scenes":[
		{
			"name":"Scene",
			"nodes":[
				0,
				1
			]
		}
	],
	"nodes":[
		{
			"mesh":0,
			"name":"face_02_body"
		},
		{
			"mesh":1,
			"name":"face_02_eyes",
			"translation":[
				-0.0013755352701991796,
				0.050750017166137695,
				0.044612687081098557
			]
		}
	],
	"materials":[
		{
			"doubleSided":true,
			"name":"Material.002",
			"pbrMetallicRoughness":{
				"baseColorFactor":[
					0.800000011920929,
					0.800000011920929,
					0.800000011920929,
					1
				],
				"metallicFactor":0,
				"roughnessFactor":0.5
			}
		},
		{
			"doubleSided":true,
			"name":"Material.003",
			"pbrMetallicRoughness":{
				"baseColorFactor":[
					0.800000011920929,
					0.800000011920929,
					0.800000011920929,
					1
				],
				"metallicFactor":0,
				"roughnessFactor":0.5
			}
		}
	],
	"meshes":[
		{
			"name":"Female_Body_Default.001",
			"primitives":[
				{
					"attributes":{
						"POSITION":0,
						"NORMAL":1,
						"TEXCOORD_0":2,
						"COLOR_0":3,
						"COLOR_1":4
					},
					"indices":5,
					"material":0
				}
			]
		},
		{
			"name":"Mesh.003",
			"primitives":[
				{
					"attributes":{
						"POSITION":6,
						"NORMAL":7,
						"TEXCOORD_0":8
					},
					"indices":9,
					"material":1
				}
			]
		}
	],
	"accessors":[
		{
			"bufferView":0,
			"componentType":5126,
			"count":1765,
			"max":[
				0.08798999339342117,
				0.13555322587490082,
				0.10028019547462463
			],
			"min":[
				-0.08991065621376038,
				-0.1117134690284729,
				-0.12147105485200882
			],
			"type":"VEC3"
		},
		{
			"bufferView":1,
			"componentType":5126,
			"count":1765,
			"type":"VEC3"
		},
		{
			"bufferView":2,
			"componentType":5126,
			"count":1765,
			"type":"VEC2"
		},
		{
			"bufferView":3,
			"componentType":5121,
			"count":1765,
			"normalized":true,
			"type":"VEC4"
		},
		{
			"bufferView":4,
			"componentType":5123,
			"count":1765,
			"normalized":true,
			"type":"VEC4"
		},
		{
			"bufferView":5,
			"componentType":5123,
			"count":5964,
			"type":"SCALAR"
		},
		{
			"bufferView":6,
			"componentType":5126,
			"count":5416,
			"max":[
				0.04646695405244827,
				0.01417560875415802,
				0.013730562292039394
			],
			"min":[
				-0.046436943113803864,
				-0.014307353645563126,
				-0.01867060177028179
			],
			"type":"VEC3"
		},
		{
			"bufferView":7,
			"componentType":5126,
			"count":5416,
			"type":"VEC3"
		},
		{
			"bufferView":8,
			"componentType":5126,
			"count":5416,
			"type":"VEC2"
		},
		{
			"bufferView":9,
			"componentType":5123,
			"count":31680,
			"type":"SCALAR"
		}
	],
	"bufferViews":[
		{
			"buffer":0,
			"byteLength":21180,
			"byteOffset":0,
			"target":34962
		},
		{
			"buffer":0,
			"byteLength":21180,
			"byteOffset":21180,
			"target":34962
		},
		{
			"buffer":0,
			"byteLength":14120,
			"byteOffset":42360,
			"target":34962
		},
		{
			"buffer":0,
			"byteLength":7060,
			"byteOffset":56480,
			"target":34962
		},
		{
			"buffer":0,
			"byteLength":14120,
			"byteOffset":63540,
			"target":34962
		},
		{
			"buffer":0,
			"byteLength":11928,
			"byteOffset":77660,
			"target":34963
		},
		{
			"buffer":0,
			"byteLength":64992,
			"byteOffset":89588,
			"target":34962
		},
		{
			"buffer":0,
			"byteLength":64992,
			"byteOffset":154580,
			"target":34962
		},
		{
			"buffer":0,
			"byteLength":43328,
			"byteOffset":219572,
			"target":34962
		},
		{
			"buffer":0,
			"byteLength":63360,
			"byteOffset":262900,
			"target":34963
		}
	],
	"buffers":[
		{
			"byteLength":326260,
			"uri":"face_02.bin"
		}
	]
}
