{
	"asset":{
		"generator":"Khronos glTF Blender I/O v4.5.48",
		"version":"2.0"
	},
	"scene":0,
	"scenes":[
		{
			"name":"Scene",
			"nodes":[
				0,
				1,
				2
			]
		}
	],
	"nodes":[
		{
			"mesh":0,
			"name":"HG_Teeth",
			"rotation":[
				-0.3073368966579437,
				0,
				0,
				0.9516007900238037
			],
			"translation":[
				0.0005007146974094212,
				-0.05125856399536133,
				0.01802704483270645
			]
		},
		{
			"mesh":1,
			"name":"HG_Eyes",
			"rotation":[
				0.6626201868057251,
				0,
				0,
				0.7489556074142456
			],
			"translation":[
				0.000459591654362157,
				0.027229785919189453,
				0.04138990491628647
			]
		},
		{
			"mesh":2,
			"name":"HG_Body"
		}
	],
	"materials":[
		{
			"doubleSided":true,
			"name":"Material.006",
			"pbrMetallicRoughness":{
				"baseColorFactor":[
					0.800000011920929,
					0.800000011920929,
					0.800000011920929,
					1
				],
				"metallicFactor":0,
				"roughnessFactor":0.5
			}
		},
		{
			"doubleSided":true,
			"name":"Material.004",
			"pbrMetallicRoughness":{
				"baseColorFactor":[
					0.800000011920929,
					0.800000011920929,
					0.800000011920929,
					1
				],
				"metallicFactor":0,
				"roughnessFactor":0.5
			}
		},
		{
			"doubleSided":true,
			"name":"Material.007",
			"pbrMetallicRoughness":{
				"baseColorFactor":[
					0.800000011920929,
					0.800000011920929,
					0.800000011920929,
					1
				],
				"metallicFactor":0,
				"roughnessFactor":0.5
			}
		}
	],
	"meshes":[
		{
			"name":"Mesh.001",
			"primitives":[
				{
					"attributes":{
						"POSITION":0,
						"NORMAL":1,
						"TEXCOORD_0":2,
						"COLOR_0":3,
						"COLOR_1":4,
						"COLOR_2":5,
						"COLOR_3":6,
						"COLOR_4":7
					},
					"indices":8,
					"material":0
				}
			]
		},
		{
			"name":"Mesh",
			"primitives":[
				{
					"attributes":{
						"POSITION":9,
						"NORMAL":10,
						"TEXCOORD_0":11
					},
					"indices":12,
					"material":1
				}
			]
		},
		{
			"name":"Female_Body_Default",
			"primitives":[
				{
					"attributes":{
						"POSITION":13,
						"NORMAL":14,
						"TEXCOORD_0":15,
						"COLOR_0":16,
						"COLOR_1":17
					},
					"indices":18,
					"material":2
				}
			]
		}
	],
	"accessors":[
		{
			"bufferView":0,
			"componentType":5126,
			"count":1239,
			"max":[
				0.03242608532309532,
				0.05559884011745453,
				0.03709903359413147
			],
			"min":[
				-0.03251146152615547,
				-0.11789218336343765,
				-0.05575903132557869
			],
			"type":"VEC3"
		},
		{
			"bufferView":1,
			"componentType":5126,
			"count":1239,
			"type":"VEC3"
		},
		{
			"bufferView":2,
			"componentType":5126,
			"count":1239,
			"type":"VEC2"
		},
		{
			"bufferView":3,
			"componentType":5121,
			"count":1239,
			"normalized":true,
			"type":"VEC4"
		},
		{
			"bufferView":4,
			"componentType":5123,
			"count":1239,
			"normalized":true,
			"type":"VEC4"
		},
		{
			"bufferView":5,
			"componentType":5123,
			"count":1239,
			"normalized":true,
			"type":"VEC4"
		},
		{
			"bufferView":6,
			"componentType":5123,
			"count":1239,
			"normalized":true,
			"type":"VEC4"
		},
		{
			"bufferView":7,
			"componentType":5123,
			"count":1239,
			"normalized":true,
			"type":"VEC4"
		},
		{
			"bufferView":8,
			"componentType":5123,
			"count":3933,
			"type":"SCALAR"
		},
		{
			"bufferView":9,
			"componentType":5126,
			"count":3076,
			"max":[
				0.04797270521521568,
				0.0142164696007967,
				0.01209447905421257
			],
			"min":[
				-0.04802155867218971,
				-0.014205412939190865,
				-0.01740330643951893
			],
			"type":"VEC3"
		},
		{
			"bufferView":10,
			"componentType":5126,
			"count":3076,
			"type":"VEC3"
		},
		{
			"bufferView":11,
			"componentType":5126,
			"count":3076,
			"type":"VEC2"
		},
		{
			"bufferView":12,
			"componentType":5123,
			"count":3168,
			"type":"SCALAR"
		},
		{
			"bufferView":13,
			"componentType":5126,
			"count":749,
			"max":[
				0.08044762164354324,
				0.1391703486442566,
				0.06439787894487381
			],
			"min":[
				-0.07946698367595673,
				-0.09795831143856049,
				-0.13445034623146057
			],
			"type":"VEC3"
		},
		{
			"bufferView":14,
			"componentType":5126,
			"count":749,
			"type":"VEC3"
		},
		{
			"bufferView":15,
			"componentType":5126,
			"count":749,
			"type":"VEC2"
		},
		{
			"bufferView":16,
			"componentType":5121,
			"count":749,
			"normalized":true,
			"type":"VEC4"
		},
		{
			"bufferView":17,
			"componentType":5123,
			"count":749,
			"normalized":true,
			"type":"VEC4"
		},
		{
			"bufferView":18,
			"componentType":5123,
			"count":4038,
			"type":"SCALAR"
		}
	],
	"bufferViews":[
		{
			"buffer":0,
			"byteLength":14868,
			"byteOffset":0,
			"target":34962
		},
		{
			"buffer":0,
			"byteLength":14868,
			"byteOffset":14868,
			"target":34962
		},
		{
			"buffer":0,
			"byteLength":9912,
			"byteOffset":29736,
			"target":34962
		},
		{
			"buffer":0,
			"byteLength":4956,
			"byteOffset":39648,
			"target":34962
		},
		{
			"buffer":0,
			"byteLength":9912,
			"byteOffset":44604,
			"target":34962
		},
		{
			"buffer":0,
			"byteLength":9912,
			"byteOffset":54516,
			"target":34962
		},
		{
			"buffer":0,
			"byteLength":9912,
			"byteOffset":64428,
			"target":34962
		},
		{
			"buffer":0,
			"byteLength":9912,
			"byteOffset":74340,
			"target":34962
		},
		{
			"buffer":0,
			"byteLength":7866,
			"byteOffset":84252,
			"target":34963
		},
		{
			"buffer":0,
			"byteLength":36912,
			"byteOffset":92120,
			"target":34962
		},
		{
			"buffer":0,
			"byteLength":36912,
			"byteOffset":129032,
			"target":34962
		},
		{
			"buffer":0,
			"byteLength":24608,
			"byteOffset":165944,
			"target":34962
		},
		{
			"buffer":0,
			"byteLength":6336,
			"byteOffset":190552,
			"target":34963
		},
		{
			"buffer":0,
			"byteLength":8988,
			"byteOffset":196888,
			"target":34962
		},
		{
			"buffer":0,
			"byteLength":8988,
			"byteOffset":205876,
			"target":34962
		},
		{
			"buffer":0,
			"byteLength":5992,
			"byteOffset":214864,
			"target":34962
		},
		{
			"buffer":0,
			"byteLength":2996,
			"byteOffset":220856,
			"target":34962
		},
		{
			"buffer":0,
			"byteLength":5992,
			"byteOffset":223852,
			"target":34962
		},
		{
			"buffer":0,
			"byteLength":8076,
			"byteOffset":229844,
			"target":34963
		}
	],
	"buffers":[
		{
			"byteLength":237920,
			"uri":"face_01.bin"
		}
	]
}
