{
	"asset":{
		"generator":"Khronos glTF Blender I/O v4.5.48",
		"version":"2.0"
	},
	"scene":0,
	"scenes":[
		{
			"name":"Scene",
			"nodes":[
				0
			]
		}
	],
	"nodes":[
		{
			"mesh":0,
			"name":"dining_chair",
			"rotation":[
				0,
				0.7071068286895752,
				0,
				0.7071067690849304
			],
			"scale":[
				0.6702447533607483,
				0.6702447533607483,
				0.6702447533607483
			],
			"translation":[
				0,
				0.26197350025177,
				0
			]
		}
	],
	"meshes":[
		{
			"name":"dining_chair",
			"primitives":[
				{
					"attributes":{
						"POSITION":0,
						"NORMAL":1,
						"TEXCOORD_0":2
					},
					"indices":3
				}
			]
		}
	],
	"accessors":[
		{
			"bufferView":0,
			"componentType":5126,
			"count":1142,
			"max":[
				1.2609885931015015,
				3.4390878677368164,
				0.7857922315597534
			],
			"min":[
				-0.7490139603614807,
				-0.3890092372894287,
				-0.7857925891876221
			],
			"type":"VEC3"
		},
		{
			"bufferView":1,
			"componentType":5126,
			"count":1142,
			"type":"VEC3"
		},
		{
			"bufferView":2,
			"componentType":5126,
			"count":1142,
			"type":"VEC2"
		},
		{
			"bufferView":3,
			"componentType":5123,
			"count":2460,
			"type":"SCALAR"
		}
	],
	"bufferViews":[
		{
			"buffer":0,
			"byteLength":13704,
			"byteOffset":0,
			"target":34962
		},
		{
			"buffer":0,
			"byteLength":13704,
			"byteOffset":13704,
			"target":34962
		},
		{
			"buffer":0,
			"byteLength":9136,
			"byteOffset":27408,
			"target":34962
		},
		{
			"buffer":0,
			"byteLength":4920,
			"byteOffset":36544,
			"target":34963
		}
	],
	"buffers":[
		{
			"byteLength":41464,
			"uri":"dining_chair.bin"
		}
	]
}
