{
	"asset":{
		"generator":"Khronos glTF Blender I/O v4.5.48",
		"version":"2.0"
	},
	"scene":0,
	"scenes":[
		{
			"name":"Scene",
			"nodes":[
				0
			]
		}
	],
	"nodes":[
		{
			"mesh":0,
			"name":"dining_table",
			"scale":[
				2.3972795009613037,
				0.09014035761356354,
				2.0262985229492188
			],
			"translation":[
				0,
				1.2248315811157227,
				0
			]
		}
	],
	"meshes":[
		{
			"name":"dining_table",
			"primitives":[
				{
					"attributes":{
						"POSITION":0,
						"NORMAL":1,
						"TEXCOORD_0":2
					},
					"indices":3
				},
				{
					"attributes":{
						"POSITION":4,
						"NORMAL":5,
						"TEXCOORD_0":6
					},
					"indices":7
				}
			]
		}
	],
	"accessors":[
		{
			"bufferView":0,
			"componentType":5126,
			"count":4352,
			"max":[
				1,
				4.4936370849609375,
				1.0000001192092896
			],
			"min":[
				-0.9999999403953552,
				-13.584985733032227,
				-0.9999999403953552
			],
			"type":"VEC3"
		},
		{
			"bufferView":1,
			"componentType":5126,
			"count":4352,
			"type":"VEC3"
		},
		{
			"bufferView":2,
			"componentType":5126,
			"count":4352,
			"type":"VEC2"
		},
		{
			"bufferView":3,
			"componentType":5123,
			"count":6900,
			"type":"SCALAR"
		},
		{
			"bufferView":4,
			"componentType":5126,
			"count":512,
			"max":[
				0.1500755250453949,
				-0.5458869934082031,
				0.15007519721984863
			],
			"min":[
				-0.15007559955120087,
				-12.732135772705078,
				-0.15007594227790833
			],
			"type":"VEC3"
		},
		{
			"bufferView":5,
			"componentType":5126,
			"count":512,
			"type":"VEC3"
		},
		{
			"bufferView":6,
			"componentType":5126,
			"count":512,
			"type":"VEC2"
		},
		{
			"bufferView":7,
			"componentType":5123,
			"count":768,
			"type":"SCALAR"
		}
	],
	"bufferViews":[
		{
			"buffer":0,
			"byteLength":52224,
			"byteOffset":0,
			"target":34962
		},
		{
			"buffer":0,
			"byteLength":52224,
			"byteOffset":52224,
			"target":34962
		},
		{
			"buffer":0,
			"byteLength":34816,
			"byteOffset":104448,
			"target":34962
		},
		{
			"buffer":0,
			"byteLength":13800,
			"byteOffset":139264,
			"target":34963
		},
		{
			"buffer":0,
			"byteLength":6144,
			"byteOffset":153064,
			"target":34962
		},
		{
			"buffer":0,
			"byteLength":6144,
			"byteOffset":159208,
			"target":34962
		},
		{
			"buffer":0,
			"byteLength":4096,
			"byteOffset":165352,
			"target":34962
		},
		{
			"buffer":0,
			"byteLength":1536,
			"byteOffset":169448,
			"target":34963
		}
	],
	"buffers":[
		{
			"byteLength":170984,
			"uri":"dining_table.bin"
		}
	]
}
