{
	"asset":{
		"generator":"Khronos glTF Blender I/O v4.5.48",
		"version":"2.0"
	},
	"scene":0,
	"scenes":[
		{
			"name":"Scene",
			"nodes":[
				0
			]
		}
	],
	"nodes":[
		{
			"mesh":0,
			"name":"holder",
			"translation":[
				-0.25662961602211,
				0.1636410355567932,
				0.041176822036504745
			]
		}
	],
	"meshes":[
		{
			"name":"holder",
			"primitives":[
				{
					"attributes":{
						"POSITION":0,
						"NORMAL":1,
						"TEXCOORD_0":2
					},
					"indices":3
				},
				{
					"attributes":{
						"POSITION":4,
						"NORMAL":5,
						"TEXCOORD_0":6
					},
					"indices":7
				}
			]
		}
	],
	"accessors":[
		{
			"bufferView":0,
			"componentType":5126,
			"count":156,
			"max":[
				0.8969613313674927,
				0.39670872688293457,
				0.27812811732292175
			],
			"min":[
				-0.28547313809394836,
				-0.16329848766326904,
				-0.09517839550971985
			],
			"type":"VEC3"
		},
		{
			"bufferView":1,
			"componentType":5126,
			"count":156,
			"type":"VEC3"
		},
		{
			"bufferView":2,
			"componentType":5126,
			"count":156,
			"type":"VEC2"
		},
		{
			"bufferView":3,
			"componentType":5123,
			"count":264,
			"type":"SCALAR"
		},
		{
			"bufferView":4,
			"componentType":5126,
			"count":8592,
			"max":[
				0.19332768023014069,
				0.06712526082992554,
				0.013126764446496964
			],
			"min":[
				-0.21102768182754517,
				-0.06330061703920364,
				-0.04609896242618561
			],
			"type":"VEC3"
		},
		{
			"bufferView":5,
			"componentType":5126,
			"count":8592,
			"type":"VEC3"
		},
		{
			"bufferView":6,
			"componentType":5126,
			"count":8592,
			"type":"VEC2"
		},
		{
			"bufferView":7,
			"componentType":5123,
			"count":14088,
			"type":"SCALAR"
		}
	],
	"bufferViews":[
		{
			"buffer":0,
			"byteLength":1872,
			"byteOffset":0,
			"target":34962
		},
		{
			"buffer":0,
			"byteLength":1872,
			"byteOffset":1872,
			"target":34962
		},
		{
			"buffer":0,
			"byteLength":1248,
			"byteOffset":3744,
			"target":34962
		},
		{
			"buffer":0,
			"byteLength":528,
			"byteOffset":4992,
			"target":34963
		},
		{
			"buffer":0,
			"byteLength":103104,
			"byteOffset":5520,
			"target":34962
		},
		{
			"buffer":0,
			"byteLength":103104,
			"byteOffset":108624,
			"target":34962
		},
		{
			"buffer":0,
			"byteLength":68736,
			"byteOffset":211728,
			"target":34962
		},
		{
			"buffer":0,
			"byteLength":28176,
			"byteOffset":280464,
			"target":34963
		}
	],
	"buffers":[
		{
			"byteLength":308640,
			"uri":"holder.bin"
		}
	]
}
