{
	"asset":{
		"generator":"Khronos glTF Blender I/O v4.5.48",
		"version":"2.0"
	},
	"scene":0,
	"scenes":[
		{
			"name":"Scene",
			"nodes":[
				0
			]
		}
	],
	"nodes":[
		{
			"mesh":0,
			"name":"shelving_unit"
		}
	],
	"meshes":[
		{
			"name":"shelving_unit",
			"primitives":[
				{
					"attributes":{
						"POSITION":0,
						"NORMAL":1,
						"TEXCOORD_0":2
					},
					"indices":3
				},
				{
					"attributes":{
						"POSITION":4,
						"NORMAL":5,
						"TEXCOORD_0":6
					},
					"indices":7
				}
			]
		}
	],
	"accessors":[
		{
			"bufferView":0,
			"componentType":5126,
			"count":48,
			"max":[
				1.58220374584198,
				4.568508148193359,
				0.6017504930496216
			],
			"min":[
				-1.5822032690048218,
				0.0009862780570983887,
				-0.601752758026123
			],
			"type":"VEC3"
		},
		{
			"bufferView":1,
			"componentType":5126,
			"count":48,
			"type":"VEC3"
		},
		{
			"bufferView":2,
			"componentType":5126,
			"count":48,
			"type":"VEC2"
		},
		{
			"bufferView":3,
			"componentType":5123,
			"count":144,
			"type":"SCALAR"
		},
		{
			"bufferView":4,
			"componentType":5126,
			"count":120,
			"max":[
				1.5110934972763062,
				4.491786479949951,
				0.6017504930496216
			],
			"min":[
				-1.5137299299240112,
				0.11882704496383667,
				-0.44999611377716064
			],
			"type":"VEC3"
		},
		{
			"bufferView":5,
			"componentType":5126,
			"count":120,
			"type":"VEC3"
		},
		{
			"bufferView":6,
			"componentType":5126,
			"count":120,
			"type":"VEC2"
		},
		{
			"bufferView":7,
			"componentType":5123,
			"count":180,
			"type":"SCALAR"
		}
	],
	"bufferViews":[
		{
			"buffer":0,
			"byteLength":576,
			"byteOffset":0,
			"target":34962
		},
		{
			"buffer":0,
			"byteLength":576,
			"byteOffset":576,
			"target":34962
		},
		{
			"buffer":0,
			"byteLength":384,
			"byteOffset":1152,
			"target":34962
		},
		{
			"buffer":0,
			"byteLength":288,
			"byteOffset":1536,
			"target":34963
		},
		{
			"buffer":0,
			"byteLength":1440,
			"byteOffset":1824,
			"target":34962
		},
		{
			"buffer":0,
			"byteLength":1440,
			"byteOffset":3264,
			"target":34962
		},
		{
			"buffer":0,
			"byteLength":960,
			"byteOffset":4704,
			"target":34962
		},
		{
			"buffer":0,
			"byteLength":360,
			"byteOffset":5664,
			"target":34963
		}
	],
	"buffers":[
		{
			"byteLength":6024,
			"uri":"shelving_unit.bin"
		}
	]
}
