{
	"asset":{
		"generator":"Khronos glTF Blender I/O v4.5.48",
		"version":"2.0"
	},
	"scene":0,
	"scenes":[
		{
			"name":"Scene",
			"nodes":[
				0
			]
		}
	],
	"nodes":[
		{
			"mesh":0,
			"name":"shoe_rack"
		}
	],
	"meshes":[
		{
			"name":"shoe_rack",
			"primitives":[
				{
					"attributes":{
						"POSITION":0,
						"NORMAL":1,
						"TEXCOORD_0":2
					},
					"indices":3
				},
				{
					"attributes":{
						"POSITION":4,
						"NORMAL":5,
						"TEXCOORD_0":6
					},
					"indices":7
				},
				{
					"attributes":{
						"POSITION":8,
						"NORMAL":9,
						"TEXCOORD_0":10
					},
					"indices":11
				}
			]
		}
	],
	"accessors":[
		{
			"bufferView":0,
			"componentType":5126,
			"count":88,
			"max":[
				0.9999971389770508,
				1.2741385698318481,
				0.4806550145149231
			],
			"min":[
				-1.0000028610229492,
				0.00030362606048583984,
				-0.48064953088760376
			],
			"type":"VEC3"
		},
		{
			"bufferView":1,
			"componentType":5126,
			"count":88,
			"type":"VEC3"
		},
		{
			"bufferView":2,
			"componentType":5126,
			"count":88,
			"type":"VEC2"
		},
		{
			"bufferView":3,
			"componentType":5123,
			"count":228,
			"type":"SCALAR"
		},
		{
			"bufferView":4,
			"componentType":5126,
			"count":326,
			"max":[
				0.8670910596847534,
				1.2741385698318481,
				0.4806550145149231
			],
			"min":[
				-0.8561359643936157,
				0.00030362606048583984,
				-0.48064953088760376
			],
			"type":"VEC3"
		},
		{
			"bufferView":5,
			"componentType":5126,
			"count":326,
			"type":"VEC3"
		},
		{
			"bufferView":6,
			"componentType":5126,
			"count":326,
			"type":"VEC2"
		},
		{
			"bufferView":7,
			"componentType":5123,
			"count":678,
			"type":"SCALAR"
		},
		{
			"bufferView":8,
			"componentType":5126,
			"count":148,
			"max":[
				0.9999971389770508,
				1.2741385698318481,
				0.43208083510398865
			],
			"min":[
				-1.0000028610229492,
				0.00030362606048583984,
				-0.4320761561393738
			],
			"type":"VEC3"
		},
		{
			"bufferView":9,
			"componentType":5126,
			"count":148,
			"type":"VEC3"
		},
		{
			"bufferView":10,
			"componentType":5126,
			"count":148,
			"type":"VEC2"
		},
		{
			"bufferView":11,
			"componentType":5123,
			"count":414,
			"type":"SCALAR"
		}
	],
	"bufferViews":[
		{
			"buffer":0,
			"byteLength":1056,
			"byteOffset":0,
			"target":34962
		},
		{
			"buffer":0,
			"byteLength":1056,
			"byteOffset":1056,
			"target":34962
		},
		{
			"buffer":0,
			"byteLength":704,
			"byteOffset":2112,
			"target":34962
		},
		{
			"buffer":0,
			"byteLength":456,
			"byteOffset":2816,
			"target":34963
		},
		{
			"buffer":0,
			"byteLength":3912,
			"byteOffset":3272,
			"target":34962
		},
		{
			"buffer":0,
			"byteLength":3912,
			"byteOffset":7184,
			"target":34962
		},
		{
			"buffer":0,
			"byteLength":2608,
			"byteOffset":11096,
			"target":34962
		},
		{
			"buffer":0,
			"byteLength":1356,
			"byteOffset":13704,
			"target":34963
		},
		{
			"buffer":0,
			"byteLength":1776,
			"byteOffset":15060,
			"target":34962
		},
		{
			"buffer":0,
			"byteLength":1776,
			"byteOffset":16836,
			"target":34962
		},
		{
			"buffer":0,
			"byteLength":1184,
			"byteOffset":18612,
			"target":34962
		},
		{
			"buffer":0,
			"byteLength":828,
			"byteOffset":19796,
			"target":34963
		}
	],
	"buffers":[
		{
			"byteLength":20624,
			"uri":"shoe_rack.bin"
		}
	]
}
