{
	"asset":{
		"generator":"Khronos glTF Blender I/O v4.5.48",
		"version":"2.0"
	},
	"scene":0,
	"scenes":[
		{
			"name":"Scene",
			"nodes":[
				0,
				1,
				2
			]
		}
	],
	"nodes":[
		{
			"mesh":0,
			"name":"tv_stand_02_drawer_02",
			"rotation":[
				0,
				-0.7071068286895752,
				0.7071068286895752,
				1.9342908785802138e-07
			],
			"scale":[
				2.5791308879852295,
				0.4442194700241089,
				0.08814265578985214
			],
			"translation":[
				0.2020397186279297,
				0.6963667869567871,
				-0.7981758117675781
			]
		},
		{
			"mesh":1,
			"name":"tv_stand_02_drawer_01",
			"rotation":[
				0,
				-0.7071068286895752,
				0.7071068286895752,
				1.9342908785802138e-07
			],
			"scale":[
				2.5791308879852295,
				0.4442194700241089,
				0.08814265578985214
			],
			"translation":[
				0.2020406723022461,
				0.6963667869567871,
				0.7415657043457031
			]
		},
		{
			"mesh":2,
			"name":"tv_stand_02_main",
			"scale":[
				0.7705263495445251,
				0.7650333046913147,
				1.5604408979415894
			],
			"translation":[
				0,
				0.7741352319717407,
				0
			]
		}
	],
	"meshes":[
		{
			"name":"tv_stand_drawer_02",
			"primitives":[
				{
					"attributes":{
						"POSITION":0,
						"NORMAL":1,
						"TEXCOORD_0":2
					},
					"indices":3
				}
			]
		},
		{
			"name":"tv_stand_drawer_01",
			"primitives":[
				{
					"attributes":{
						"POSITION":4,
						"NORMAL":5,
						"TEXCOORD_0":6
					},
					"indices":3
				}
			]
		},
		{
			"name":"tv_stand_main",
			"primitives":[
				{
					"attributes":{
						"POSITION":7,
						"NORMAL":8,
						"TEXCOORD_0":9
					},
					"indices":10
				},
				{
					"attributes":{
						"POSITION":11,
						"NORMAL":12,
						"TEXCOORD_0":13
					},
					"indices":14
				},
				{
					"attributes":{
						"POSITION":15,
						"NORMAL":16,
						"TEXCOORD_0":17
					},
					"indices":18
				}
			]
		}
	],
	"accessors":[
		{
			"bufferView":0,
			"componentType":5126,
			"count":2028,
			"max":[
				0.2249583899974823,
				1.6420124769210815,
				3.7538132667541504
			],
			"min":[
				-0.26458823680877686,
				-1.712436318397522,
				-4.713616371154785
			],
			"type":"VEC3"
		},
		{
			"bufferView":1,
			"componentType":5126,
			"count":2028,
			"type":"VEC3"
		},
		{
			"bufferView":2,
			"componentType":5126,
			"count":2028,
			"type":"VEC2"
		},
		{
			"bufferView":3,
			"componentType":5123,
			"count":3726,
			"type":"SCALAR"
		},
		{
			"bufferView":4,
			"componentType":5126,
			"count":2028,
			"max":[
				0.2249583899974823,
				1.6420124769210815,
				3.7538132667541504
			],
			"min":[
				-0.26458823680877686,
				-1.712436318397522,
				-4.713616371154785
			],
			"type":"VEC3"
		},
		{
			"bufferView":5,
			"componentType":5126,
			"count":2028,
			"type":"VEC3"
		},
		{
			"bufferView":6,
			"componentType":5126,
			"count":2028,
			"type":"VEC2"
		},
		{
			"bufferView":7,
			"componentType":5126,
			"count":1367,
			"max":[
				1,
				0.9999998211860657,
				1.0000026226043701
			],
			"min":[
				-0.9999992847442627,
				-0.9999998211860657,
				-0.9999969601631165
			],
			"type":"VEC3"
		},
		{
			"bufferView":8,
			"componentType":5126,
			"count":1367,
			"type":"VEC3"
		},
		{
			"bufferView":9,
			"componentType":5126,
			"count":1367,
			"type":"VEC2"
		},
		{
			"bufferView":10,
			"componentType":5123,
			"count":2193,
			"type":"SCALAR"
		},
		{
			"bufferView":11,
			"componentType":5126,
			"count":1379,
			"max":[
				1,
				0.9082018136978149,
				0.9288359880447388
			],
			"min":[
				-0.92364501953125,
				-0.4308721423149109,
				-0.9398272037506104
			],
			"type":"VEC3"
		},
		{
			"bufferView":12,
			"componentType":5126,
			"count":1379,
			"type":"VEC3"
		},
		{
			"bufferView":13,
			"componentType":5126,
			"count":1379,
			"type":"VEC2"
		},
		{
			"bufferView":14,
			"componentType":5123,
			"count":2103,
			"type":"SCALAR"
		},
		{
			"bufferView":15,
			"componentType":5126,
			"count":1102,
			"max":[
				0.9853553771972656,
				-0.5546631217002869,
				0.9853581190109253
			],
			"min":[
				-0.9853546619415283,
				-0.9853551387786865,
				-0.9853522181510925
			],
			"type":"VEC3"
		},
		{
			"bufferView":16,
			"componentType":5126,
			"count":1102,
			"type":"VEC3"
		},
		{
			"bufferView":17,
			"componentType":5126,
			"count":1102,
			"type":"VEC2"
		},
		{
			"bufferView":18,
			"componentType":5123,
			"count":1674,
			"type":"SCALAR"
		}
	],
	"bufferViews":[
		{
			"buffer":0,
			"byteLength":24336,
			"byteOffset":0,
			"target":34962
		},
		{
			"buffer":0,
			"byteLength":24336,
			"byteOffset":24336,
			"target":34962
		},
		{
			"buffer":0,
			"byteLength":16224,
			"byteOffset":48672,
			"target":34962
		},
		{
			"buffer":0,
			"byteLength":7452,
			"byteOffset":64896,
			"target":34963
		},
		{
			"buffer":0,
			"byteLength":24336,
			"byteOffset":72348,
			"target":34962
		},
		{
			"buffer":0,
			"byteLength":24336,
			"byteOffset":96684,
			"target":34962
		},
		{
			"buffer":0,
			"byteLength":16224,
			"byteOffset":121020,
			"target":34962
		},
		{
			"buffer":0,
			"byteLength":16404,
			"byteOffset":137244,
			"target":34962
		},
		{
			"buffer":0,
			"byteLength":16404,
			"byteOffset":153648,
			"target":34962
		},
		{
			"buffer":0,
			"byteLength":10936,
			"byteOffset":170052,
			"target":34962
		},
		{
			"buffer":0,
			"byteLength":4386,
			"byteOffset":180988,
			"target":34963
		},
		{
			"buffer":0,
			"byteLength":16548,
			"byteOffset":185376,
			"target":34962
		},
		{
			"buffer":0,
			"byteLength":16548,
			"byteOffset":201924,
			"target":34962
		},
		{
			"buffer":0,
			"byteLength":11032,
			"byteOffset":218472,
			"target":34962
		},
		{
			"buffer":0,
			"byteLength":4206,
			"byteOffset":229504,
			"target":34963
		},
		{
			"buffer":0,
			"byteLength":13224,
			"byteOffset":233712,
			"target":34962
		},
		{
			"buffer":0,
			"byteLength":13224,
			"byteOffset":246936,
			"target":34962
		},
		{
			"buffer":0,
			"byteLength":8816,
			"byteOffset":260160,
			"target":34962
		},
		{
			"buffer":0,
			"byteLength":3348,
			"byteOffset":268976,
			"target":34963
		}
	],
	"buffers":[
		{
			"byteLength":272324,
			"uri":"tv_stand_02.bin"
		}
	]
}
