{
	"asset":{
		"generator":"Khronos glTF Blender I/O v4.5.48",
		"version":"2.0"
	},
	"scene":0,
	"scenes":[
		{
			"name":"Scene",
			"nodes":[
				0,
				1
			]
		}
	],
	"nodes":[
		{
			"mesh":0,
			"name":"light_switch_single_main",
			"scale":[
				0.10839216411113739,
				0.1607406586408615,
				0.10839217156171799
			]
		},
		{
			"mesh":1,
			"name":"light_switch_single_01",
			"rotation":[
				0.35211557149887085,
				0,
				0,
				0.9359565377235413
			],
			"scale":[
				0.01366674154996872,
				0.01105637289583683,
				0.02631283551454544
			],
			"translation":[
				-0.0004823194758500904,
				0.014530348591506481,
				0.0001921132206916809
			]
		}
	],
	"meshes":[
		{
			"name":"Cube.011",
			"primitives":[
				{
					"attributes":{
						"POSITION":0,
						"NORMAL":1,
						"TEXCOORD_0":2
					},
					"indices":3
				},
				{
					"attributes":{
						"POSITION":4,
						"NORMAL":5,
						"TEXCOORD_0":6
					},
					"indices":7
				},
				{
					"attributes":{
						"POSITION":8,
						"NORMAL":9,
						"TEXCOORD_0":10
					},
					"indices":11
				}
			]
		},
		{
			"name":"Cube.010",
			"primitives":[
				{
					"attributes":{
						"POSITION":12,
						"NORMAL":13,
						"TEXCOORD_0":14
					},
					"indices":15
				},
				{
					"attributes":{
						"POSITION":16,
						"NORMAL":17,
						"TEXCOORD_0":18
					},
					"indices":19
				}
			]
		}
	],
	"accessors":[
		{
			"bufferView":0,
			"componentType":5126,
			"count":344,
			"max":[
				1,
				0.994272768497467,
				0.1265203356742859
			],
			"min":[
				-1,
				-1.0057271718978882,
				-0.12880009412765503
			],
			"type":"VEC3"
		},
		{
			"bufferView":1,
			"componentType":5126,
			"count":344,
			"type":"VEC3"
		},
		{
			"bufferView":2,
			"componentType":5126,
			"count":344,
			"type":"VEC2"
		},
		{
			"bufferView":3,
			"componentType":5123,
			"count":528,
			"type":"SCALAR"
		},
		{
			"bufferView":4,
			"componentType":5126,
			"count":16,
			"max":[
				0.13550211489200592,
				0.3114820420742035,
				0.1265203356742859
			],
			"min":[
				-0.1355021744966507,
				-0.17402973771095276,
				-0.12880009412765503
			],
			"type":"VEC3"
		},
		{
			"bufferView":5,
			"componentType":5126,
			"count":16,
			"type":"VEC3"
		},
		{
			"bufferView":6,
			"componentType":5126,
			"count":16,
			"type":"VEC2"
		},
		{
			"bufferView":7,
			"componentType":5123,
			"count":24,
			"type":"SCALAR"
		},
		{
			"bufferView":8,
			"componentType":5126,
			"count":24,
			"max":[
				1,
				0.994272768497467,
				0.1265203356742859
			],
			"min":[
				-1,
				-1.0057271718978882,
				0.1265203356742859
			],
			"type":"VEC3"
		},
		{
			"bufferView":9,
			"componentType":5126,
			"count":24,
			"type":"VEC3"
		},
		{
			"bufferView":10,
			"componentType":5126,
			"count":24,
			"type":"VEC2"
		},
		{
			"bufferView":11,
			"componentType":5123,
			"count":72,
			"type":"SCALAR"
		},
		{
			"bufferView":12,
			"componentType":5126,
			"count":34,
			"max":[
				0.9816198945045471,
				0.9551282525062561,
				-0.9004852175712585
			],
			"min":[
				-0.9805782437324524,
				-1.0448716878890991,
				-2.4173614978790283
			],
			"type":"VEC3"
		},
		{
			"bufferView":13,
			"componentType":5126,
			"count":34,
			"type":"VEC3"
		},
		{
			"bufferView":14,
			"componentType":5126,
			"count":34,
			"type":"VEC2"
		},
		{
			"bufferView":15,
			"componentType":5123,
			"count":72,
			"type":"SCALAR"
		},
		{
			"bufferView":16,
			"componentType":5126,
			"count":416,
			"max":[
				0.9818863272666931,
				2.856335401535034,
				1.4049001932144165
			],
			"min":[
				-0.9820653796195984,
				-2.8330421447753906,
				-0.9862663745880127
			],
			"type":"VEC3"
		},
		{
			"bufferView":17,
			"componentType":5126,
			"count":416,
			"type":"VEC3"
		},
		{
			"bufferView":18,
			"componentType":5126,
			"count":416,
			"type":"VEC2"
		},
		{
			"bufferView":19,
			"componentType":5123,
			"count":816,
			"type":"SCALAR"
		}
	],
	"bufferViews":[
		{
			"buffer":0,
			"byteLength":4128,
			"byteOffset":0,
			"target":34962
		},
		{
			"buffer":0,
			"byteLength":4128,
			"byteOffset":4128,
			"target":34962
		},
		{
			"buffer":0,
			"byteLength":2752,
			"byteOffset":8256,
			"target":34962
		},
		{
			"buffer":0,
			"byteLength":1056,
			"byteOffset":11008,
			"target":34963
		},
		{
			"buffer":0,
			"byteLength":192,
			"byteOffset":12064,
			"target":34962
		},
		{
			"buffer":0,
			"byteLength":192,
			"byteOffset":12256,
			"target":34962
		},
		{
			"buffer":0,
			"byteLength":128,
			"byteOffset":12448,
			"target":34962
		},
		{
			"buffer":0,
			"byteLength":48,
			"byteOffset":12576,
			"target":34963
		},
		{
			"buffer":0,
			"byteLength":288,
			"byteOffset":12624,
			"target":34962
		},
		{
			"buffer":0,
			"byteLength":288,
			"byteOffset":12912,
			"target":34962
		},
		{
			"buffer":0,
			"byteLength":192,
			"byteOffset":13200,
			"target":34962
		},
		{
			"buffer":0,
			"byteLength":144,
			"byteOffset":13392,
			"target":34963
		},
		{
			"buffer":0,
			"byteLength":408,
			"byteOffset":13536,
			"target":34962
		},
		{
			"buffer":0,
			"byteLength":408,
			"byteOffset":13944,
			"target":34962
		},
		{
			"buffer":0,
			"byteLength":272,
			"byteOffset":14352,
			"target":34962
		},
		{
			"buffer":0,
			"byteLength":144,
			"byteOffset":14624,
			"target":34963
		},
		{
			"buffer":0,
			"byteLength":4992,
			"byteOffset":14768,
			"target":34962
		},
		{
			"buffer":0,
			"byteLength":4992,
			"byteOffset":19760,
			"target":34962
		},
		{
			"buffer":0,
			"byteLength":3328,
			"byteOffset":24752,
			"target":34962
		},
		{
			"buffer":0,
			"byteLength":1632,
			"byteOffset":28080,
			"target":34963
		}
	],
	"buffers":[
		{
			"byteLength":29712,
			"uri":"light_switch_single.bin"
		}
	]
}
