{
	"asset":{
		"generator":"Khronos glTF Blender I/O v4.5.48",
		"version":"2.0"
	},
	"scene":0,
	"scenes":[
		{
			"name":"Scene",
			"nodes":[
				0,
				1,
				2,
				3,
				4
			]
		}
	],
	"nodes":[
		{
			"mesh":0,
			"name":"bed_cover",
			"scale":[
				0.28310444951057434,
				0.2354341745376587,
				0.7864822149276733
			],
			"translation":[
				0.15258756279945374,
				1.1427972316741943,
				0.011824175715446472
			]
		},
		{
			"mesh":1,
			"name":"bed_pillow_02",
			"rotation":[
				0.007859133183956146,
				-0.04414331540465355,
				0.05834846571087837,
				0.9972888827323914
			],
			"scale":[
				0.5003905892372131,
				0.23543420433998108,
				0.7476028203964233
			],
			"translation":[
				1.9223804473876953,
				1.3222379684448242,
				0.7618045806884766
			]
		},
		{
			"mesh":2,
			"name":"bed_pillow_01",
			"rotation":[
				0.016321826726198196,
				0.04023153707385063,
				0.058723386377096176,
				0.9973297715187073
			],
			"scale":[
				0.5003905296325684,
				0.2354341745376587,
				0.7476028800010681
			],
			"translation":[
				1.9327926635742188,
				1.4095566272735596,
				-0.7834901809692383
			]
		},
		{
			"mesh":3,
			"name":"bed_matress",
			"scale":[
				2.461331844329834,
				0.3182429075241089,
				1.557084560394287
			],
			"translation":[
				-0.010277748107910156,
				0.9062751531600952,
				-0.00039196014404296875
			]
		},
		{
			"mesh":4,
			"name":"bed_frame",
			"scale":[
				2.4771616458892822,
				0.9114315509796143,
				1.5917584896087646
			],
			"translation":[
				0,
				0.25341367721557617,
				0
			]
		}
	],
	"meshes":[
		{
			"name":"bed_cover",
			"primitives":[
				{
					"attributes":{
						"POSITION":0,
						"NORMAL":1,
						"TEXCOORD_0":2
					},
					"indices":3
				}
			]
		},
		{
			"name":"bed_pillow_02",
			"primitives":[
				{
					"attributes":{
						"POSITION":4,
						"NORMAL":5,
						"TEXCOORD_0":6
					},
					"indices":7
				}
			]
		},
		{
			"name":"bed_pillow_01",
			"primitives":[
				{
					"attributes":{
						"POSITION":8,
						"NORMAL":9,
						"TEXCOORD_0":10
					},
					"indices":7
				}
			]
		},
		{
			"name":"bed_matress",
			"primitives":[
				{
					"attributes":{
						"POSITION":11,
						"NORMAL":12,
						"TEXCOORD_0":13
					},
					"indices":14
				}
			]
		},
		{
			"name":"bed_frame",
			"primitives":[
				{
					"attributes":{
						"POSITION":15,
						"NORMAL":16,
						"TEXCOORD_0":17
					},
					"indices":18
				},
				{
					"attributes":{
						"POSITION":19,
						"NORMAL":20,
						"TEXCOORD_0":21
					},
					"indices":22
				}
			]
		}
	],
	"accessors":[
		{
			"bufferView":0,
			"componentType":5126,
			"count":2352,
			"max":[
				3.9229073524475098,
				1.1230692863464355,
				2.1488089561462402
			],
			"min":[
				-9.855753898620605,
				-1.6811859607696533,
				-2.148808479309082
			],
			"type":"VEC3"
		},
		{
			"bufferView":1,
			"componentType":5126,
			"count":2352,
			"type":"VEC3"
		},
		{
			"bufferView":2,
			"componentType":5126,
			"count":2352,
			"type":"VEC2"
		},
		{
			"bufferView":3,
			"componentType":5123,
			"count":3528,
			"type":"SCALAR"
		},
		{
			"bufferView":4,
			"componentType":5126,
			"count":1176,
			"max":[
				0.9999999403953552,
				0.8695964217185974,
				1
			],
			"min":[
				-1,
				-0.8695960640907288,
				-1
			],
			"type":"VEC3"
		},
		{
			"bufferView":5,
			"componentType":5126,
			"count":1176,
			"type":"VEC3"
		},
		{
			"bufferView":6,
			"componentType":5126,
			"count":1176,
			"type":"VEC2"
		},
		{
			"bufferView":7,
			"componentType":5123,
			"count":1764,
			"type":"SCALAR"
		},
		{
			"bufferView":8,
			"componentType":5126,
			"count":1176,
			"max":[
				0.9999999403953552,
				0.8695964217185974,
				1
			],
			"min":[
				-1,
				-0.8695960640907288,
				-1
			],
			"type":"VEC3"
		},
		{
			"bufferView":9,
			"componentType":5126,
			"count":1176,
			"type":"VEC3"
		},
		{
			"bufferView":10,
			"componentType":5126,
			"count":1176,
			"type":"VEC2"
		},
		{
			"bufferView":11,
			"componentType":5126,
			"count":384,
			"max":[
				1,
				1,
				1
			],
			"min":[
				-1,
				-1,
				-1
			],
			"type":"VEC3"
		},
		{
			"bufferView":12,
			"componentType":5126,
			"count":384,
			"type":"VEC3"
		},
		{
			"bufferView":13,
			"componentType":5126,
			"count":384,
			"type":"VEC2"
		},
		{
			"bufferView":14,
			"componentType":5123,
			"count":564,
			"type":"SCALAR"
		},
		{
			"bufferView":15,
			"componentType":5126,
			"count":52,
			"max":[
				1.0000001192092896,
				0.5832033157348633,
				1
			],
			"min":[
				-0.9999998211860657,
				-0.283003568649292,
				-1
			],
			"type":"VEC3"
		},
		{
			"bufferView":16,
			"componentType":5126,
			"count":52,
			"type":"VEC3"
		},
		{
			"bufferView":17,
			"componentType":5126,
			"count":52,
			"type":"VEC2"
		},
		{
			"bufferView":18,
			"componentType":5123,
			"count":102,
			"type":"SCALAR"
		},
		{
			"bufferView":19,
			"componentType":5126,
			"count":46,
			"max":[
				1.0000001192092896,
				0.15680325031280518,
				1
			],
			"min":[
				-0.9999998211860657,
				-0.283003568649292,
				-1
			],
			"type":"VEC3"
		},
		{
			"bufferView":20,
			"componentType":5126,
			"count":46,
			"type":"VEC3"
		},
		{
			"bufferView":21,
			"componentType":5126,
			"count":46,
			"type":"VEC2"
		},
		{
			"bufferView":22,
			"componentType":5123,
			"count":90,
			"type":"SCALAR"
		}
	],
	"bufferViews":[
		{
			"buffer":0,
			"byteLength":28224,
			"byteOffset":0,
			"target":34962
		},
		{
			"buffer":0,
			"byteLength":28224,
			"byteOffset":28224,
			"target":34962
		},
		{
			"buffer":0,
			"byteLength":18816,
			"byteOffset":56448,
			"target":34962
		},
		{
			"buffer":0,
			"byteLength":7056,
			"byteOffset":75264,
			"target":34963
		},
		{
			"buffer":0,
			"byteLength":14112,
			"byteOffset":82320,
			"target":34962
		},
		{
			"buffer":0,
			"byteLength":14112,
			"byteOffset":96432,
			"target":34962
		},
		{
			"buffer":0,
			"byteLength":9408,
			"byteOffset":110544,
			"target":34962
		},
		{
			"buffer":0,
			"byteLength":3528,
			"byteOffset":119952,
			"target":34963
		},
		{
			"buffer":0,
			"byteLength":14112,
			"byteOffset":123480,
			"target":34962
		},
		{
			"buffer":0,
			"byteLength":14112,
			"byteOffset":137592,
			"target":34962
		},
		{
			"buffer":0,
			"byteLength":9408,
			"byteOffset":151704,
			"target":34962
		},
		{
			"buffer":0,
			"byteLength":4608,
			"byteOffset":161112,
			"target":34962
		},
		{
			"buffer":0,
			"byteLength":4608,
			"byteOffset":165720,
			"target":34962
		},
		{
			"buffer":0,
			"byteLength":3072,
			"byteOffset":170328,
			"target":34962
		},
		{
			"buffer":0,
			"byteLength":1128,
			"byteOffset":173400,
			"target":34963
		},
		{
			"buffer":0,
			"byteLength":624,
			"byteOffset":174528,
			"target":34962
		},
		{
			"buffer":0,
			"byteLength":624,
			"byteOffset":175152,
			"target":34962
		},
		{
			"buffer":0,
			"byteLength":416,
			"byteOffset":175776,
			"target":34962
		},
		{
			"buffer":0,
			"byteLength":204,
			"byteOffset":176192,
			"target":34963
		},
		{
			"buffer":0,
			"byteLength":552,
			"byteOffset":176396,
			"target":34962
		},
		{
			"buffer":0,
			"byteLength":552,
			"byteOffset":176948,
			"target":34962
		},
		{
			"buffer":0,
			"byteLength":368,
			"byteOffset":177500,
			"target":34962
		},
		{
			"buffer":0,
			"byteLength":180,
			"byteOffset":177868,
			"target":34963
		}
	],
	"buffers":[
		{
			"byteLength":178048,
			"uri":"bed.bin"
		}
	]
}
