{
	"asset":{
		"generator":"Khronos glTF Blender I/O v4.5.48",
		"version":"2.0"
	},
	"scene":0,
	"scenes":[
		{
			"name":"Scene",
			"nodes":[
				0,
				1,
				2,
				3,
				4,
				5,
				6
			]
		}
	],
	"nodes":[
		{
			"mesh":0,
			"name":"cabinet_drawer_06",
			"scale":[
				0.5077979564666748,
				0.34600427746772766,
				0.6444122195243835
			],
			"translation":[
				0.0002553038066253066,
				0.8987884521484375,
				-0.6939484477043152
			]
		},
		{
			"mesh":1,
			"name":"cabinet_drawer_04",
			"scale":[
				0.5077979564666748,
				0.34600427746772766,
				0.6444122195243835
			],
			"translation":[
				0.8310971260070801,
				1.6159954071044922,
				-0.696901261806488
			]
		},
		{
			"mesh":2,
			"name":"cabinet_drawer_01",
			"scale":[
				0.5077979564666748,
				0.34600427746772766,
				0.6444121599197388
			],
			"translation":[
				0.9914175271987915,
				2.3476903438568115,
				-0.7075383067131042
			]
		},
		{
			"mesh":3,
			"name":"cabinet_drawer_02",
			"scale":[
				0.5077979564666748,
				0.34600427746772766,
				0.6444122195243835
			],
			"translation":[
				-0.003795535070821643,
				2.3476901054382324,
				-0.7078391313552856
			]
		},
		{
			"mesh":4,
			"name":"cabinet_drawer_03",
			"scale":[
				0.5077979564666748,
				0.34600427746772766,
				0.6444122195243835
			],
			"translation":[
				-0.9976155757904053,
				2.3476903438568115,
				-0.7053873538970947
			]
		},
		{
			"mesh":5,
			"name":"cabinet_drawer_05",
			"scale":[
				0.5077979564666748,
				0.34600427746772766,
				0.6444122195243835
			],
			"translation":[
				-0.7345467805862427,
				1.6159954071044922,
				-0.696901261806488
			]
		},
		{
			"mesh":6,
			"name":"cabinet_main",
			"translation":[
				-0.0029860897921025753,
				1.1212778091430664,
				0.002601642394438386
			]
		}
	],
	"meshes":[
		{
			"name":"Cube.564",
			"primitives":[
				{
					"attributes":{
						"POSITION":0,
						"NORMAL":1,
						"TEXCOORD_0":2
					},
					"indices":3
				},
				{
					"attributes":{
						"POSITION":4,
						"NORMAL":5,
						"TEXCOORD_0":6
					},
					"indices":7
				}
			]
		},
		{
			"name":"Cube.563",
			"primitives":[
				{
					"attributes":{
						"POSITION":8,
						"NORMAL":9,
						"TEXCOORD_0":10
					},
					"indices":11
				},
				{
					"attributes":{
						"POSITION":12,
						"NORMAL":13,
						"TEXCOORD_0":14
					},
					"indices":15
				}
			]
		},
		{
			"name":"Cube.562",
			"primitives":[
				{
					"attributes":{
						"POSITION":16,
						"NORMAL":17,
						"TEXCOORD_0":18
					},
					"indices":19
				},
				{
					"attributes":{
						"POSITION":20,
						"NORMAL":21,
						"TEXCOORD_0":22
					},
					"indices":7
				}
			]
		},
		{
			"name":"Cube.561",
			"primitives":[
				{
					"attributes":{
						"POSITION":23,
						"NORMAL":24,
						"TEXCOORD_0":25
					},
					"indices":26
				},
				{
					"attributes":{
						"POSITION":27,
						"NORMAL":28,
						"TEXCOORD_0":29
					},
					"indices":7
				}
			]
		},
		{
			"name":"Cube.560",
			"primitives":[
				{
					"attributes":{
						"POSITION":30,
						"NORMAL":31,
						"TEXCOORD_0":32
					},
					"indices":33
				},
				{
					"attributes":{
						"POSITION":34,
						"NORMAL":35,
						"TEXCOORD_0":36
					},
					"indices":7
				}
			]
		},
		{
			"name":"Cube.559",
			"primitives":[
				{
					"attributes":{
						"POSITION":37,
						"NORMAL":38,
						"TEXCOORD_0":39
					},
					"indices":40
				},
				{
					"attributes":{
						"POSITION":41,
						"NORMAL":42,
						"TEXCOORD_0":43
					},
					"indices":15
				}
			]
		},
		{
			"name":"Cube.521",
			"primitives":[
				{
					"attributes":{
						"POSITION":44,
						"NORMAL":45,
						"TEXCOORD_0":46
					},
					"indices":47
				},
				{
					"attributes":{
						"POSITION":48,
						"NORMAL":49,
						"TEXCOORD_0":50
					},
					"indices":51
				},
				{
					"attributes":{
						"POSITION":52,
						"NORMAL":53,
						"TEXCOORD_0":54
					},
					"indices":55
				}
			]
		}
	],
	"accessors":[
		{
			"bufferView":0,
			"componentType":5126,
			"count":950,
			"max":[
				3.047736167907715,
				0.7279996871948242,
				1.8299498558044434
			],
			"min":[
				-3.0391626358032227,
				-1.5438783168792725,
				-0.24284714460372925
			],
			"type":"VEC3"
		},
		{
			"bufferView":1,
			"componentType":5126,
			"count":950,
			"type":"VEC3"
		},
		{
			"bufferView":2,
			"componentType":5126,
			"count":950,
			"type":"VEC2"
		},
		{
			"bufferView":3,
			"componentType":5123,
			"count":1464,
			"type":"SCALAR"
		},
		{
			"bufferView":4,
			"componentType":5126,
			"count":1152,
			"max":[
				0.4242408573627472,
				0.4319727420806885,
				-0.2460516095161438
			],
			"min":[
				-0.45094484090805054,
				0.27454113960266113,
				-0.3879846930503845
			],
			"type":"VEC3"
		},
		{
			"bufferView":5,
			"componentType":5126,
			"count":1152,
			"type":"VEC3"
		},
		{
			"bufferView":6,
			"componentType":5126,
			"count":1152,
			"type":"VEC2"
		},
		{
			"bufferView":7,
			"componentType":5123,
			"count":2268,
			"type":"SCALAR"
		},
		{
			"bufferView":8,
			"componentType":5126,
			"count":946,
			"max":[
				1.3629436492919922,
				0.6532936096191406,
				1.8348219394683838
			],
			"min":[
				-1.6112661361694336,
				-1.3281886577606201,
				-0.23824554681777954
			],
			"type":"VEC3"
		},
		{
			"bufferView":9,
			"componentType":5126,
			"count":946,
			"type":"VEC3"
		},
		{
			"bufferView":10,
			"componentType":5126,
			"count":946,
			"type":"VEC2"
		},
		{
			"bufferView":11,
			"componentType":5123,
			"count":1464,
			"type":"SCALAR"
		},
		{
			"bufferView":12,
			"componentType":5126,
			"count":1152,
			"max":[
				0.5072014331817627,
				0.36179089546203613,
				-0.24146944284439087
			],
			"min":[
				-0.3679842948913574,
				0.2043592929840088,
				-0.3834025263786316
			],
			"type":"VEC3"
		},
		{
			"bufferView":13,
			"componentType":5126,
			"count":1152,
			"type":"VEC3"
		},
		{
			"bufferView":14,
			"componentType":5126,
			"count":1152,
			"type":"VEC2"
		},
		{
			"bufferView":15,
			"componentType":5123,
			"count":2268,
			"type":"SCALAR"
		},
		{
			"bufferView":16,
			"componentType":5126,
			"count":926,
			"max":[
				1.0341323614120483,
				0.6813981533050537,
				1.8424108028411865
			],
			"min":[
				-0.9658676385879517,
				-1.4267184734344482,
				-0.23038619756698608
			],
			"type":"VEC3"
		},
		{
			"bufferView":17,
			"componentType":5126,
			"count":926,
			"type":"VEC3"
		},
		{
			"bufferView":18,
			"componentType":5126,
			"count":926,
			"type":"VEC2"
		},
		{
			"bufferView":19,
			"componentType":5123,
			"count":1428,
			"type":"SCALAR"
		},
		{
			"bufferView":20,
			"componentType":5126,
			"count":1152,
			"max":[
				0.405492901802063,
				0.3595254123210907,
				-0.22496181726455688
			],
			"min":[
				-0.46969282627105713,
				0.20209386944770813,
				-0.36689502000808716
			],
			"type":"VEC3"
		},
		{
			"bufferView":21,
			"componentType":5126,
			"count":1152,
			"type":"VEC3"
		},
		{
			"bufferView":22,
			"componentType":5126,
			"count":1152,
			"type":"VEC2"
		},
		{
			"bufferView":23,
			"componentType":5126,
			"count":926,
			"max":[
				1.0041587352752686,
				0.6813982725143433,
				1.8416639566421509
			],
			"min":[
				-0.9958412051200867,
				-1.4267183542251587,
				-0.23113298416137695
			],
			"type":"VEC3"
		},
		{
			"bufferView":24,
			"componentType":5126,
			"count":926,
			"type":"VEC3"
		},
		{
			"bufferView":25,
			"componentType":5126,
			"count":926,
			"type":"VEC2"
		},
		{
			"bufferView":26,
			"componentType":5123,
			"count":1428,
			"type":"SCALAR"
		},
		{
			"bufferView":27,
			"componentType":5126,
			"count":1152,
			"max":[
				0.42438846826553345,
				0.3595254719257355,
				-0.224495530128479
			],
			"min":[
				-0.4507972300052643,
				0.2020939290523529,
				-0.3664286136627197
			],
			"type":"VEC3"
		},
		{
			"bufferView":28,
			"componentType":5126,
			"count":1152,
			"type":"VEC3"
		},
		{
			"bufferView":29,
			"componentType":5126,
			"count":1152,
			"type":"VEC2"
		},
		{
			"bufferView":30,
			"componentType":5126,
			"count":926,
			"max":[
				0.9730536937713623,
				0.6813981533050537,
				1.8477007150650024
			],
			"min":[
				-1.0269463062286377,
				-1.4267184734344482,
				-0.22509586811065674
			],
			"type":"VEC3"
		},
		{
			"bufferView":31,
			"componentType":5126,
			"count":926,
			"type":"VEC3"
		},
		{
			"bufferView":32,
			"componentType":5126,
			"count":926,
			"type":"VEC2"
		},
		{
			"bufferView":33,
			"componentType":5123,
			"count":1428,
			"type":"SCALAR"
		},
		{
			"bufferView":34,
			"componentType":5126,
			"count":1152,
			"max":[
				0.4439830780029297,
				0.3595253527164459,
				-0.22830069065093994
			],
			"min":[
				-0.43120265007019043,
				0.20209380984306335,
				-0.37023377418518066
			],
			"type":"VEC3"
		},
		{
			"bufferView":35,
			"componentType":5126,
			"count":1152,
			"type":"VEC3"
		},
		{
			"bufferView":36,
			"componentType":5126,
			"count":1152,
			"type":"VEC2"
		},
		{
			"bufferView":37,
			"componentType":5126,
			"count":946,
			"max":[
				1.43881094455719,
				0.6532936096191406,
				1.8348219394683838
			],
			"min":[
				-1.5353988409042358,
				-1.3281886577606201,
				-0.23824554681777954
			],
			"type":"VEC3"
		},
		{
			"bufferView":38,
			"componentType":5126,
			"count":946,
			"type":"VEC3"
		},
		{
			"bufferView":39,
			"componentType":5126,
			"count":946,
			"type":"VEC2"
		},
		{
			"bufferView":40,
			"componentType":5123,
			"count":1464,
			"type":"SCALAR"
		},
		{
			"bufferView":41,
			"componentType":5126,
			"count":1152,
			"max":[
				0.4581979513168335,
				0.36179089546203613,
				-0.24146944284439087
			],
			"min":[
				-0.4169877767562866,
				0.2043592929840088,
				-0.3834025263786316
			],
			"type":"VEC3"
		},
		{
			"bufferView":42,
			"componentType":5126,
			"count":1152,
			"type":"VEC3"
		},
		{
			"bufferView":43,
			"componentType":5126,
			"count":1152,
			"type":"VEC2"
		},
		{
			"bufferView":44,
			"componentType":5126,
			"count":908,
			"max":[
				1.5624159574508667,
				1.5026484727859497,
				0.7311868071556091
			],
			"min":[
				-1.5564438104629517,
				-0.7021578550338745,
				-0.7784133553504944
			],
			"type":"VEC3"
		},
		{
			"bufferView":45,
			"componentType":5126,
			"count":908,
			"type":"VEC3"
		},
		{
			"bufferView":46,
			"componentType":5126,
			"count":908,
			"type":"VEC2"
		},
		{
			"bufferView":47,
			"componentType":5123,
			"count":1758,
			"type":"SCALAR"
		},
		{
			"bufferView":48,
			"componentType":5126,
			"count":1778,
			"max":[
				1.5470256805419922,
				1.454790472984314,
				0.4365549385547638
			],
			"min":[
				-1.536189317703247,
				-0.6326878070831299,
				-0.7784133553504944
			],
			"type":"VEC3"
		},
		{
			"bufferView":49,
			"componentType":5126,
			"count":1778,
			"type":"VEC3"
		},
		{
			"bufferView":50,
			"componentType":5126,
			"count":1778,
			"type":"VEC2"
		},
		{
			"bufferView":51,
			"componentType":5123,
			"count":2712,
			"type":"SCALAR"
		},
		{
			"bufferView":52,
			"componentType":5126,
			"count":1810,
			"max":[
				1.3911312818527222,
				1.0366933345794678,
				0.7732101082801819
			],
			"min":[
				-1.4011914730072021,
				-1.1175252199172974,
				-0.6830103397369385
			],
			"type":"VEC3"
		},
		{
			"bufferView":53,
			"componentType":5126,
			"count":1810,
			"type":"VEC3"
		},
		{
			"bufferView":54,
			"componentType":5126,
			"count":1810,
			"type":"VEC2"
		},
		{
			"bufferView":55,
			"componentType":5123,
			"count":2784,
			"type":"SCALAR"
		}
	],
	"bufferViews":[
		{
			"buffer":0,
			"byteLength":11400,
			"byteOffset":0,
			"target":34962
		},
		{
			"buffer":0,
			"byteLength":11400,
			"byteOffset":11400,
			"target":34962
		},
		{
			"buffer":0,
			"byteLength":7600,
			"byteOffset":22800,
			"target":34962
		},
		{
			"buffer":0,
			"byteLength":2928,
			"byteOffset":30400,
			"target":34963
		},
		{
			"buffer":0,
			"byteLength":13824,
			"byteOffset":33328,
			"target":34962
		},
		{
			"buffer":0,
			"byteLength":13824,
			"byteOffset":47152,
			"target":34962
		},
		{
			"buffer":0,
			"byteLength":9216,
			"byteOffset":60976,
			"target":34962
		},
		{
			"buffer":0,
			"byteLength":4536,
			"byteOffset":70192,
			"target":34963
		},
		{
			"buffer":0,
			"byteLength":11352,
			"byteOffset":74728,
			"target":34962
		},
		{
			"buffer":0,
			"byteLength":11352,
			"byteOffset":86080,
			"target":34962
		},
		{
			"buffer":0,
			"byteLength":7568,
			"byteOffset":97432,
			"target":34962
		},
		{
			"buffer":0,
			"byteLength":2928,
			"byteOffset":105000,
			"target":34963
		},
		{
			"buffer":0,
			"byteLength":13824,
			"byteOffset":107928,
			"target":34962
		},
		{
			"buffer":0,
			"byteLength":13824,
			"byteOffset":121752,
			"target":34962
		},
		{
			"buffer":0,
			"byteLength":9216,
			"byteOffset":135576,
			"target":34962
		},
		{
			"buffer":0,
			"byteLength":4536,
			"byteOffset":144792,
			"target":34963
		},
		{
			"buffer":0,
			"byteLength":11112,
			"byteOffset":149328,
			"target":34962
		},
		{
			"buffer":0,
			"byteLength":11112,
			"byteOffset":160440,
			"target":34962
		},
		{
			"buffer":0,
			"byteLength":7408,
			"byteOffset":171552,
			"target":34962
		},
		{
			"buffer":0,
			"byteLength":2856,
			"byteOffset":178960,
			"target":34963
		},
		{
			"buffer":0,
			"byteLength":13824,
			"byteOffset":181816,
			"target":34962
		},
		{
			"buffer":0,
			"byteLength":13824,
			"byteOffset":195640,
			"target":34962
		},
		{
			"buffer":0,
			"byteLength":9216,
			"byteOffset":209464,
			"target":34962
		},
		{
			"buffer":0,
			"byteLength":11112,
			"byteOffset":218680,
			"target":34962
		},
		{
			"buffer":0,
			"byteLength":11112,
			"byteOffset":229792,
			"target":34962
		},
		{
			"buffer":0,
			"byteLength":7408,
			"byteOffset":240904,
			"target":34962
		},
		{
			"buffer":0,
			"byteLength":2856,
			"byteOffset":248312,
			"target":34963
		},
		{
			"buffer":0,
			"byteLength":13824,
			"byteOffset":251168,
			"target":34962
		},
		{
			"buffer":0,
			"byteLength":13824,
			"byteOffset":264992,
			"target":34962
		},
		{
			"buffer":0,
			"byteLength":9216,
			"byteOffset":278816,
			"target":34962
		},
		{
			"buffer":0,
			"byteLength":11112,
			"byteOffset":288032,
			"target":34962
		},
		{
			"buffer":0,
			"byteLength":11112,
			"byteOffset":299144,
			"target":34962
		},
		{
			"buffer":0,
			"byteLength":7408,
			"byteOffset":310256,
			"target":34962
		},
		{
			"buffer":0,
			"byteLength":2856,
			"byteOffset":317664,
			"target":34963
		},
		{
			"buffer":0,
			"byteLength":13824,
			"byteOffset":320520,
			"target":34962
		},
		{
			"buffer":0,
			"byteLength":13824,
			"byteOffset":334344,
			"target":34962
		},
		{
			"buffer":0,
			"byteLength":9216,
			"byteOffset":348168,
			"target":34962
		},
		{
			"buffer":0,
			"byteLength":11352,
			"byteOffset":357384,
			"target":34962
		},
		{
			"buffer":0,
			"byteLength":11352,
			"byteOffset":368736,
			"target":34962
		},
		{
			"buffer":0,
			"byteLength":7568,
			"byteOffset":380088,
			"target":34962
		},
		{
			"buffer":0,
			"byteLength":2928,
			"byteOffset":387656,
			"target":34963
		},
		{
			"buffer":0,
			"byteLength":13824,
			"byteOffset":390584,
			"target":34962
		},
		{
			"buffer":0,
			"byteLength":13824,
			"byteOffset":404408,
			"target":34962
		},
		{
			"buffer":0,
			"byteLength":9216,
			"byteOffset":418232,
			"target":34962
		},
		{
			"buffer":0,
			"byteLength":10896,
			"byteOffset":427448,
			"target":34962
		},
		{
			"buffer":0,
			"byteLength":10896,
			"byteOffset":438344,
			"target":34962
		},
		{
			"buffer":0,
			"byteLength":7264,
			"byteOffset":449240,
			"target":34962
		},
		{
			"buffer":0,
			"byteLength":3516,
			"byteOffset":456504,
			"target":34963
		},
		{
			"buffer":0,
			"byteLength":21336,
			"byteOffset":460020,
			"target":34962
		},
		{
			"buffer":0,
			"byteLength":21336,
			"byteOffset":481356,
			"target":34962
		},
		{
			"buffer":0,
			"byteLength":14224,
			"byteOffset":502692,
			"target":34962
		},
		{
			"buffer":0,
			"byteLength":5424,
			"byteOffset":516916,
			"target":34963
		},
		{
			"buffer":0,
			"byteLength":21720,
			"byteOffset":522340,
			"target":34962
		},
		{
			"buffer":0,
			"byteLength":21720,
			"byteOffset":544060,
			"target":34962
		},
		{
			"buffer":0,
			"byteLength":14480,
			"byteOffset":565780,
			"target":34962
		},
		{
			"buffer":0,
			"byteLength":5568,
			"byteOffset":580260,
			"target":34963
		}
	],
	"buffers":[
		{
			"byteLength":585828,
			"uri":"cabinet.bin"
		}
	]
}
