{
	"asset":{
		"generator":"Khronos glTF Blender I/O v4.5.48",
		"version":"2.0"
	},
	"scene":0,
	"scenes":[
		{
			"name":"Scene",
			"nodes":[
				0,
				1,
				2,
				3,
				4,
				5,
				6,
				7
			]
		}
	],
	"nodes":[
		{
			"mesh":0,
			"name":"couch_pillow_6",
			"rotation":[
				-0.5,
				0.5,
				-0.5,
				0.5000000596046448
			],
			"scale":[
				0.20142576098442078,
				0.5281482338905334,
				0.6962209343910217
			],
			"translation":[
				1.3867205381393433,
				1.5232362747192383,
				-0.3351094722747803
			]
		},
		{
			"mesh":1,
			"name":"couch_pillow_5",
			"rotation":[
				-0.5,
				0.5,
				-0.5,
				0.5000000596046448
			],
			"scale":[
				0.20142576098442078,
				0.5281482338905334,
				0.6962209343910217
			],
			"translation":[
				-0.0063466876745224,
				1.5232362747192383,
				-0.3351093828678131
			]
		},
		{
			"mesh":2,
			"name":"couch_pillow_4",
			"rotation":[
				-0.5,
				0.5,
				-0.5,
				0.5000000596046448
			],
			"scale":[
				0.20142576098442078,
				0.5281482338905334,
				0.6962209343910217
			],
			"translation":[
				-1.399764060974121,
				1.5232362747192383,
				-0.3351093530654907
			]
		},
		{
			"mesh":3,
			"name":"couch_pillow_3",
			"rotation":[
				-0.5,
				0.5,
				-0.5,
				0.5000000596046448
			],
			"scale":[
				0.20142576098442078,
				0.5281482338905334,
				0.6962209343910217
			],
			"translation":[
				1.3890382051467896,
				0.8638874292373657,
				0.2502877712249756
			]
		},
		{
			"mesh":4,
			"name":"couch_pillow_2",
			"rotation":[
				-0.5,
				0.5,
				-0.5,
				0.5000000596046448
			],
			"scale":[
				0.20142576098442078,
				0.5281482338905334,
				0.6962209343910217
			],
			"translation":[
				-0.0063466876745224,
				0.863887369632721,
				0.25028786063194275
			]
		},
		{
			"mesh":5,
			"name":"couch_pillow_1",
			"rotation":[
				-0.5,
				0.5,
				-0.5,
				0.5000000596046448
			],
			"scale":[
				0.20142576098442078,
				0.5281482338905334,
				0.6962209343910217
			],
			"translation":[
				-1.4013667106628418,
				0.863887369632721,
				0.25028789043426514
			]
		},
		{
			"mesh":6,
			"name":"couch",
			"rotation":[
				0,
				0.7071068286895752,
				0,
				0.7071068286895752
			],
			"scale":[
				0.11892379820346832,
				0.11892379820346832,
				0.11892379820346832
			],
			"translation":[
				0.0011695772409439087,
				0.5852217078208923,
				0.1790848672389984
			]
		},
		{
			"mesh":7,
			"name":"couch_legs",
			"rotation":[
				0,
				0.7071068286895752,
				0,
				0.7071068286895752
			],
			"scale":[
				0.11892379820346832,
				0.11892379820346832,
				0.11892379820346832
			],
			"translation":[
				-0.001405468676239252,
				0.11143001914024353,
				0.1577584445476532
			]
		}
	],
	"meshes":[
		{
			"name":"Cube.001",
			"primitives":[
				{
					"attributes":{
						"POSITION":0,
						"NORMAL":1,
						"TEXCOORD_0":2
					},
					"indices":3
				}
			]
		},
		{
			"name":"Cube.002",
			"primitives":[
				{
					"attributes":{
						"POSITION":4,
						"NORMAL":5,
						"TEXCOORD_0":6
					},
					"indices":3
				}
			]
		},
		{
			"name":"Cube.003",
			"primitives":[
				{
					"attributes":{
						"POSITION":7,
						"NORMAL":8,
						"TEXCOORD_0":9
					},
					"indices":3
				}
			]
		},
		{
			"name":"Cube.004",
			"primitives":[
				{
					"attributes":{
						"POSITION":10,
						"NORMAL":11,
						"TEXCOORD_0":12
					},
					"indices":13
				}
			]
		},
		{
			"name":"Cube.005",
			"primitives":[
				{
					"attributes":{
						"POSITION":14,
						"NORMAL":15,
						"TEXCOORD_0":16
					},
					"indices":17
				}
			]
		},
		{
			"name":"Cube.006",
			"primitives":[
				{
					"attributes":{
						"POSITION":18,
						"NORMAL":19,
						"TEXCOORD_0":20
					},
					"indices":17
				}
			]
		},
		{
			"name":"Cylinder.003",
			"primitives":[
				{
					"attributes":{
						"POSITION":21,
						"NORMAL":22,
						"TEXCOORD_0":23
					},
					"indices":24
				}
			]
		},
		{
			"name":"Cylinder.004",
			"primitives":[
				{
					"attributes":{
						"POSITION":25,
						"NORMAL":26,
						"TEXCOORD_0":27
					},
					"indices":28
				}
			]
		}
	],
	"accessors":[
		{
			"bufferView":0,
			"componentType":5126,
			"count":864,
			"max":[
				2.6371164321899414,
				0.4862843155860901,
				0.9999998807907104
			],
			"min":[
				-2.637117862701416,
				-0.48628416657447815,
				-1.0000001192092896
			],
			"type":"VEC3"
		},
		{
			"bufferView":1,
			"componentType":5126,
			"count":864,
			"type":"VEC3"
		},
		{
			"bufferView":2,
			"componentType":5126,
			"count":864,
			"type":"VEC2"
		},
		{
			"bufferView":3,
			"componentType":5123,
			"count":1284,
			"type":"SCALAR"
		},
		{
			"bufferView":4,
			"componentType":5126,
			"count":864,
			"max":[
				2.6371164321899414,
				0.4862843155860901,
				1.000000238418579
			],
			"min":[
				-2.637117862701416,
				-0.48628416657447815,
				-0.9999997615814209
			],
			"type":"VEC3"
		},
		{
			"bufferView":5,
			"componentType":5126,
			"count":864,
			"type":"VEC3"
		},
		{
			"bufferView":6,
			"componentType":5126,
			"count":864,
			"type":"VEC2"
		},
		{
			"bufferView":7,
			"componentType":5126,
			"count":864,
			"max":[
				2.6371164321899414,
				0.4862843155860901,
				1.0000004768371582
			],
			"min":[
				-2.637117862701416,
				-0.48628416657447815,
				-0.9999995231628418
			],
			"type":"VEC3"
		},
		{
			"bufferView":8,
			"componentType":5126,
			"count":864,
			"type":"VEC3"
		},
		{
			"bufferView":9,
			"componentType":5126,
			"count":864,
			"type":"VEC2"
		},
		{
			"bufferView":10,
			"componentType":5126,
			"count":864,
			"max":[
				1.0000001192092896,
				1.5500622987747192,
				0.9999999403953552
			],
			"min":[
				-1,
				-1.5500625371932983,
				-1
			],
			"type":"VEC3"
		},
		{
			"bufferView":11,
			"componentType":5126,
			"count":864,
			"type":"VEC3"
		},
		{
			"bufferView":12,
			"componentType":5126,
			"count":864,
			"type":"VEC2"
		},
		{
			"bufferView":13,
			"componentType":5123,
			"count":1284,
			"type":"SCALAR"
		},
		{
			"bufferView":14,
			"componentType":5126,
			"count":864,
			"max":[
				1.000000238418579,
				1.5500622987747192,
				1.000000238418579
			],
			"min":[
				-0.9999998807907104,
				-1.5500625371932983,
				-0.9999997615814209
			],
			"type":"VEC3"
		},
		{
			"bufferView":15,
			"componentType":5126,
			"count":864,
			"type":"VEC3"
		},
		{
			"bufferView":16,
			"componentType":5126,
			"count":864,
			"type":"VEC2"
		},
		{
			"bufferView":17,
			"componentType":5123,
			"count":1284,
			"type":"SCALAR"
		},
		{
			"bufferView":18,
			"componentType":5126,
			"count":864,
			"max":[
				1.000000238418579,
				1.5500622987747192,
				1.000002384185791
			],
			"min":[
				-0.9999998807907104,
				-1.5500625371932983,
				-0.999997615814209
			],
			"type":"VEC3"
		},
		{
			"bufferView":19,
			"componentType":5126,
			"count":864,
			"type":"VEC3"
		},
		{
			"bufferView":20,
			"componentType":5126,
			"count":864,
			"type":"VEC2"
		},
		{
			"bufferView":21,
			"componentType":5126,
			"count":1728,
			"max":[
				7.803830623626709,
				11.177926063537598,
				21.788198471069336
			],
			"min":[
				-7.5476789474487305,
				-2.7298383712768555,
				-21.736820220947266
			],
			"type":"VEC3"
		},
		{
			"bufferView":22,
			"componentType":5126,
			"count":1728,
			"type":"VEC3"
		},
		{
			"bufferView":23,
			"componentType":5126,
			"count":1728,
			"type":"VEC2"
		},
		{
			"bufferView":24,
			"componentType":5123,
			"count":2580,
			"type":"SCALAR"
		},
		{
			"bufferView":25,
			"componentType":5126,
			"count":1536,
			"max":[
				7.008851051330566,
				1.5748357772827148,
				21.312040328979492
			],
			"min":[
				-7.008849620819092,
				-1.5748066902160645,
				-21.31203842163086
			],
			"type":"VEC3"
		},
		{
			"bufferView":26,
			"componentType":5126,
			"count":1536,
			"type":"VEC3"
		},
		{
			"bufferView":27,
			"componentType":5126,
			"count":1536,
			"type":"VEC2"
		},
		{
			"bufferView":28,
			"componentType":5123,
			"count":3024,
			"type":"SCALAR"
		}
	],
	"bufferViews":[
		{
			"buffer":0,
			"byteLength":10368,
			"byteOffset":0,
			"target":34962
		},
		{
			"buffer":0,
			"byteLength":10368,
			"byteOffset":10368,
			"target":34962
		},
		{
			"buffer":0,
			"byteLength":6912,
			"byteOffset":20736,
			"target":34962
		},
		{
			"buffer":0,
			"byteLength":2568,
			"byteOffset":27648,
			"target":34963
		},
		{
			"buffer":0,
			"byteLength":10368,
			"byteOffset":30216,
			"target":34962
		},
		{
			"buffer":0,
			"byteLength":10368,
			"byteOffset":40584,
			"target":34962
		},
		{
			"buffer":0,
			"byteLength":6912,
			"byteOffset":50952,
			"target":34962
		},
		{
			"buffer":0,
			"byteLength":10368,
			"byteOffset":57864,
			"target":34962
		},
		{
			"buffer":0,
			"byteLength":10368,
			"byteOffset":68232,
			"target":34962
		},
		{
			"buffer":0,
			"byteLength":6912,
			"byteOffset":78600,
			"target":34962
		},
		{
			"buffer":0,
			"byteLength":10368,
			"byteOffset":85512,
			"target":34962
		},
		{
			"buffer":0,
			"byteLength":10368,
			"byteOffset":95880,
			"target":34962
		},
		{
			"buffer":0,
			"byteLength":6912,
			"byteOffset":106248,
			"target":34962
		},
		{
			"buffer":0,
			"byteLength":2568,
			"byteOffset":113160,
			"target":34963
		},
		{
			"buffer":0,
			"byteLength":10368,
			"byteOffset":115728,
			"target":34962
		},
		{
			"buffer":0,
			"byteLength":10368,
			"byteOffset":126096,
			"target":34962
		},
		{
			"buffer":0,
			"byteLength":6912,
			"byteOffset":136464,
			"target":34962
		},
		{
			"buffer":0,
			"byteLength":2568,
			"byteOffset":143376,
			"target":34963
		},
		{
			"buffer":0,
			"byteLength":10368,
			"byteOffset":145944,
			"target":34962
		},
		{
			"buffer":0,
			"byteLength":10368,
			"byteOffset":156312,
			"target":34962
		},
		{
			"buffer":0,
			"byteLength":6912,
			"byteOffset":166680,
			"target":34962
		},
		{
			"buffer":0,
			"byteLength":20736,
			"byteOffset":173592,
			"target":34962
		},
		{
			"buffer":0,
			"byteLength":20736,
			"byteOffset":194328,
			"target":34962
		},
		{
			"buffer":0,
			"byteLength":13824,
			"byteOffset":215064,
			"target":34962
		},
		{
			"buffer":0,
			"byteLength":5160,
			"byteOffset":228888,
			"target":34963
		},
		{
			"buffer":0,
			"byteLength":18432,
			"byteOffset":234048,
			"target":34962
		},
		{
			"buffer":0,
			"byteLength":18432,
			"byteOffset":252480,
			"target":34962
		},
		{
			"buffer":0,
			"byteLength":12288,
			"byteOffset":270912,
			"target":34962
		},
		{
			"buffer":0,
			"byteLength":6048,
			"byteOffset":283200,
			"target":34963
		}
	],
	"buffers":[
		{
			"byteLength":289248,
			"uri":"couch.bin"
		}
	]
}
