{
	"asset":{
		"generator":"Khronos glTF Blender I/O v4.5.48",
		"version":"2.0"
	},
	"scene":0,
	"scenes":[
		{
			"name":"Scene",
			"nodes":[
				0
			]
		}
	],
	"nodes":[
		{
			"mesh":0,
			"name":"living_room_chair",
			"rotation":[
				0,
				-1,
				0,
				1.6292068494294654e-07
			],
			"scale":[
				0.11892379820346832,
				0.11892379820346832,
				0.11892379820346832
			],
			"translation":[
				0,
				0.9952726364135742,
				0
			]
		}
	],
	"meshes":[
		{
			"name":"living_room_chair",
			"primitives":[
				{
					"attributes":{
						"POSITION":0,
						"NORMAL":1,
						"TEXCOORD_0":2
					},
					"indices":3
				},
				{
					"attributes":{
						"POSITION":4,
						"NORMAL":5,
						"TEXCOORD_0":6
					},
					"indices":7
				}
			]
		}
	],
	"accessors":[
		{
			"bufferView":0,
			"componentType":5126,
			"count":840,
			"max":[
				7.675754547119141,
				8.368363380432129,
				10.409820556640625
			],
			"min":[
				-7.673122406005859,
				-5.539401054382324,
				-10.409819602966309
			],
			"type":"VEC3"
		},
		{
			"bufferView":1,
			"componentType":5126,
			"count":840,
			"type":"VEC3"
		},
		{
			"bufferView":2,
			"componentType":5126,
			"count":840,
			"type":"VEC2"
		},
		{
			"bufferView":3,
			"componentType":5123,
			"count":3324,
			"type":"SCALAR"
		},
		{
			"bufferView":4,
			"componentType":5126,
			"count":800,
			"max":[
				7.329206466674805,
				-5.21872091293335,
				10.171697616577148
			],
			"min":[
				-6.688495635986328,
				-8.368362426757812,
				-10.216987609863281
			],
			"type":"VEC3"
		},
		{
			"bufferView":5,
			"componentType":5126,
			"count":800,
			"type":"VEC3"
		},
		{
			"bufferView":6,
			"componentType":5126,
			"count":800,
			"type":"VEC2"
		},
		{
			"bufferView":7,
			"componentType":5123,
			"count":2280,
			"type":"SCALAR"
		}
	],
	"bufferViews":[
		{
			"buffer":0,
			"byteLength":10080,
			"byteOffset":0,
			"target":34962
		},
		{
			"buffer":0,
			"byteLength":10080,
			"byteOffset":10080,
			"target":34962
		},
		{
			"buffer":0,
			"byteLength":6720,
			"byteOffset":20160,
			"target":34962
		},
		{
			"buffer":0,
			"byteLength":6648,
			"byteOffset":26880,
			"target":34963
		},
		{
			"buffer":0,
			"byteLength":9600,
			"byteOffset":33528,
			"target":34962
		},
		{
			"buffer":0,
			"byteLength":9600,
			"byteOffset":43128,
			"target":34962
		},
		{
			"buffer":0,
			"byteLength":6400,
			"byteOffset":52728,
			"target":34962
		},
		{
			"buffer":0,
			"byteLength":4560,
			"byteOffset":59128,
			"target":34963
		}
	],
	"buffers":[
		{
			"byteLength":63688,
			"uri":"living_room_chair.bin"
		}
	]
}
