{
	"asset":{
		"generator":"Khronos glTF Blender I/O v4.5.48",
		"version":"2.0"
	},
	"scene":0,
	"scenes":[
		{
			"name":"Scene",
			"nodes":[
				0
			]
		}
	],
	"nodes":[
		{
			"mesh":0,
			"name":"living_room_stand",
			"scale":[
				0.7280336618423462,
				0.7280336618423462,
				0.7280336618423462
			],
			"translation":[
				0,
				0.7285533547401428,
				0
			]
		}
	],
	"meshes":[
		{
			"name":"living_room_stand",
			"primitives":[
				{
					"attributes":{
						"POSITION":0,
						"NORMAL":1,
						"TEXCOORD_0":2
					},
					"indices":3
				},
				{
					"attributes":{
						"POSITION":4,
						"NORMAL":5,
						"TEXCOORD_0":6
					},
					"indices":7
				}
			]
		}
	],
	"accessors":[
		{
			"bufferView":0,
			"componentType":5126,
			"count":554,
			"max":[
				1.0000009536743164,
				0.9999998807907104,
				0.999999463558197
			],
			"min":[
				-0.9999989867210388,
				-1,
				-1.0000004768371582
			],
			"type":"VEC3"
		},
		{
			"bufferView":1,
			"componentType":5126,
			"count":554,
			"type":"VEC3"
		},
		{
			"bufferView":2,
			"componentType":5126,
			"count":554,
			"type":"VEC2"
		},
		{
			"bufferView":3,
			"componentType":5123,
			"count":1176,
			"type":"SCALAR"
		},
		{
			"bufferView":4,
			"componentType":5126,
			"count":1452,
			"max":[
				1.0000009536743164,
				0.9336709380149841,
				0.999999463558197
			],
			"min":[
				-0.9999989867210388,
				-0.6817994713783264,
				-1.0000004768371582
			],
			"type":"VEC3"
		},
		{
			"bufferView":5,
			"componentType":5126,
			"count":1452,
			"type":"VEC3"
		},
		{
			"bufferView":6,
			"componentType":5126,
			"count":1452,
			"type":"VEC2"
		},
		{
			"bufferView":7,
			"componentType":5123,
			"count":2520,
			"type":"SCALAR"
		}
	],
	"bufferViews":[
		{
			"buffer":0,
			"byteLength":6648,
			"byteOffset":0,
			"target":34962
		},
		{
			"buffer":0,
			"byteLength":6648,
			"byteOffset":6648,
			"target":34962
		},
		{
			"buffer":0,
			"byteLength":4432,
			"byteOffset":13296,
			"target":34962
		},
		{
			"buffer":0,
			"byteLength":2352,
			"byteOffset":17728,
			"target":34963
		},
		{
			"buffer":0,
			"byteLength":17424,
			"byteOffset":20080,
			"target":34962
		},
		{
			"buffer":0,
			"byteLength":17424,
			"byteOffset":37504,
			"target":34962
		},
		{
			"buffer":0,
			"byteLength":11616,
			"byteOffset":54928,
			"target":34962
		},
		{
			"buffer":0,
			"byteLength":5040,
			"byteOffset":66544,
			"target":34963
		}
	],
	"buffers":[
		{
			"byteLength":71584,
			"uri":"living_room_stand.bin"
		}
	]
}
