{
	"asset":{
		"generator":"Khronos glTF Blender I/O v4.5.48",
		"version":"2.0"
	},
	"scene":0,
	"scenes":[
		{
			"name":"Scene",
			"nodes":[
				0
			]
		}
	],
	"nodes":[
		{
			"mesh":0,
			"name":"night_stand",
			"rotation":[
				0,
				0.7071068286895752,
				0,
				0.7071068286895752
			],
			"scale":[
				0.7652732133865356,
				0.8787159323692322,
				0.7652732133865356
			],
			"translation":[
				0,
				0.5686180591583252,
				0
			]
		}
	],
	"meshes":[
		{
			"name":"night_stand",
			"primitives":[
				{
					"attributes":{
						"POSITION":0,
						"NORMAL":1,
						"TEXCOORD_0":2
					},
					"indices":3
				},
				{
					"attributes":{
						"POSITION":4,
						"NORMAL":5,
						"TEXCOORD_0":6
					},
					"indices":7
				},
				{
					"attributes":{
						"POSITION":8,
						"NORMAL":9,
						"TEXCOORD_0":10
					},
					"indices":11
				}
			]
		}
	],
	"accessors":[
		{
			"bufferView":0,
			"componentType":5126,
			"count":62,
			"max":[
				1.0746794939041138,
				1.3533034324645996,
				0.9999997615814209
			],
			"min":[
				-0.9253203272819519,
				-0.6466965079307556,
				-1
			],
			"type":"VEC3"
		},
		{
			"bufferView":1,
			"componentType":5126,
			"count":62,
			"type":"VEC3"
		},
		{
			"bufferView":2,
			"componentType":5126,
			"count":62,
			"type":"VEC2"
		},
		{
			"bufferView":3,
			"componentType":5123,
			"count":144,
			"type":"SCALAR"
		},
		{
			"bufferView":4,
			"componentType":5126,
			"count":42,
			"max":[
				0.8395584225654602,
				1.2775077819824219,
				0.8618518710136414
			],
			"min":[
				-0.9253203272819519,
				-0.2482253909111023,
				-0.861851155757904
			],
			"type":"VEC3"
		},
		{
			"bufferView":5,
			"componentType":5126,
			"count":42,
			"type":"VEC3"
		},
		{
			"bufferView":6,
			"componentType":5126,
			"count":42,
			"type":"VEC2"
		},
		{
			"bufferView":7,
			"componentType":5123,
			"count":66,
			"type":"SCALAR"
		},
		{
			"bufferView":8,
			"componentType":5126,
			"count":46,
			"max":[
				1.0746794939041138,
				-0.37135136127471924,
				0.9999997615814209
			],
			"min":[
				-0.9253203272819519,
				-0.6466965079307556,
				-1
			],
			"type":"VEC3"
		},
		{
			"bufferView":9,
			"componentType":5126,
			"count":46,
			"type":"VEC3"
		},
		{
			"bufferView":10,
			"componentType":5126,
			"count":46,
			"type":"VEC2"
		},
		{
			"bufferView":11,
			"componentType":5123,
			"count":90,
			"type":"SCALAR"
		}
	],
	"bufferViews":[
		{
			"buffer":0,
			"byteLength":744,
			"byteOffset":0,
			"target":34962
		},
		{
			"buffer":0,
			"byteLength":744,
			"byteOffset":744,
			"target":34962
		},
		{
			"buffer":0,
			"byteLength":496,
			"byteOffset":1488,
			"target":34962
		},
		{
			"buffer":0,
			"byteLength":288,
			"byteOffset":1984,
			"target":34963
		},
		{
			"buffer":0,
			"byteLength":504,
			"byteOffset":2272,
			"target":34962
		},
		{
			"buffer":0,
			"byteLength":504,
			"byteOffset":2776,
			"target":34962
		},
		{
			"buffer":0,
			"byteLength":336,
			"byteOffset":3280,
			"target":34962
		},
		{
			"buffer":0,
			"byteLength":132,
			"byteOffset":3616,
			"target":34963
		},
		{
			"buffer":0,
			"byteLength":552,
			"byteOffset":3748,
			"target":34962
		},
		{
			"buffer":0,
			"byteLength":552,
			"byteOffset":4300,
			"target":34962
		},
		{
			"buffer":0,
			"byteLength":368,
			"byteOffset":4852,
			"target":34962
		},
		{
			"buffer":0,
			"byteLength":180,
			"byteOffset":5220,
			"target":34963
		}
	],
	"buffers":[
		{
			"byteLength":5400,
			"uri":"night_stand.bin"
		}
	]
}
