{
	"asset":{
		"generator":"Khronos glTF Blender I/O v4.5.48",
		"version":"2.0"
	},
	"scene":0,
	"scenes":[
		{
			"name":"Scene",
			"nodes":[
				0,
				1,
				2,
				3,
				4,
				5,
				6,
				7,
				8,
				9
			]
		}
	],
	"nodes":[
		{
			"mesh":0,
			"name":"fridge_drawer_inside",
			"rotation":[
				0.5,
				-0.5,
				0.5,
				0.5
			],
			"scale":[
				2.579130172729492,
				0.7116607427597046,
				0.08814263343811035
			],
			"translation":[
				0.17687982320785522,
				1.5570803880691528,
				-0.5659131407737732
			]
		},
		{
			"mesh":1,
			"name":"fridge_door_left",
			"rotation":[
				0.5,
				-0.5,
				0.5,
				0.5
			],
			"scale":[
				0.39439529180526733,
				0.39439529180526733,
				0.39439523220062256
			],
			"translation":[
				1.3848509788513184,
				2.4170279502868652,
				-1.0188499689102173
			]
		},
		{
			"mesh":2,
			"name":"fridge_button_04",
			"rotation":[
				-0.6550583839416504,
				-0.5579314827919006,
				0.3174876868724823,
				0.39851298928260803
			],
			"scale":[
				0.055584877729415894,
				0.05253709480166435,
				0.055584874004125595
			],
			"translation":[
				0.5081936120986938,
				3.0865936279296875,
				-0.8514795303344727
			]
		},
		{
			"mesh":3,
			"name":"fridge_button_03",
			"rotation":[
				0.3208298683166504,
				-0.3417094945907593,
				-0.6001306176185608,
				0.6481867432594299
			],
			"scale":[
				0.04509028047323227,
				0.04509028047323227,
				0.04509028047323227
			],
			"translation":[
				1.1368330717086792,
				3.3534953594207764,
				-0.8417873382568359
			]
		},
		{
			"mesh":4,
			"name":"fridge_button_02",
			"rotation":[
				0.33609363436698914,
				-0.35848864912986755,
				-0.5884283781051636,
				0.6420895457267761
			],
			"scale":[
				0.07522787898778915,
				0.07522787153720856,
				0.07522788643836975
			],
			"translation":[
				1.1192365884780884,
				3.2182810306549072,
				-0.8389072418212891
			]
		},
		{
			"mesh":5,
			"name":"fridge_button_01",
			"rotation":[
				0.3395101726055145,
				-0.3530838191509247,
				-0.5872244238853455,
				0.6443851590156555
			],
			"scale":[
				0.11857326328754425,
				0.11857327818870544,
				0.11857329308986664
			],
			"translation":[
				1.090614914894104,
				3.0688416957855225,
				-0.818267822265625
			]
		},
		{
			"mesh":6,
			"name":"fridge",
			"rotation":[
				0,
				-0.7071068286895752,
				0,
				0.7071068286895752
			],
			"scale":[
				1,
				1.9344843626022339,
				1.2263846397399902
			],
			"translation":[
				0,
				2.0573058128356934,
				0
			]
		},
		{
			"mesh":7,
			"name":"fridge_drawer_bottom",
			"rotation":[
				0,
				-0.7071066498756409,
				0,
				0.70710688829422
			],
			"scale":[
				0.39439529180526733,
				0.39439523220062256,
				0.39439529180526733
			],
			"translation":[
				0.18113207817077637,
				0.8084167838096619,
				-0.9185857772827148
			]
		},
		{
			"mesh":8,
			"name":"puzzle",
			"rotation":[
				1,
				0,
				0,
				2.654314790152216e-14
			],
			"scale":[
				0.42710962891578674,
				0.362798273563385,
				0.22530622780323029
			],
			"translation":[
				0.7800397276878357,
				3.400359869003296,
				-0.6811133623123169
			]
		},
		{
			"mesh":9,
			"name":"fridge_door_right",
			"rotation":[
				-0.5,
				0.5,
				0.5,
				0.5
			],
			"scale":[
				-0.39439529180526733,
				-0.39439529180526733,
				-0.39439523220062256
			],
			"translation":[
				-1.0478488206863403,
				2.4170279502868652,
				-1.0188499689102173
			]
		}
	],
	"meshes":[
		{
			"name":"Cube.128",
			"primitives":[
				{
					"attributes":{
						"POSITION":0,
						"NORMAL":1,
						"TEXCOORD_0":2
					},
					"indices":3
				},
				{
					"attributes":{
						"POSITION":4,
						"NORMAL":5,
						"TEXCOORD_0":6
					},
					"indices":7
				}
			]
		},
		{
			"name":"Cube.129",
			"primitives":[
				{
					"attributes":{
						"POSITION":8,
						"NORMAL":9,
						"TEXCOORD_0":10
					},
					"indices":11
				},
				{
					"attributes":{
						"POSITION":12,
						"NORMAL":13,
						"TEXCOORD_0":14
					},
					"indices":15
				}
			]
		},
		{
			"name":"Cylinder.041",
			"primitives":[
				{
					"attributes":{
						"POSITION":16,
						"NORMAL":17,
						"TEXCOORD_0":18
					},
					"indices":19
				},
				{
					"attributes":{
						"POSITION":20,
						"NORMAL":21,
						"TEXCOORD_0":22
					},
					"indices":23
				},
				{
					"attributes":{
						"POSITION":24,
						"NORMAL":25,
						"TEXCOORD_0":26
					},
					"indices":27
				}
			]
		},
		{
			"name":"Cylinder.029",
			"primitives":[
				{
					"attributes":{
						"POSITION":28,
						"NORMAL":29,
						"TEXCOORD_0":30
					},
					"indices":31
				}
			]
		},
		{
			"name":"Cylinder.030",
			"primitives":[
				{
					"attributes":{
						"POSITION":32,
						"NORMAL":33,
						"TEXCOORD_0":34
					},
					"indices":31
				}
			]
		},
		{
			"name":"Cylinder.031",
			"primitives":[
				{
					"attributes":{
						"POSITION":35,
						"NORMAL":36,
						"TEXCOORD_0":37
					},
					"indices":31
				}
			]
		},
		{
			"name":"Cube.132",
			"primitives":[
				{
					"attributes":{
						"POSITION":38,
						"NORMAL":39,
						"TEXCOORD_0":40
					},
					"indices":41
				},
				{
					"attributes":{
						"POSITION":42,
						"NORMAL":43,
						"TEXCOORD_0":44
					},
					"indices":45
				}
			]
		},
		{
			"name":"Cube.131",
			"primitives":[
				{
					"attributes":{
						"POSITION":46,
						"NORMAL":47,
						"TEXCOORD_0":48
					},
					"indices":49
				},
				{
					"attributes":{
						"POSITION":50,
						"NORMAL":51,
						"TEXCOORD_0":52
					},
					"indices":53
				}
			]
		},
		{
			"name":"Cube.133",
			"primitives":[
				{
					"attributes":{
						"POSITION":54,
						"NORMAL":55,
						"TEXCOORD_0":56
					},
					"indices":57
				},
				{
					"attributes":{
						"POSITION":58,
						"NORMAL":59,
						"TEXCOORD_0":60
					},
					"indices":61
				}
			]
		},
		{
			"name":"Cube.007",
			"primitives":[
				{
					"attributes":{
						"POSITION":62,
						"NORMAL":63,
						"TEXCOORD_0":64
					},
					"indices":11
				},
				{
					"attributes":{
						"POSITION":65,
						"NORMAL":66,
						"TEXCOORD_0":67
					},
					"indices":15
				}
			]
		}
	],
	"accessors":[
		{
			"bufferView":0,
			"componentType":5126,
			"count":1344,
			"max":[
				0.3803154528141022,
				1.5368643999099731,
				4.358353137969971
			],
			"min":[
				-0.10699695348739624,
				-1.5369654893875122,
				-3.4473955631256104
			],
			"type":"VEC3"
		},
		{
			"bufferView":1,
			"componentType":5126,
			"count":1344,
			"type":"VEC3"
		},
		{
			"bufferView":2,
			"componentType":5126,
			"count":1344,
			"type":"VEC2"
		},
		{
			"bufferView":3,
			"componentType":5123,
			"count":2190,
			"type":"SCALAR"
		},
		{
			"bufferView":4,
			"componentType":5126,
			"count":156,
			"max":[
				-0.08163730800151825,
				1.447537899017334,
				3.831169366836548
			],
			"min":[
				-0.0821194127202034,
				-1.4473305940628052,
				-3.109574794769287
			],
			"type":"VEC3"
		},
		{
			"bufferView":5,
			"componentType":5126,
			"count":156,
			"type":"VEC3"
		},
		{
			"bufferView":6,
			"componentType":5126,
			"count":156,
			"type":"VEC2"
		},
		{
			"bufferView":7,
			"componentType":5123,
			"count":300,
			"type":"SCALAR"
		},
		{
			"bufferView":8,
			"componentType":5126,
			"count":384,
			"max":[
				0.22346121072769165,
				3.0738296508789062,
				3.292327880859375
			],
			"min":[
				-0.22645524144172668,
				-4.76837158203125e-07,
				-3.7079710960388184
			],
			"type":"VEC3"
		},
		{
			"bufferView":9,
			"componentType":5126,
			"count":384,
			"type":"VEC3"
		},
		{
			"bufferView":10,
			"componentType":5126,
			"count":384,
			"type":"VEC2"
		},
		{
			"bufferView":11,
			"componentType":5123,
			"count":564,
			"type":"SCALAR"
		},
		{
			"bufferView":12,
			"componentType":5126,
			"count":828,
			"max":[
				-0.2057027816772461,
				2.6850616931915283,
				2.5128679275512695
			],
			"min":[
				-0.5270943641662598,
				2.271116256713867,
				-2.1331918239593506
			],
			"type":"VEC3"
		},
		{
			"bufferView":13,
			"componentType":5126,
			"count":828,
			"type":"VEC3"
		},
		{
			"bufferView":14,
			"componentType":5126,
			"count":828,
			"type":"VEC2"
		},
		{
			"bufferView":15,
			"componentType":5123,
			"count":3948,
			"type":"SCALAR"
		},
		{
			"bufferView":16,
			"componentType":5126,
			"count":1378,
			"max":[
				1.0066757202148438,
				0.21121013164520264,
				0.999635636806488
			],
			"min":[
				-0.993324339389801,
				-0.5921318531036377,
				-1.0003643035888672
			],
			"type":"VEC3"
		},
		{
			"bufferView":17,
			"componentType":5126,
			"count":1378,
			"type":"VEC3"
		},
		{
			"bufferView":18,
			"componentType":5126,
			"count":1378,
			"type":"VEC2"
		},
		{
			"bufferView":19,
			"componentType":5123,
			"count":2214,
			"type":"SCALAR"
		},
		{
			"bufferView":20,
			"componentType":5126,
			"count":400,
			"max":[
				0.38926440477371216,
				0.21121013164520264,
				0.40016970038414
			],
			"min":[
				-0.41181644797325134,
				0.11370342969894409,
				-0.40091097354888916
			],
			"type":"VEC3"
		},
		{
			"bufferView":21,
			"componentType":5126,
			"count":400,
			"type":"VEC3"
		},
		{
			"bufferView":22,
			"componentType":5126,
			"count":400,
			"type":"VEC2"
		},
		{
			"bufferView":23,
			"componentType":5123,
			"count":615,
			"type":"SCALAR"
		},
		{
			"bufferView":24,
			"componentType":5126,
			"count":301,
			"max":[
				1.0066757202148438,
				0.18992561101913452,
				0.999635636806488
			],
			"min":[
				-0.993324339389801,
				-0.5921318531036377,
				-1.0003643035888672
			],
			"type":"VEC3"
		},
		{
			"bufferView":25,
			"componentType":5126,
			"count":301,
			"type":"VEC3"
		},
		{
			"bufferView":26,
			"componentType":5126,
			"count":301,
			"type":"VEC2"
		},
		{
			"bufferView":27,
			"componentType":5123,
			"count":507,
			"type":"SCALAR"
		},
		{
			"bufferView":28,
			"componentType":5126,
			"count":384,
			"max":[
				0.4885557293891907,
				0.4885593056678772,
				0.48856136202812195
			],
			"min":[
				-0.48856133222579956,
				-0.488559365272522,
				-0.4885556995868683
			],
			"type":"VEC3"
		},
		{
			"bufferView":29,
			"componentType":5126,
			"count":384,
			"type":"VEC3"
		},
		{
			"bufferView":30,
			"componentType":5126,
			"count":384,
			"type":"VEC2"
		},
		{
			"bufferView":31,
			"componentType":5123,
			"count":756,
			"type":"SCALAR"
		},
		{
			"bufferView":32,
			"componentType":5126,
			"count":384,
			"max":[
				0.4885557293891907,
				0.4885593056678772,
				0.48856136202812195
			],
			"min":[
				-0.48856133222579956,
				-0.488559365272522,
				-0.4885556995868683
			],
			"type":"VEC3"
		},
		{
			"bufferView":33,
			"componentType":5126,
			"count":384,
			"type":"VEC3"
		},
		{
			"bufferView":34,
			"componentType":5126,
			"count":384,
			"type":"VEC2"
		},
		{
			"bufferView":35,
			"componentType":5126,
			"count":384,
			"max":[
				0.4885557293891907,
				0.4885593056678772,
				0.48856136202812195
			],
			"min":[
				-0.48856133222579956,
				-0.488559365272522,
				-0.4885556995868683
			],
			"type":"VEC3"
		},
		{
			"bufferView":36,
			"componentType":5126,
			"count":384,
			"type":"VEC3"
		},
		{
			"bufferView":37,
			"componentType":5126,
			"count":384,
			"type":"VEC2"
		},
		{
			"bufferView":38,
			"componentType":5126,
			"count":713,
			"max":[
				1.0696734189987183,
				0.9363277554512024,
				0.8613165616989136
			],
			"min":[
				-0.930326521396637,
				-1.0636720657348633,
				-1.1386833190917969
			],
			"type":"VEC3"
		},
		{
			"bufferView":39,
			"componentType":5126,
			"count":713,
			"type":"VEC3"
		},
		{
			"bufferView":40,
			"componentType":5126,
			"count":713,
			"type":"VEC2"
		},
		{
			"bufferView":41,
			"componentType":5123,
			"count":1059,
			"type":"SCALAR"
		},
		{
			"bufferView":42,
			"componentType":5126,
			"count":1553,
			"max":[
				0.6178021430969238,
				0.8464711904525757,
				0.797691285610199
			],
			"min":[
				-0.9275510311126709,
				-1.0165475606918335,
				-1.064811110496521
			],
			"type":"VEC3"
		},
		{
			"bufferView":43,
			"componentType":5126,
			"count":1553,
			"type":"VEC3"
		},
		{
			"bufferView":44,
			"componentType":5126,
			"count":1553,
			"type":"VEC2"
		},
		{
			"bufferView":45,
			"componentType":5123,
			"count":2325,
			"type":"SCALAR"
		},
		{
			"bufferView":46,
			"componentType":5126,
			"count":800,
			"max":[
				4.63026237487793,
				0.7383593320846558,
				3.1613144874572754
			],
			"min":[
				-0.4401634633541107,
				-2.0263845920562744,
				-3.090087652206421
			],
			"type":"VEC3"
		},
		{
			"bufferView":47,
			"componentType":5126,
			"count":800,
			"type":"VEC3"
		},
		{
			"bufferView":48,
			"componentType":5126,
			"count":800,
			"type":"VEC2"
		},
		{
			"bufferView":49,
			"componentType":5123,
			"count":1206,
			"type":"SCALAR"
		},
		{
			"bufferView":50,
			"componentType":5126,
			"count":1060,
			"max":[
				4.377957344055176,
				0.6609373092651367,
				2.5984225273132324
			],
			"min":[
				-0.7577605247497559,
				-1.093804121017456,
				-2.542375326156616
			],
			"type":"VEC3"
		},
		{
			"bufferView":51,
			"componentType":5126,
			"count":1060,
			"type":"VEC3"
		},
		{
			"bufferView":52,
			"componentType":5126,
			"count":1060,
			"type":"VEC2"
		},
		{
			"bufferView":53,
			"componentType":5123,
			"count":4302,
			"type":"SCALAR"
		},
		{
			"bufferView":54,
			"componentType":5126,
			"count":2208,
			"max":[
				1.0012381076812744,
				1.5507408380508423,
				0.8905179500579834
			],
			"min":[
				-0.9987613558769226,
				-0.6771408319473267,
				-1.1483311653137207
			],
			"type":"VEC3"
		},
		{
			"bufferView":55,
			"componentType":5126,
			"count":2208,
			"type":"VEC3"
		},
		{
			"bufferView":56,
			"componentType":5126,
			"count":2208,
			"type":"VEC2"
		},
		{
			"bufferView":57,
			"componentType":5123,
			"count":4080,
			"type":"SCALAR"
		},
		{
			"bufferView":58,
			"componentType":5126,
			"count":4,
			"max":[
				0.3285839855670929,
				0.4872662425041199,
				0.8287674784660339
			],
			"min":[
				-0.42132970690727234,
				-0.052209705114364624,
				0.6735687851905823
			],
			"type":"VEC3"
		},
		{
			"bufferView":59,
			"componentType":5126,
			"count":4,
			"type":"VEC3"
		},
		{
			"bufferView":60,
			"componentType":5126,
			"count":4,
			"type":"VEC2"
		},
		{
			"bufferView":61,
			"componentType":5123,
			"count":6,
			"type":"SCALAR"
		},
		{
			"bufferView":62,
			"componentType":5126,
			"count":384,
			"max":[
				0.22346121072769165,
				3.0738296508789062,
				3.292327880859375
			],
			"min":[
				-0.22645524144172668,
				-4.76837158203125e-07,
				-3.7079710960388184
			],
			"type":"VEC3"
		},
		{
			"bufferView":63,
			"componentType":5126,
			"count":384,
			"type":"VEC3"
		},
		{
			"bufferView":64,
			"componentType":5126,
			"count":384,
			"type":"VEC2"
		},
		{
			"bufferView":65,
			"componentType":5126,
			"count":828,
			"max":[
				-0.2057027816772461,
				2.6850616931915283,
				2.5128679275512695
			],
			"min":[
				-0.5270943641662598,
				2.271116256713867,
				-2.1331918239593506
			],
			"type":"VEC3"
		},
		{
			"bufferView":66,
			"componentType":5126,
			"count":828,
			"type":"VEC3"
		},
		{
			"bufferView":67,
			"componentType":5126,
			"count":828,
			"type":"VEC2"
		}
	],
	"bufferViews":[
		{
			"buffer":0,
			"byteLength":16128,
			"byteOffset":0,
			"target":34962
		},
		{
			"buffer":0,
			"byteLength":16128,
			"byteOffset":16128,
			"target":34962
		},
		{
			"buffer":0,
			"byteLength":10752,
			"byteOffset":32256,
			"target":34962
		},
		{
			"buffer":0,
			"byteLength":4380,
			"byteOffset":43008,
			"target":34963
		},
		{
			"buffer":0,
			"byteLength":1872,
			"byteOffset":47388,
			"target":34962
		},
		{
			"buffer":0,
			"byteLength":1872,
			"byteOffset":49260,
			"target":34962
		},
		{
			"buffer":0,
			"byteLength":1248,
			"byteOffset":51132,
			"target":34962
		},
		{
			"buffer":0,
			"byteLength":600,
			"byteOffset":52380,
			"target":34963
		},
		{
			"buffer":0,
			"byteLength":4608,
			"byteOffset":52980,
			"target":34962
		},
		{
			"buffer":0,
			"byteLength":4608,
			"byteOffset":57588,
			"target":34962
		},
		{
			"buffer":0,
			"byteLength":3072,
			"byteOffset":62196,
			"target":34962
		},
		{
			"buffer":0,
			"byteLength":1128,
			"byteOffset":65268,
			"target":34963
		},
		{
			"buffer":0,
			"byteLength":9936,
			"byteOffset":66396,
			"target":34962
		},
		{
			"buffer":0,
			"byteLength":9936,
			"byteOffset":76332,
			"target":34962
		},
		{
			"buffer":0,
			"byteLength":6624,
			"byteOffset":86268,
			"target":34962
		},
		{
			"buffer":0,
			"byteLength":7896,
			"byteOffset":92892,
			"target":34963
		},
		{
			"buffer":0,
			"byteLength":16536,
			"byteOffset":100788,
			"target":34962
		},
		{
			"buffer":0,
			"byteLength":16536,
			"byteOffset":117324,
			"target":34962
		},
		{
			"buffer":0,
			"byteLength":11024,
			"byteOffset":133860,
			"target":34962
		},
		{
			"buffer":0,
			"byteLength":4428,
			"byteOffset":144884,
			"target":34963
		},
		{
			"buffer":0,
			"byteLength":4800,
			"byteOffset":149312,
			"target":34962
		},
		{
			"buffer":0,
			"byteLength":4800,
			"byteOffset":154112,
			"target":34962
		},
		{
			"buffer":0,
			"byteLength":3200,
			"byteOffset":158912,
			"target":34962
		},
		{
			"buffer":0,
			"byteLength":1230,
			"byteOffset":162112,
			"target":34963
		},
		{
			"buffer":0,
			"byteLength":3612,
			"byteOffset":163344,
			"target":34962
		},
		{
			"buffer":0,
			"byteLength":3612,
			"byteOffset":166956,
			"target":34962
		},
		{
			"buffer":0,
			"byteLength":2408,
			"byteOffset":170568,
			"target":34962
		},
		{
			"buffer":0,
			"byteLength":1014,
			"byteOffset":172976,
			"target":34963
		},
		{
			"buffer":0,
			"byteLength":4608,
			"byteOffset":173992,
			"target":34962
		},
		{
			"buffer":0,
			"byteLength":4608,
			"byteOffset":178600,
			"target":34962
		},
		{
			"buffer":0,
			"byteLength":3072,
			"byteOffset":183208,
			"target":34962
		},
		{
			"buffer":0,
			"byteLength":1512,
			"byteOffset":186280,
			"target":34963
		},
		{
			"buffer":0,
			"byteLength":4608,
			"byteOffset":187792,
			"target":34962
		},
		{
			"buffer":0,
			"byteLength":4608,
			"byteOffset":192400,
			"target":34962
		},
		{
			"buffer":0,
			"byteLength":3072,
			"byteOffset":197008,
			"target":34962
		},
		{
			"buffer":0,
			"byteLength":4608,
			"byteOffset":200080,
			"target":34962
		},
		{
			"buffer":0,
			"byteLength":4608,
			"byteOffset":204688,
			"target":34962
		},
		{
			"buffer":0,
			"byteLength":3072,
			"byteOffset":209296,
			"target":34962
		},
		{
			"buffer":0,
			"byteLength":8556,
			"byteOffset":212368,
			"target":34962
		},
		{
			"buffer":0,
			"byteLength":8556,
			"byteOffset":220924,
			"target":34962
		},
		{
			"buffer":0,
			"byteLength":5704,
			"byteOffset":229480,
			"target":34962
		},
		{
			"buffer":0,
			"byteLength":2118,
			"byteOffset":235184,
			"target":34963
		},
		{
			"buffer":0,
			"byteLength":18636,
			"byteOffset":237304,
			"target":34962
		},
		{
			"buffer":0,
			"byteLength":18636,
			"byteOffset":255940,
			"target":34962
		},
		{
			"buffer":0,
			"byteLength":12424,
			"byteOffset":274576,
			"target":34962
		},
		{
			"buffer":0,
			"byteLength":4650,
			"byteOffset":287000,
			"target":34963
		},
		{
			"buffer":0,
			"byteLength":9600,
			"byteOffset":291652,
			"target":34962
		},
		{
			"buffer":0,
			"byteLength":9600,
			"byteOffset":301252,
			"target":34962
		},
		{
			"buffer":0,
			"byteLength":6400,
			"byteOffset":310852,
			"target":34962
		},
		{
			"buffer":0,
			"byteLength":2412,
			"byteOffset":317252,
			"target":34963
		},
		{
			"buffer":0,
			"byteLength":12720,
			"byteOffset":319664,
			"target":34962
		},
		{
			"buffer":0,
			"byteLength":12720,
			"byteOffset":332384,
			"target":34962
		},
		{
			"buffer":0,
			"byteLength":8480,
			"byteOffset":345104,
			"target":34962
		},
		{
			"buffer":0,
			"byteLength":8604,
			"byteOffset":353584,
			"target":34963
		},
		{
			"buffer":0,
			"byteLength":26496,
			"byteOffset":362188,
			"target":34962
		},
		{
			"buffer":0,
			"byteLength":26496,
			"byteOffset":388684,
			"target":34962
		},
		{
			"buffer":0,
			"byteLength":17664,
			"byteOffset":415180,
			"target":34962
		},
		{
			"buffer":0,
			"byteLength":8160,
			"byteOffset":432844,
			"target":34963
		},
		{
			"buffer":0,
			"byteLength":48,
			"byteOffset":441004,
			"target":34962
		},
		{
			"buffer":0,
			"byteLength":48,
			"byteOffset":441052,
			"target":34962
		},
		{
			"buffer":0,
			"byteLength":32,
			"byteOffset":441100,
			"target":34962
		},
		{
			"buffer":0,
			"byteLength":12,
			"byteOffset":441132,
			"target":34963
		},
		{
			"buffer":0,
			"byteLength":4608,
			"byteOffset":441144,
			"target":34962
		},
		{
			"buffer":0,
			"byteLength":4608,
			"byteOffset":445752,
			"target":34962
		},
		{
			"buffer":0,
			"byteLength":3072,
			"byteOffset":450360,
			"target":34962
		},
		{
			"buffer":0,
			"byteLength":9936,
			"byteOffset":453432,
			"target":34962
		},
		{
			"buffer":0,
			"byteLength":9936,
			"byteOffset":463368,
			"target":34962
		},
		{
			"buffer":0,
			"byteLength":6624,
			"byteOffset":473304,
			"target":34962
		}
	],
	"buffers":[
		{
			"byteLength":479928,
			"uri":"fridge.bin"
		}
	]
}
