{
	"asset":{
		"generator":"Khronos glTF Blender I/O v4.5.48",
		"version":"2.0"
	},
	"scene":0,
	"scenes":[
		{
			"name":"Scene",
			"nodes":[
				0,
				1,
				2,
				3
			]
		}
	],
	"nodes":[
		{
			"mesh":0,
			"name":"kitchen_cabinet_doors_04",
			"translation":[
				0.048438169062137604,
				0.16570264101028442,
				2.8416059017181396
			]
		},
		{
			"mesh":1,
			"name":"kitchen_cabinet_doors_03",
			"translation":[
				0.04173680394887924,
				0.09371663630008698,
				1.3396070003509521
			]
		},
		{
			"mesh":2,
			"name":"kitchen_cabinet_doors_02",
			"translation":[
				0.041566357016563416,
				0.11533980816602707,
				-1.3064597845077515
			]
		},
		{
			"mesh":3,
			"name":"kitchen_cabinet_doors_01",
			"translation":[
				0.043226756155490875,
				0.2118658721446991,
				-2.812026262283325
			]
		}
	],
	"meshes":[
		{
			"name":"Cube.061",
			"primitives":[
				{
					"attributes":{
						"POSITION":0,
						"NORMAL":1,
						"TEXCOORD_0":2
					},
					"indices":3
				},
				{
					"attributes":{
						"POSITION":4,
						"NORMAL":5,
						"TEXCOORD_0":6
					},
					"indices":7
				}
			]
		},
		{
			"name":"Cube.067",
			"primitives":[
				{
					"attributes":{
						"POSITION":8,
						"NORMAL":9,
						"TEXCOORD_0":10
					},
					"indices":11
				},
				{
					"attributes":{
						"POSITION":12,
						"NORMAL":13,
						"TEXCOORD_0":14
					},
					"indices":7
				}
			]
		},
		{
			"name":"Cube.068",
			"primitives":[
				{
					"attributes":{
						"POSITION":15,
						"NORMAL":16,
						"TEXCOORD_0":17
					},
					"indices":11
				},
				{
					"attributes":{
						"POSITION":18,
						"NORMAL":19,
						"TEXCOORD_0":20
					},
					"indices":7
				}
			]
		},
		{
			"name":"Cube.069",
			"primitives":[
				{
					"attributes":{
						"POSITION":21,
						"NORMAL":22,
						"TEXCOORD_0":23
					},
					"indices":3
				},
				{
					"attributes":{
						"POSITION":24,
						"NORMAL":25,
						"TEXCOORD_0":26
					},
					"indices":7
				}
			]
		}
	],
	"accessors":[
		{
			"bufferView":0,
			"componentType":5126,
			"count":72,
			"max":[
				0.022051386535167694,
				0.5902222394943237,
				7.152557373046875e-07
			],
			"min":[
				-0.025198208168148994,
				-0.8476579785346985,
				-1.4709515571594238
			],
			"type":"VEC3"
		},
		{
			"bufferView":1,
			"componentType":5126,
			"count":72,
			"type":"VEC3"
		},
		{
			"bufferView":2,
			"componentType":5126,
			"count":72,
			"type":"VEC2"
		},
		{
			"bufferView":3,
			"componentType":5123,
			"count":108,
			"type":"SCALAR"
		},
		{
			"bufferView":4,
			"componentType":5126,
			"count":1152,
			"max":[
				-0.007125604897737503,
				0.45517557859420776,
				-1.239520788192749
			],
			"min":[
				-0.09858905524015427,
				-0.09807741641998291,
				-1.2832773923873901
			],
			"type":"VEC3"
		},
		{
			"bufferView":5,
			"componentType":5126,
			"count":1152,
			"type":"VEC3"
		},
		{
			"bufferView":6,
			"componentType":5126,
			"count":1152,
			"type":"VEC2"
		},
		{
			"bufferView":7,
			"componentType":5123,
			"count":2268,
			"type":"SCALAR"
		},
		{
			"bufferView":8,
			"componentType":5126,
			"count":72,
			"max":[
				0.024165578186511993,
				0.6622081995010376,
				-3.159046173095703e-05
			],
			"min":[
				-0.023084016516804695,
				-0.7756719589233398,
				-1.2980667352676392
			],
			"type":"VEC3"
		},
		{
			"bufferView":9,
			"componentType":5126,
			"count":72,
			"type":"VEC3"
		},
		{
			"bufferView":10,
			"componentType":5126,
			"count":72,
			"type":"VEC2"
		},
		{
			"bufferView":11,
			"componentType":5123,
			"count":108,
			"type":"SCALAR"
		},
		{
			"bufferView":12,
			"componentType":5126,
			"count":1152,
			"max":[
				-0.005011413246393204,
				0.5271615982055664,
				-1.1259084939956665
			],
			"min":[
				-0.09647486358880997,
				-0.02609141170978546,
				-1.1696650981903076
			],
			"type":"VEC3"
		},
		{
			"bufferView":13,
			"componentType":5126,
			"count":1152,
			"type":"VEC3"
		},
		{
			"bufferView":14,
			"componentType":5126,
			"count":1152,
			"type":"VEC2"
		},
		{
			"bufferView":15,
			"componentType":5126,
			"count":72,
			"max":[
				0.02433602511882782,
				0.6405845284461975,
				1.2980345487594604
			],
			"min":[
				-0.02291356958448887,
				-0.7972956299781799,
				-3.5762786865234375e-07
			],
			"type":"VEC3"
		},
		{
			"bufferView":16,
			"componentType":5126,
			"count":72,
			"type":"VEC3"
		},
		{
			"bufferView":17,
			"componentType":5126,
			"count":72,
			"type":"VEC2"
		},
		{
			"bufferView":18,
			"componentType":5126,
			"count":1152,
			"max":[
				-0.004840966314077377,
				0.5055384039878845,
				1.149634599685669
			],
			"min":[
				-0.09630441665649414,
				-0.04771455377340317,
				1.1058779954910278
			],
			"type":"VEC3"
		},
		{
			"bufferView":19,
			"componentType":5126,
			"count":1152,
			"type":"VEC3"
		},
		{
			"bufferView":20,
			"componentType":5126,
			"count":1152,
			"type":"VEC2"
		},
		{
			"bufferView":21,
			"componentType":5126,
			"count":72,
			"max":[
				0.027259908616542816,
				0.5440583229064941,
				1.4709516763687134
			],
			"min":[
				-0.019989678636193275,
				-0.893821120262146,
				0
			],
			"type":"VEC3"
		},
		{
			"bufferView":22,
			"componentType":5126,
			"count":72,
			"type":"VEC3"
		},
		{
			"bufferView":23,
			"componentType":5126,
			"count":72,
			"type":"VEC2"
		},
		{
			"bufferView":24,
			"componentType":5126,
			"count":1152,
			"max":[
				-0.001917075365781784,
				0.4090123474597931,
				1.2945445775985718
			],
			"min":[
				-0.09338052570819855,
				-0.1442405879497528,
				1.2507882118225098
			],
			"type":"VEC3"
		},
		{
			"bufferView":25,
			"componentType":5126,
			"count":1152,
			"type":"VEC3"
		},
		{
			"bufferView":26,
			"componentType":5126,
			"count":1152,
			"type":"VEC2"
		}
	],
	"bufferViews":[
		{
			"buffer":0,
			"byteLength":864,
			"byteOffset":0,
			"target":34962
		},
		{
			"buffer":0,
			"byteLength":864,
			"byteOffset":864,
			"target":34962
		},
		{
			"buffer":0,
			"byteLength":576,
			"byteOffset":1728,
			"target":34962
		},
		{
			"buffer":0,
			"byteLength":216,
			"byteOffset":2304,
			"target":34963
		},
		{
			"buffer":0,
			"byteLength":13824,
			"byteOffset":2520,
			"target":34962
		},
		{
			"buffer":0,
			"byteLength":13824,
			"byteOffset":16344,
			"target":34962
		},
		{
			"buffer":0,
			"byteLength":9216,
			"byteOffset":30168,
			"target":34962
		},
		{
			"buffer":0,
			"byteLength":4536,
			"byteOffset":39384,
			"target":34963
		},
		{
			"buffer":0,
			"byteLength":864,
			"byteOffset":43920,
			"target":34962
		},
		{
			"buffer":0,
			"byteLength":864,
			"byteOffset":44784,
			"target":34962
		},
		{
			"buffer":0,
			"byteLength":576,
			"byteOffset":45648,
			"target":34962
		},
		{
			"buffer":0,
			"byteLength":216,
			"byteOffset":46224,
			"target":34963
		},
		{
			"buffer":0,
			"byteLength":13824,
			"byteOffset":46440,
			"target":34962
		},
		{
			"buffer":0,
			"byteLength":13824,
			"byteOffset":60264,
			"target":34962
		},
		{
			"buffer":0,
			"byteLength":9216,
			"byteOffset":74088,
			"target":34962
		},
		{
			"buffer":0,
			"byteLength":864,
			"byteOffset":83304,
			"target":34962
		},
		{
			"buffer":0,
			"byteLength":864,
			"byteOffset":84168,
			"target":34962
		},
		{
			"buffer":0,
			"byteLength":576,
			"byteOffset":85032,
			"target":34962
		},
		{
			"buffer":0,
			"byteLength":13824,
			"byteOffset":85608,
			"target":34962
		},
		{
			"buffer":0,
			"byteLength":13824,
			"byteOffset":99432,
			"target":34962
		},
		{
			"buffer":0,
			"byteLength":9216,
			"byteOffset":113256,
			"target":34962
		},
		{
			"buffer":0,
			"byteLength":864,
			"byteOffset":122472,
			"target":34962
		},
		{
			"buffer":0,
			"byteLength":864,
			"byteOffset":123336,
			"target":34962
		},
		{
			"buffer":0,
			"byteLength":576,
			"byteOffset":124200,
			"target":34962
		},
		{
			"buffer":0,
			"byteLength":13824,
			"byteOffset":124776,
			"target":34962
		},
		{
			"buffer":0,
			"byteLength":13824,
			"byteOffset":138600,
			"target":34962
		},
		{
			"buffer":0,
			"byteLength":9216,
			"byteOffset":152424,
			"target":34962
		}
	],
	"buffers":[
		{
			"byteLength":161640,
			"uri":"kitchen_cabinet_doors.bin"
		}
	]
}
