{
	"asset":{
		"generator":"Khronos glTF Blender I/O v4.5.48",
		"version":"2.0"
	},
	"scene":0,
	"scenes":[
		{
			"name":"Scene",
			"nodes":[
				0,
				1
			]
		}
	],
	"nodes":[
		{
			"mesh":0,
			"name":"kitchen_cabinet_02_main",
			"scale":[
				1.6517319679260254,
				1,
				0.5868427157402039
			]
		},
		{
			"mesh":1,
			"name":"kitchen_cabinet_02_door",
			"rotation":[
				-1,
				0,
				0,
				4.371138828673793e-08
			],
			"scale":[
				-0.06277835369110107,
				-0.9999999403953552,
				-0.6820375323295593
			],
			"translation":[
				-0.8348396420478821,
				-0.0739157497882843,
				-0.6476806402206421
			]
		}
	],
	"meshes":[
		{
			"name":"Cube.100",
			"primitives":[
				{
					"attributes":{
						"POSITION":0,
						"NORMAL":1,
						"TEXCOORD_0":2
					},
					"indices":3
				}
			]
		},
		{
			"name":"Cube.117",
			"primitives":[
				{
					"attributes":{
						"POSITION":4,
						"NORMAL":5,
						"TEXCOORD_0":6
					},
					"indices":7
				},
				{
					"attributes":{
						"POSITION":8,
						"NORMAL":9,
						"TEXCOORD_0":10
					},
					"indices":11
				}
			]
		}
	],
	"accessors":[
		{
			"bufferView":0,
			"componentType":5126,
			"count":50,
			"max":[
				0.6341920495033264,
				1.0509717464447021,
				1.31565523147583
			],
			"min":[
				-0.4856787919998169,
				-0.9490281939506531,
				-1.1995186805725098
			],
			"type":"VEC3"
		},
		{
			"bufferView":1,
			"componentType":5126,
			"count":50,
			"type":"VEC3"
		},
		{
			"bufferView":2,
			"componentType":5126,
			"count":50,
			"type":"VEC2"
		},
		{
			"bufferView":3,
			"componentType":5123,
			"count":90,
			"type":"SCALAR"
		},
		{
			"bufferView":4,
			"componentType":5126,
			"count":72,
			"max":[
				0.7463537454605103,
				1.059476613998413,
				2.000000238418579
			],
			"min":[
				-1.2536463737487793,
				-0.798721969127655,
				1.1920928955078125e-07
			],
			"type":"VEC3"
		},
		{
			"bufferView":5,
			"componentType":5126,
			"count":72,
			"type":"VEC3"
		},
		{
			"bufferView":6,
			"componentType":5126,
			"count":72,
			"type":"VEC2"
		},
		{
			"bufferView":7,
			"componentType":5123,
			"count":108,
			"type":"SCALAR"
		},
		{
			"bufferView":8,
			"componentType":5126,
			"count":1152,
			"max":[
				2.217608690261841,
				0.12365929782390594,
				1.7082149982452393
			],
			"min":[
				0.5980580449104309,
				-0.4913485646247864,
				1.636898398399353
			],
			"type":"VEC3"
		},
		{
			"bufferView":9,
			"componentType":5126,
			"count":1152,
			"type":"VEC3"
		},
		{
			"bufferView":10,
			"componentType":5126,
			"count":1152,
			"type":"VEC2"
		},
		{
			"bufferView":11,
			"componentType":5123,
			"count":2268,
			"type":"SCALAR"
		}
	],
	"bufferViews":[
		{
			"buffer":0,
			"byteLength":600,
			"byteOffset":0,
			"target":34962
		},
		{
			"buffer":0,
			"byteLength":600,
			"byteOffset":600,
			"target":34962
		},
		{
			"buffer":0,
			"byteLength":400,
			"byteOffset":1200,
			"target":34962
		},
		{
			"buffer":0,
			"byteLength":180,
			"byteOffset":1600,
			"target":34963
		},
		{
			"buffer":0,
			"byteLength":864,
			"byteOffset":1780,
			"target":34962
		},
		{
			"buffer":0,
			"byteLength":864,
			"byteOffset":2644,
			"target":34962
		},
		{
			"buffer":0,
			"byteLength":576,
			"byteOffset":3508,
			"target":34962
		},
		{
			"buffer":0,
			"byteLength":216,
			"byteOffset":4084,
			"target":34963
		},
		{
			"buffer":0,
			"byteLength":13824,
			"byteOffset":4300,
			"target":34962
		},
		{
			"buffer":0,
			"byteLength":13824,
			"byteOffset":18124,
			"target":34962
		},
		{
			"buffer":0,
			"byteLength":9216,
			"byteOffset":31948,
			"target":34962
		},
		{
			"buffer":0,
			"byteLength":4536,
			"byteOffset":41164,
			"target":34963
		}
	],
	"buffers":[
		{
			"byteLength":45700,
			"uri":"kitchen_cabinet_02.bin"
		}
	]
}
