{
	"asset":{
		"generator":"Khronos glTF Blender I/O v4.5.48",
		"version":"2.0"
	},
	"scene":0,
	"scenes":[
		{
			"name":"Scene",
			"nodes":[
				0,
				1
			]
		}
	],
	"nodes":[
		{
			"mesh":0,
			"name":"kitchen_cabinet_main"
		},
		{
			"mesh":1,
			"name":"kitchen_cabinet_door",
			"rotation":[
				1,
				0,
				0,
				2.821299744937278e-07
			],
			"scale":[
				-0.038007594645023346,
				-1,
				-0.9158740043640137
			],
			"translation":[
				-0.6131008863449097,
				0.0691620409488678,
				-0.8586148023605347
			]
		}
	],
	"meshes":[
		{
			"name":"Cube.016",
			"primitives":[
				{
					"attributes":{
						"POSITION":0,
						"NORMAL":1,
						"TEXCOORD_0":2
					},
					"indices":3
				}
			]
		},
		{
			"name":"Cube.035",
			"primitives":[
				{
					"attributes":{
						"POSITION":4,
						"NORMAL":5,
						"TEXCOORD_0":6
					},
					"indices":7
				},
				{
					"attributes":{
						"POSITION":8,
						"NORMAL":9,
						"TEXCOORD_0":10
					},
					"indices":11
				}
			]
		}
	],
	"accessors":[
		{
			"bufferView":0,
			"componentType":5126,
			"count":50,
			"max":[
				0.5489639639854431,
				1.0509717464447021,
				1.018373727798462
			],
			"min":[
				-0.5895046591758728,
				-0.9490281939506531,
				-0.928479015827179
			],
			"type":"VEC3"
		},
		{
			"bufferView":1,
			"componentType":5126,
			"count":50,
			"type":"VEC3"
		},
		{
			"bufferView":2,
			"componentType":5126,
			"count":50,
			"type":"VEC2"
		},
		{
			"bufferView":3,
			"componentType":5123,
			"count":90,
			"type":"SCALAR"
		},
		{
			"bufferView":4,
			"componentType":5126,
			"count":72,
			"max":[
				0.9438318014144897,
				0.9163986444473267,
				2.000000238418579
			],
			"min":[
				-1.0561680793762207,
				-0.9418001174926758,
				2.384185791015625e-07
			],
			"type":"VEC3"
		},
		{
			"bufferView":5,
			"componentType":5126,
			"count":72,
			"type":"VEC3"
		},
		{
			"bufferView":6,
			"componentType":5126,
			"count":72,
			"type":"VEC2"
		},
		{
			"bufferView":7,
			"componentType":5123,
			"count":108,
			"type":"SCALAR"
		},
		{
			"bufferView":8,
			"componentType":5126,
			"count":1152,
			"max":[
				3.604403495788574,
				-0.01844140887260437,
				1.7829350233078003
			],
			"min":[
				0.42117011547088623,
				-0.6063128709793091,
				1.7340178489685059
			],
			"type":"VEC3"
		},
		{
			"bufferView":9,
			"componentType":5126,
			"count":1152,
			"type":"VEC3"
		},
		{
			"bufferView":10,
			"componentType":5126,
			"count":1152,
			"type":"VEC2"
		},
		{
			"bufferView":11,
			"componentType":5123,
			"count":2268,
			"type":"SCALAR"
		}
	],
	"bufferViews":[
		{
			"buffer":0,
			"byteLength":600,
			"byteOffset":0,
			"target":34962
		},
		{
			"buffer":0,
			"byteLength":600,
			"byteOffset":600,
			"target":34962
		},
		{
			"buffer":0,
			"byteLength":400,
			"byteOffset":1200,
			"target":34962
		},
		{
			"buffer":0,
			"byteLength":180,
			"byteOffset":1600,
			"target":34963
		},
		{
			"buffer":0,
			"byteLength":864,
			"byteOffset":1780,
			"target":34962
		},
		{
			"buffer":0,
			"byteLength":864,
			"byteOffset":2644,
			"target":34962
		},
		{
			"buffer":0,
			"byteLength":576,
			"byteOffset":3508,
			"target":34962
		},
		{
			"buffer":0,
			"byteLength":216,
			"byteOffset":4084,
			"target":34963
		},
		{
			"buffer":0,
			"byteLength":13824,
			"byteOffset":4300,
			"target":34962
		},
		{
			"buffer":0,
			"byteLength":13824,
			"byteOffset":18124,
			"target":34962
		},
		{
			"buffer":0,
			"byteLength":9216,
			"byteOffset":31948,
			"target":34962
		},
		{
			"buffer":0,
			"byteLength":4536,
			"byteOffset":41164,
			"target":34963
		}
	],
	"buffers":[
		{
			"byteLength":45700,
			"uri":"kitchen_cabinet.bin"
		}
	]
}
