{
	"asset":{
		"generator":"Khronos glTF Blender I/O v4.5.48",
		"version":"2.0"
	},
	"scene":0,
	"scenes":[
		{
			"name":"Scene",
			"nodes":[
				0,
				1,
				2,
				3,
				4
			]
		}
	],
	"nodes":[
		{
			"mesh":0,
			"name":"kitchen_sink_handle",
			"rotation":[
				0.4999999403953552,
				0.5000000596046448,
				-0.5000000596046448,
				0.4999999403953552
			],
			"scale":[
				-0.027531545609235764,
				-0.0403696745634079,
				-0.04006803408265114
			],
			"translation":[
				-0.05191626772284508,
				1.414190649986267,
				0.5766818523406982
			]
		},
		{
			"mesh":1,
			"name":"kitchen_sink_faucet",
			"rotation":[
				0,
				-0.7071066498756409,
				0,
				0.70710688829422
			],
			"scale":[
				0.05454859882593155,
				0.06790723651647568,
				0.054548583924770355
			],
			"translation":[
				-0.01892615482211113,
				1.8261040449142456,
				0.45837974548339844
			]
		},
		{
			"mesh":2,
			"name":"kitchen_sink_drain",
			"rotation":[
				0,
				0.7071064710617065,
				0,
				0.7071071863174438
			],
			"scale":[
				-0.1006954088807106,
				-0.005917922127991915,
				-0.10069537907838821
			],
			"translation":[
				-0.012895233929157257,
				0.4846174716949463,
				-0.0241241455078125
			]
		},
		{
			"mesh":3,
			"name":"kitchen_sink_pipe",
			"translation":[
				-0.00947227980941534,
				0.2641577124595642,
				0.010289018042385578
			]
		},
		{
			"mesh":4,
			"name":"kitchen_sink_main",
			"translation":[
				0.005678974092006683,
				0.7017232775688171,
				-0.0166717991232872
			]
		}
	],
	"meshes":[
		{
			"name":"Cylinder.005",
			"primitives":[
				{
					"attributes":{
						"POSITION":0,
						"NORMAL":1,
						"TEXCOORD_0":2
					},
					"indices":3
				}
			]
		},
		{
			"name":"Cylinder.002",
			"primitives":[
				{
					"attributes":{
						"POSITION":4,
						"NORMAL":5,
						"TEXCOORD_0":6
					},
					"indices":7
				}
			]
		},
		{
			"name":"Cylinder",
			"primitives":[
				{
					"attributes":{
						"POSITION":8,
						"NORMAL":9,
						"TEXCOORD_0":10
					},
					"indices":11
				},
				{
					"attributes":{
						"POSITION":12,
						"NORMAL":13,
						"TEXCOORD_0":14
					},
					"indices":15
				},
				{
					"attributes":{
						"POSITION":16,
						"NORMAL":17,
						"TEXCOORD_0":18
					},
					"indices":19
				}
			]
		},
		{
			"name":"Cube.008",
			"primitives":[
				{
					"attributes":{
						"POSITION":20,
						"NORMAL":21,
						"TEXCOORD_0":22
					},
					"indices":23
				}
			]
		},
		{
			"name":"Cube.009",
			"primitives":[
				{
					"attributes":{
						"POSITION":24,
						"NORMAL":25,
						"TEXCOORD_0":26
					},
					"indices":27
				}
			]
		}
	],
	"accessors":[
		{
			"bufferView":0,
			"componentType":5126,
			"count":1472,
			"max":[
				1.0304268598556519,
				1.7985155582427979,
				3.5348472595214844
			],
			"min":[
				-0.9695732593536377,
				-4.76837158203125e-07,
				-1.0036722421646118
			],
			"type":"VEC3"
		},
		{
			"bufferView":1,
			"componentType":5126,
			"count":1472,
			"type":"VEC3"
		},
		{
			"bufferView":2,
			"componentType":5126,
			"count":1472,
			"type":"VEC2"
		},
		{
			"bufferView":3,
			"componentType":5123,
			"count":2292,
			"type":"SCALAR"
		},
		{
			"bufferView":4,
			"componentType":5126,
			"count":3776,
			"max":[
				3.1834535598754883,
				5.427639961242676,
				0.9999998807907104
			],
			"min":[
				-3.2830419540405273,
				-10.044839859008789,
				-1.0000001192092896
			],
			"type":"VEC3"
		},
		{
			"bufferView":5,
			"componentType":5126,
			"count":3776,
			"type":"VEC3"
		},
		{
			"bufferView":6,
			"componentType":5126,
			"count":3776,
			"type":"VEC2"
		},
		{
			"bufferView":7,
			"componentType":5123,
			"count":5748,
			"type":"SCALAR"
		},
		{
			"bufferView":8,
			"componentType":5126,
			"count":448,
			"max":[
				0.9616338014602661,
				0.7664822340011597,
				0.9495777487754822
			],
			"min":[
				-0.9531792402267456,
				-1.2335177659988403,
				-0.956336259841919
			],
			"type":"VEC3"
		},
		{
			"bufferView":9,
			"componentType":5126,
			"count":448,
			"type":"VEC3"
		},
		{
			"bufferView":10,
			"componentType":5126,
			"count":448,
			"type":"VEC2"
		},
		{
			"bufferView":11,
			"componentType":5123,
			"count":864,
			"type":"SCALAR"
		},
		{
			"bufferView":12,
			"componentType":5126,
			"count":156,
			"max":[
				0.1713487207889557,
				0.5685651302337646,
				0.16752739250659943
			],
			"min":[
				-0.1653614342212677,
				-1.2335177659988403,
				-0.16918276250362396
			],
			"type":"VEC3"
		},
		{
			"bufferView":13,
			"componentType":5126,
			"count":156,
			"type":"VEC3"
		},
		{
			"bufferView":14,
			"componentType":5126,
			"count":156,
			"type":"VEC2"
		},
		{
			"bufferView":15,
			"componentType":5123,
			"count":276,
			"type":"SCALAR"
		},
		{
			"bufferView":16,
			"componentType":5126,
			"count":412,
			"max":[
				0.9616338014602661,
				0.7664822340011597,
				0.9495777487754822
			],
			"min":[
				-0.9531792402267456,
				-1.2335177659988403,
				-0.956336259841919
			],
			"type":"VEC3"
		},
		{
			"bufferView":17,
			"componentType":5126,
			"count":412,
			"type":"VEC3"
		},
		{
			"bufferView":18,
			"componentType":5126,
			"count":412,
			"type":"VEC2"
		},
		{
			"bufferView":19,
			"componentType":5123,
			"count":756,
			"type":"SCALAR"
		},
		{
			"bufferView":20,
			"componentType":5126,
			"count":3078,
			"max":[
				0.07939387112855911,
				0.24674181640148163,
				0.7161163687705994
			],
			"min":[
				-0.07939385622739792,
				-0.2809057831764221,
				-0.11498376727104187
			],
			"type":"VEC3"
		},
		{
			"bufferView":21,
			"componentType":5126,
			"count":3078,
			"type":"VEC3"
		},
		{
			"bufferView":22,
			"componentType":5126,
			"count":3078,
			"type":"VEC2"
		},
		{
			"bufferView":23,
			"componentType":5123,
			"count":4950,
			"type":"SCALAR"
		},
		{
			"bufferView":24,
			"componentType":5126,
			"count":3568,
			"max":[
				0.9991865158081055,
				0.46351224184036255,
				0.7854028344154358
			],
			"min":[
				-0.9953456521034241,
				-0.28163236379623413,
				-0.6704087257385254
			],
			"type":"VEC3"
		},
		{
			"bufferView":25,
			"componentType":5126,
			"count":3568,
			"type":"VEC3"
		},
		{
			"bufferView":26,
			"componentType":5126,
			"count":3568,
			"type":"VEC2"
		},
		{
			"bufferView":27,
			"componentType":5123,
			"count":5664,
			"type":"SCALAR"
		}
	],
	"bufferViews":[
		{
			"buffer":0,
			"byteLength":17664,
			"byteOffset":0,
			"target":34962
		},
		{
			"buffer":0,
			"byteLength":17664,
			"byteOffset":17664,
			"target":34962
		},
		{
			"buffer":0,
			"byteLength":11776,
			"byteOffset":35328,
			"target":34962
		},
		{
			"buffer":0,
			"byteLength":4584,
			"byteOffset":47104,
			"target":34963
		},
		{
			"buffer":0,
			"byteLength":45312,
			"byteOffset":51688,
			"target":34962
		},
		{
			"buffer":0,
			"byteLength":45312,
			"byteOffset":97000,
			"target":34962
		},
		{
			"buffer":0,
			"byteLength":30208,
			"byteOffset":142312,
			"target":34962
		},
		{
			"buffer":0,
			"byteLength":11496,
			"byteOffset":172520,
			"target":34963
		},
		{
			"buffer":0,
			"byteLength":5376,
			"byteOffset":184016,
			"target":34962
		},
		{
			"buffer":0,
			"byteLength":5376,
			"byteOffset":189392,
			"target":34962
		},
		{
			"buffer":0,
			"byteLength":3584,
			"byteOffset":194768,
			"target":34962
		},
		{
			"buffer":0,
			"byteLength":1728,
			"byteOffset":198352,
			"target":34963
		},
		{
			"buffer":0,
			"byteLength":1872,
			"byteOffset":200080,
			"target":34962
		},
		{
			"buffer":0,
			"byteLength":1872,
			"byteOffset":201952,
			"target":34962
		},
		{
			"buffer":0,
			"byteLength":1248,
			"byteOffset":203824,
			"target":34962
		},
		{
			"buffer":0,
			"byteLength":552,
			"byteOffset":205072,
			"target":34963
		},
		{
			"buffer":0,
			"byteLength":4944,
			"byteOffset":205624,
			"target":34962
		},
		{
			"buffer":0,
			"byteLength":4944,
			"byteOffset":210568,
			"target":34962
		},
		{
			"buffer":0,
			"byteLength":3296,
			"byteOffset":215512,
			"target":34962
		},
		{
			"buffer":0,
			"byteLength":1512,
			"byteOffset":218808,
			"target":34963
		},
		{
			"buffer":0,
			"byteLength":36936,
			"byteOffset":220320,
			"target":34962
		},
		{
			"buffer":0,
			"byteLength":36936,
			"byteOffset":257256,
			"target":34962
		},
		{
			"buffer":0,
			"byteLength":24624,
			"byteOffset":294192,
			"target":34962
		},
		{
			"buffer":0,
			"byteLength":9900,
			"byteOffset":318816,
			"target":34963
		},
		{
			"buffer":0,
			"byteLength":42816,
			"byteOffset":328716,
			"target":34962
		},
		{
			"buffer":0,
			"byteLength":42816,
			"byteOffset":371532,
			"target":34962
		},
		{
			"buffer":0,
			"byteLength":28544,
			"byteOffset":414348,
			"target":34962
		},
		{
			"buffer":0,
			"byteLength":11328,
			"byteOffset":442892,
			"target":34963
		}
	],
	"buffers":[
		{
			"byteLength":454220,
			"uri":"sink.bin"
		}
	]
}
