{
	"asset":{
		"generator":"Khronos glTF Blender I/O v4.5.48",
		"version":"2.0"
	},
	"scene":0,
	"scenes":[
		{
			"name":"Scene",
			"nodes":[
				0
			]
		}
	],
	"nodes":[
		{
			"mesh":0,
			"name":"lamp"
		}
	],
	"meshes":[
		{
			"name":"lamp",
			"primitives":[
				{
					"attributes":{
						"POSITION":0,
						"NORMAL":1,
						"TEXCOORD_0":2
					},
					"indices":3
				},
				{
					"attributes":{
						"POSITION":4,
						"NORMAL":5,
						"TEXCOORD_0":6
					},
					"indices":7
				}
			]
		}
	],
	"accessors":[
		{
			"bufferView":0,
			"componentType":5126,
			"count":1552,
			"max":[
				0.2778552174568176,
				0.650928258895874,
				0.27785560488700867
			],
			"min":[
				-0.2778559923171997,
				-0.001144111156463623,
				-0.27785560488700867
			],
			"type":"VEC3"
		},
		{
			"bufferView":1,
			"componentType":5126,
			"count":1552,
			"type":"VEC3"
		},
		{
			"bufferView":2,
			"componentType":5126,
			"count":1552,
			"type":"VEC2"
		},
		{
			"bufferView":3,
			"componentType":5123,
			"count":2346,
			"type":"SCALAR"
		},
		{
			"bufferView":4,
			"componentType":5126,
			"count":1088,
			"max":[
				0.385654091835022,
				1.3088620901107788,
				0.38565436005592346
			],
			"min":[
				-0.3856545686721802,
				0.6112060546875,
				-0.38565436005592346
			],
			"type":"VEC3"
		},
		{
			"bufferView":5,
			"componentType":5126,
			"count":1088,
			"type":"VEC3"
		},
		{
			"bufferView":6,
			"componentType":5126,
			"count":1088,
			"type":"VEC2"
		},
		{
			"bufferView":7,
			"componentType":5123,
			"count":1632,
			"type":"SCALAR"
		}
	],
	"bufferViews":[
		{
			"buffer":0,
			"byteLength":18624,
			"byteOffset":0,
			"target":34962
		},
		{
			"buffer":0,
			"byteLength":18624,
			"byteOffset":18624,
			"target":34962
		},
		{
			"buffer":0,
			"byteLength":12416,
			"byteOffset":37248,
			"target":34962
		},
		{
			"buffer":0,
			"byteLength":4692,
			"byteOffset":49664,
			"target":34963
		},
		{
			"buffer":0,
			"byteLength":13056,
			"byteOffset":54356,
			"target":34962
		},
		{
			"buffer":0,
			"byteLength":13056,
			"byteOffset":67412,
			"target":34962
		},
		{
			"buffer":0,
			"byteLength":8704,
			"byteOffset":80468,
			"target":34962
		},
		{
			"buffer":0,
			"byteLength":3264,
			"byteOffset":89172,
			"target":34963
		}
	],
	"buffers":[
		{
			"byteLength":92436,
			"uri":"lamp.bin"
		}
	]
}
