{
	"asset":{
		"generator":"Khronos glTF Blender I/O v4.5.48",
		"version":"2.0"
	},
	"scene":0,
	"scenes":[
		{
			"name":"Scene",
			"nodes":[
				0
			]
		}
	],
	"nodes":[
		{
			"mesh":0,
			"name":"lamp_stand",
			"scale":[
				0.02027636580169201,
				0.02027636580169201,
				0.02027636580169201
			],
			"translation":[
				0.01696704886853695,
				2.6206207275390625,
				-0.0008890117751434445
			]
		}
	],
	"meshes":[
		{
			"name":"lamp_stand",
			"primitives":[
				{
					"attributes":{
						"POSITION":0,
						"NORMAL":1,
						"TEXCOORD_0":2
					},
					"indices":3
				}
			]
		}
	],
	"accessors":[
		{
			"bufferView":0,
			"componentType":5126,
			"count":6141,
			"max":[
				17.663320541381836,
				18.150527954101562,
				18.543903350830078
			],
			"min":[
				-19.336681365966797,
				-129.2497100830078,
				-18.456098556518555
			],
			"type":"VEC3"
		},
		{
			"bufferView":1,
			"componentType":5126,
			"count":6141,
			"type":"VEC3"
		},
		{
			"bufferView":2,
			"componentType":5126,
			"count":6141,
			"type":"VEC2"
		},
		{
			"bufferView":3,
			"componentType":5123,
			"count":13707,
			"type":"SCALAR"
		}
	],
	"bufferViews":[
		{
			"buffer":0,
			"byteLength":73692,
			"byteOffset":0,
			"target":34962
		},
		{
			"buffer":0,
			"byteLength":73692,
			"byteOffset":73692,
			"target":34962
		},
		{
			"buffer":0,
			"byteLength":49128,
			"byteOffset":147384,
			"target":34962
		},
		{
			"buffer":0,
			"byteLength":27414,
			"byteOffset":196512,
			"target":34963
		}
	],
	"buffers":[
		{
			"byteLength":223928,
			"uri":"lamp_stand.bin"
		}
	]
}
