{
	"asset":{
		"generator":"Khronos glTF Blender I/O v4.5.48",
		"version":"2.0"
	},
	"scene":0,
	"scenes":[
		{
			"name":"Scene",
			"nodes":[
				0
			]
		}
	],
	"nodes":[
		{
			"mesh":0,
			"name":"base_board",
			"translation":[
				0,
				0.9322238564491272,
				4.460436230147025e-06
			]
		}
	],
	"materials":[
		{
			"doubleSided":true,
			"name":"Polystyrene",
			"normalTexture":{
				"index":0
			},
			"pbrMetallicRoughness":{
				"baseColorTexture":{
					"index":1
				},
				"metallicFactor":0,
				"metallicRoughnessTexture":{
					"index":2
				}
			}
		}
	],
	"meshes":[
		{
			"name":"base_board",
			"primitives":[
				{
					"attributes":{
						"POSITION":0,
						"NORMAL":1,
						"TEXCOORD_0":2
					},
					"indices":3,
					"material":0
				}
			]
		}
	],
	"textures":[
		{
			"sampler":0,
			"source":0
		},
		{
			"sampler":0,
			"source":1
		},
		{
			"sampler":0,
			"source":2
		}
	],
	"images":[
		{
			"mimeType":"image/png",
			"name":"polystyrene_nor_gl_8k",
			"uri":"polystyrene_nor_gl_8k.png"
		},
		{
			"mimeType":"image/jpeg",
			"name":"polystyrene_diff_2k",
			"uri":"polystyrene_diff_2k.jpg"
		},
		{
			"mimeType":"image/png",
			"name":"polystyrene_rough_8k",
			"uri":"polystyrene_rough_8k.png"
		}
	],
	"accessors":[
		{
			"bufferView":0,
			"componentType":5126,
			"count":3831,
			"max":[
				11.13187026977539,
				4.75113582611084,
				18.132354736328125
			],
			"min":[
				-9.769759178161621,
				-0.9425932168960571,
				-24.495834350585938
			],
			"type":"VEC3"
		},
		{
			"bufferView":1,
			"componentType":5126,
			"count":3831,
			"type":"VEC3"
		},
		{
			"bufferView":2,
			"componentType":5126,
			"count":3831,
			"type":"VEC2"
		},
		{
			"bufferView":3,
			"componentType":5123,
			"count":7299,
			"type":"SCALAR"
		}
	],
	"bufferViews":[
		{
			"buffer":0,
			"byteLength":45972,
			"byteOffset":0,
			"target":34962
		},
		{
			"buffer":0,
			"byteLength":45972,
			"byteOffset":45972,
			"target":34962
		},
		{
			"buffer":0,
			"byteLength":30648,
			"byteOffset":91944,
			"target":34962
		},
		{
			"buffer":0,
			"byteLength":14598,
			"byteOffset":122592,
			"target":34963
		}
	],
	"samplers":[
		{
			"magFilter":9729,
			"minFilter":9987
		}
	],
	"buffers":[
		{
			"byteLength":137192,
			"uri":"base_board.bin"
		}
	]
}
