{
	"asset":{
		"generator":"Khronos glTF Blender I/O v4.5.48",
		"version":"2.0"
	},
	"scene":0,
	"scenes":[
		{
			"name":"Scene",
			"nodes":[
				0
			]
		}
	],
	"nodes":[
		{
			"mesh":0,
			"name":"door_main",
			"rotation":[
				0,
				0,
				-0.7071068286895752,
				0.7071068286895752
			],
			"scale":[
				-1.0164682865142822,
				-1.04375422000885,
				-1.001610517501831
			],
			"translation":[
				0,
				2.557583808898926,
				0
			]
		}
	],
	"meshes":[
		{
			"name":"Cube.150",
			"primitives":[
				{
					"attributes":{
						"POSITION":0,
						"NORMAL":1,
						"TEXCOORD_0":2
					},
					"indices":3
				},
				{
					"attributes":{
						"POSITION":4,
						"NORMAL":5,
						"TEXCOORD_0":6
					},
					"indices":7
				},
				{
					"attributes":{
						"POSITION":8,
						"NORMAL":9,
						"TEXCOORD_0":10
					},
					"indices":11
				}
			]
		}
	],
	"accessors":[
		{
			"bufferView":0,
			"componentType":5126,
			"count":1728,
			"max":[
				1.5624876022338867,
				0.15047183632850647,
				2.5278549194335938
			],
			"min":[
				-2.5502142906188965,
				-0.10703578591346741,
				-0.026678085327148438
			],
			"type":"VEC3"
		},
		{
			"bufferView":1,
			"componentType":5126,
			"count":1728,
			"type":"VEC3"
		},
		{
			"bufferView":2,
			"componentType":5126,
			"count":1728,
			"type":"VEC2"
		},
		{
			"bufferView":3,
			"componentType":5123,
			"count":2952,
			"type":"SCALAR"
		},
		{
			"bufferView":4,
			"componentType":5126,
			"count":48,
			"max":[
				1.2676883935928345,
				-0.07032295316457748,
				2.201017379760742
			],
			"min":[
				0.2388891577720642,
				-0.08032307028770447,
				0.3142799139022827
			],
			"type":"VEC3"
		},
		{
			"bufferView":5,
			"componentType":5126,
			"count":48,
			"type":"VEC3"
		},
		{
			"bufferView":6,
			"componentType":5126,
			"count":48,
			"type":"VEC2"
		},
		{
			"bufferView":7,
			"componentType":5123,
			"count":72,
			"type":"SCALAR"
		},
		{
			"bufferView":8,
			"componentType":5126,
			"count":11392,
			"max":[
				-0.1491493433713913,
				0.332155704498291,
				2.5267157554626465
			],
			"min":[
				-0.38403427600860596,
				-0.2915404736995697,
				2.288346767425537
			],
			"type":"VEC3"
		},
		{
			"bufferView":9,
			"componentType":5126,
			"count":11392,
			"type":"VEC3"
		},
		{
			"bufferView":10,
			"componentType":5126,
			"count":11392,
			"type":"VEC2"
		},
		{
			"bufferView":11,
			"componentType":5123,
			"count":17616,
			"type":"SCALAR"
		}
	],
	"bufferViews":[
		{
			"buffer":0,
			"byteLength":20736,
			"byteOffset":0,
			"target":34962
		},
		{
			"buffer":0,
			"byteLength":20736,
			"byteOffset":20736,
			"target":34962
		},
		{
			"buffer":0,
			"byteLength":13824,
			"byteOffset":41472,
			"target":34962
		},
		{
			"buffer":0,
			"byteLength":5904,
			"byteOffset":55296,
			"target":34963
		},
		{
			"buffer":0,
			"byteLength":576,
			"byteOffset":61200,
			"target":34962
		},
		{
			"buffer":0,
			"byteLength":576,
			"byteOffset":61776,
			"target":34962
		},
		{
			"buffer":0,
			"byteLength":384,
			"byteOffset":62352,
			"target":34962
		},
		{
			"buffer":0,
			"byteLength":144,
			"byteOffset":62736,
			"target":34963
		},
		{
			"buffer":0,
			"byteLength":136704,
			"byteOffset":62880,
			"target":34962
		},
		{
			"buffer":0,
			"byteLength":136704,
			"byteOffset":199584,
			"target":34962
		},
		{
			"buffer":0,
			"byteLength":91136,
			"byteOffset":336288,
			"target":34962
		},
		{
			"buffer":0,
			"byteLength":35232,
			"byteOffset":427424,
			"target":34963
		}
	],
	"buffers":[
		{
			"byteLength":462656,
			"uri":"door.bin"
		}
	]
}
