{
	"asset":{
		"generator":"Khronos glTF Blender I/O v4.5.48",
		"version":"2.0"
	},
	"scene":0,
	"scenes":[
		{
			"name":"Scene",
			"nodes":[
				0,
				1,
				2
			]
		}
	],
	"nodes":[
		{
			"mesh":0,
			"name":"light_switch_double_main",
			"rotation":[
				0,
				1,
				0,
				4.371138828673793e-08
			],
			"scale":[
				0.10839217156171799,
				0.1607406586408615,
				0.10839217156171799
			]
		},
		{
			"mesh":1,
			"name":"living_room_light_switch_exterior_light_01",
			"rotation":[
				0.0013528388226404786,
				0.9359495639801025,
				-0.3521130681037903,
				0.0035959735978394747
			],
			"scale":[
				0.013666743412613869,
				0.011056373827159405,
				0.02631283737719059
			],
			"translation":[
				-0.08736451715230942,
				0.010581593960523605,
				0
			]
		},
		{
			"mesh":2,
			"name":"living_room_light_switch_exterior_light_02",
			"rotation":[
				0.0013528388226404786,
				0.9359495639801025,
				-0.3521130681037903,
				0.0035959735978394747
			],
			"scale":[
				0.013666743412613869,
				0.011056373827159405,
				0.02631283737719059
			],
			"translation":[
				0.09131868928670883,
				0.010581593960523605,
				0
			]
		}
	],
	"meshes":[
		{
			"name":"light_switch_double_main",
			"primitives":[
				{
					"attributes":{
						"POSITION":0,
						"NORMAL":1,
						"TEXCOORD_0":2
					},
					"indices":3
				},
				{
					"attributes":{
						"POSITION":4,
						"NORMAL":5,
						"TEXCOORD_0":6
					},
					"indices":7
				},
				{
					"attributes":{
						"POSITION":8,
						"NORMAL":9,
						"TEXCOORD_0":10
					},
					"indices":11
				}
			]
		},
		{
			"name":"living_room_light_switch_exterior_light_01",
			"primitives":[
				{
					"attributes":{
						"POSITION":12,
						"NORMAL":13,
						"TEXCOORD_0":14
					},
					"indices":15
				},
				{
					"attributes":{
						"POSITION":16,
						"NORMAL":17,
						"TEXCOORD_0":18
					},
					"indices":19
				}
			]
		},
		{
			"name":"living_room_light_switch_exterior_light_02",
			"primitives":[
				{
					"attributes":{
						"POSITION":20,
						"NORMAL":21,
						"TEXCOORD_0":22
					},
					"indices":15
				},
				{
					"attributes":{
						"POSITION":23,
						"NORMAL":24,
						"TEXCOORD_0":25
					},
					"indices":19
				}
			]
		}
	],
	"accessors":[
		{
			"bufferView":0,
			"componentType":5126,
			"count":261,
			"max":[
				1.8030608892440796,
				0.9849425554275513,
				0.12177075445652008
			],
			"min":[
				-0.022692453116178513,
				-1.0150574445724487,
				-0.13354967534542084
			],
			"type":"VEC3"
		},
		{
			"bufferView":1,
			"componentType":5126,
			"count":261,
			"type":"VEC3"
		},
		{
			"bufferView":2,
			"componentType":5126,
			"count":261,
			"type":"VEC2"
		},
		{
			"bufferView":3,
			"componentType":5123,
			"count":441,
			"type":"SCALAR"
		},
		{
			"bufferView":4,
			"componentType":5126,
			"count":288,
			"max":[
				0.9385630488395691,
				0.9849425554275513,
				0.12291516363620758
			],
			"min":[
				-1.8276039361953735,
				-1.0150574445724487,
				-0.13354967534542084
			],
			"type":"VEC3"
		},
		{
			"bufferView":5,
			"componentType":5126,
			"count":288,
			"type":"VEC3"
		},
		{
			"bufferView":6,
			"componentType":5126,
			"count":288,
			"type":"VEC2"
		},
		{
			"bufferView":7,
			"componentType":5123,
			"count":480,
			"type":"SCALAR"
		},
		{
			"bufferView":8,
			"componentType":5126,
			"count":49,
			"max":[
				1.8030608892440796,
				0.9849425554275513,
				0.12291516363620758
			],
			"min":[
				-1.8276039361953735,
				-1.0150574445724487,
				0.12177075445652008
			],
			"type":"VEC3"
		},
		{
			"bufferView":9,
			"componentType":5126,
			"count":49,
			"type":"VEC3"
		},
		{
			"bufferView":10,
			"componentType":5126,
			"count":49,
			"type":"VEC2"
		},
		{
			"bufferView":11,
			"componentType":5123,
			"count":147,
			"type":"SCALAR"
		},
		{
			"bufferView":12,
			"componentType":5126,
			"count":34,
			"max":[
				0.9816198945045471,
				0.9551282525062561,
				-0.9004852175712585
			],
			"min":[
				-0.9805782437324524,
				-1.0448716878890991,
				-2.4173614978790283
			],
			"type":"VEC3"
		},
		{
			"bufferView":13,
			"componentType":5126,
			"count":34,
			"type":"VEC3"
		},
		{
			"bufferView":14,
			"componentType":5126,
			"count":34,
			"type":"VEC2"
		},
		{
			"bufferView":15,
			"componentType":5123,
			"count":72,
			"type":"SCALAR"
		},
		{
			"bufferView":16,
			"componentType":5126,
			"count":416,
			"max":[
				0.9818863272666931,
				2.856335401535034,
				1.4049001932144165
			],
			"min":[
				-0.9820653796195984,
				-2.8330421447753906,
				-0.9862663745880127
			],
			"type":"VEC3"
		},
		{
			"bufferView":17,
			"componentType":5126,
			"count":416,
			"type":"VEC3"
		},
		{
			"bufferView":18,
			"componentType":5126,
			"count":416,
			"type":"VEC2"
		},
		{
			"bufferView":19,
			"componentType":5123,
			"count":816,
			"type":"SCALAR"
		},
		{
			"bufferView":20,
			"componentType":5126,
			"count":34,
			"max":[
				0.9816198945045471,
				0.9551282525062561,
				-0.9004852175712585
			],
			"min":[
				-0.9805782437324524,
				-1.0448716878890991,
				-2.4173614978790283
			],
			"type":"VEC3"
		},
		{
			"bufferView":21,
			"componentType":5126,
			"count":34,
			"type":"VEC3"
		},
		{
			"bufferView":22,
			"componentType":5126,
			"count":34,
			"type":"VEC2"
		},
		{
			"bufferView":23,
			"componentType":5126,
			"count":416,
			"max":[
				0.9818863272666931,
				2.856335401535034,
				1.4049001932144165
			],
			"min":[
				-0.9820653796195984,
				-2.8330421447753906,
				-0.9862663745880127
			],
			"type":"VEC3"
		},
		{
			"bufferView":24,
			"componentType":5126,
			"count":416,
			"type":"VEC3"
		},
		{
			"bufferView":25,
			"componentType":5126,
			"count":416,
			"type":"VEC2"
		}
	],
	"bufferViews":[
		{
			"buffer":0,
			"byteLength":3132,
			"byteOffset":0,
			"target":34962
		},
		{
			"buffer":0,
			"byteLength":3132,
			"byteOffset":3132,
			"target":34962
		},
		{
			"buffer":0,
			"byteLength":2088,
			"byteOffset":6264,
			"target":34962
		},
		{
			"buffer":0,
			"byteLength":882,
			"byteOffset":8352,
			"target":34963
		},
		{
			"buffer":0,
			"byteLength":3456,
			"byteOffset":9236,
			"target":34962
		},
		{
			"buffer":0,
			"byteLength":3456,
			"byteOffset":12692,
			"target":34962
		},
		{
			"buffer":0,
			"byteLength":2304,
			"byteOffset":16148,
			"target":34962
		},
		{
			"buffer":0,
			"byteLength":960,
			"byteOffset":18452,
			"target":34963
		},
		{
			"buffer":0,
			"byteLength":588,
			"byteOffset":19412,
			"target":34962
		},
		{
			"buffer":0,
			"byteLength":588,
			"byteOffset":20000,
			"target":34962
		},
		{
			"buffer":0,
			"byteLength":392,
			"byteOffset":20588,
			"target":34962
		},
		{
			"buffer":0,
			"byteLength":294,
			"byteOffset":20980,
			"target":34963
		},
		{
			"buffer":0,
			"byteLength":408,
			"byteOffset":21276,
			"target":34962
		},
		{
			"buffer":0,
			"byteLength":408,
			"byteOffset":21684,
			"target":34962
		},
		{
			"buffer":0,
			"byteLength":272,
			"byteOffset":22092,
			"target":34962
		},
		{
			"buffer":0,
			"byteLength":144,
			"byteOffset":22364,
			"target":34963
		},
		{
			"buffer":0,
			"byteLength":4992,
			"byteOffset":22508,
			"target":34962
		},
		{
			"buffer":0,
			"byteLength":4992,
			"byteOffset":27500,
			"target":34962
		},
		{
			"buffer":0,
			"byteLength":3328,
			"byteOffset":32492,
			"target":34962
		},
		{
			"buffer":0,
			"byteLength":1632,
			"byteOffset":35820,
			"target":34963
		},
		{
			"buffer":0,
			"byteLength":408,
			"byteOffset":37452,
			"target":34962
		},
		{
			"buffer":0,
			"byteLength":408,
			"byteOffset":37860,
			"target":34962
		},
		{
			"buffer":0,
			"byteLength":272,
			"byteOffset":38268,
			"target":34962
		},
		{
			"buffer":0,
			"byteLength":4992,
			"byteOffset":38540,
			"target":34962
		},
		{
			"buffer":0,
			"byteLength":4992,
			"byteOffset":43532,
			"target":34962
		},
		{
			"buffer":0,
			"byteLength":3328,
			"byteOffset":48524,
			"target":34962
		}
	],
	"buffers":[
		{
			"byteLength":51852,
			"uri":"light_switch_double.bin"
		}
	]
}
