{
	"asset":{
		"generator":"Khronos glTF Blender I/O v4.5.48",
		"version":"2.0"
	},
	"scene":0,
	"scenes":[
		{
			"name":"Scene",
			"nodes":[
				0
			]
		}
	],
	"nodes":[
		{
			"mesh":0,
			"name":"outlet",
			"rotation":[
				0,
				-0.7071068286895752,
				0.7071068286895752,
				1.1520233300643667e-07
			],
			"scale":[
				0.05118293687701225,
				0.007025764323771,
				0.046107880771160126
			]
		}
	],
	"meshes":[
		{
			"name":"outlet",
			"primitives":[
				{
					"attributes":{
						"POSITION":0,
						"NORMAL":1,
						"TEXCOORD_0":2
					},
					"indices":3
				}
			]
		}
	],
	"accessors":[
		{
			"bufferView":0,
			"componentType":5126,
			"count":5224,
			"max":[
				2.1977481842041016,
				3.3447751998901367,
				3.062734365463257
			],
			"min":[
				-2.0377326011657715,
				-1.4791896343231201,
				-3.9096381664276123
			],
			"type":"VEC3"
		},
		{
			"bufferView":1,
			"componentType":5126,
			"count":5224,
			"type":"VEC3"
		},
		{
			"bufferView":2,
			"componentType":5126,
			"count":5224,
			"type":"VEC2"
		},
		{
			"bufferView":3,
			"componentType":5123,
			"count":9228,
			"type":"SCALAR"
		}
	],
	"bufferViews":[
		{
			"buffer":0,
			"byteLength":62688,
			"byteOffset":0,
			"target":34962
		},
		{
			"buffer":0,
			"byteLength":62688,
			"byteOffset":62688,
			"target":34962
		},
		{
			"buffer":0,
			"byteLength":41792,
			"byteOffset":125376,
			"target":34962
		},
		{
			"buffer":0,
			"byteLength":18456,
			"byteOffset":167168,
			"target":34963
		}
	],
	"buffers":[
		{
			"byteLength":185624,
			"uri":"outlet.bin"
		}
	]
}
