{
	"asset":{
		"generator":"Khronos glTF Blender I/O v4.5.48",
		"version":"2.0"
	},
	"scene":0,
	"scenes":[
		{
			"name":"Scene",
			"nodes":[
				0
			]
		}
	],
	"nodes":[
		{
			"mesh":0,
			"name":"wall_06",
			"rotation":[
				-0.7071068286895752,
				0,
				0,
				0.7071068286895752
			],
			"scale":[
				-11.000558853149414,
				-0.24187399446964264,
				-2.8929200172424316
			],
			"translation":[
				0,
				2.221146583557129,
				0
			]
		}
	],
	"meshes":[
		{
			"name":"wall_06",
			"primitives":[
				{
					"attributes":{
						"POSITION":0,
						"NORMAL":1,
						"TEXCOORD_0":2
					},
					"indices":3
				},
				{
					"attributes":{
						"POSITION":4,
						"NORMAL":5,
						"TEXCOORD_0":6
					},
					"indices":7
				},
				{
					"attributes":{
						"POSITION":8,
						"NORMAL":9,
						"TEXCOORD_0":10
					},
					"indices":11
				}
			]
		}
	],
	"accessors":[
		{
			"bufferView":0,
			"componentType":5126,
			"count":46,
			"max":[
				0.2569435238838196,
				17.99551773071289,
				0.823201596736908
			],
			"min":[
				-1.0247291326522827,
				15.995514869689941,
				-1.1767982244491577
			],
			"type":"VEC3"
		},
		{
			"bufferView":1,
			"componentType":5126,
			"count":46,
			"type":"VEC3"
		},
		{
			"bufferView":2,
			"componentType":5126,
			"count":46,
			"type":"VEC2"
		},
		{
			"bufferView":3,
			"componentType":5123,
			"count":132,
			"type":"SCALAR"
		},
		{
			"bufferView":4,
			"componentType":5126,
			"count":66,
			"max":[
				0.2742224931716919,
				17.99551773071289,
				0.8066544532775879
			],
			"min":[
				-0.6930336952209473,
				-23.985919952392578,
				-0.7062336206436157
			],
			"type":"VEC3"
		},
		{
			"bufferView":5,
			"componentType":5126,
			"count":66,
			"type":"VEC3"
		},
		{
			"bufferView":6,
			"componentType":5126,
			"count":66,
			"type":"VEC2"
		},
		{
			"bufferView":7,
			"componentType":5123,
			"count":102,
			"type":"SCALAR"
		},
		{
			"bufferView":8,
			"componentType":5126,
			"count":46,
			"max":[
				0.2742224931716919,
				17.845792770385742,
				0.823201596736908
			],
			"min":[
				0.2302476167678833,
				-50.0880012512207,
				-1.1767982244491577
			],
			"type":"VEC3"
		},
		{
			"bufferView":9,
			"componentType":5126,
			"count":46,
			"type":"VEC3"
		},
		{
			"bufferView":10,
			"componentType":5126,
			"count":46,
			"type":"VEC2"
		},
		{
			"bufferView":11,
			"componentType":5123,
			"count":114,
			"type":"SCALAR"
		}
	],
	"bufferViews":[
		{
			"buffer":0,
			"byteLength":552,
			"byteOffset":0,
			"target":34962
		},
		{
			"buffer":0,
			"byteLength":552,
			"byteOffset":552,
			"target":34962
		},
		{
			"buffer":0,
			"byteLength":368,
			"byteOffset":1104,
			"target":34962
		},
		{
			"buffer":0,
			"byteLength":264,
			"byteOffset":1472,
			"target":34963
		},
		{
			"buffer":0,
			"byteLength":792,
			"byteOffset":1736,
			"target":34962
		},
		{
			"buffer":0,
			"byteLength":792,
			"byteOffset":2528,
			"target":34962
		},
		{
			"buffer":0,
			"byteLength":528,
			"byteOffset":3320,
			"target":34962
		},
		{
			"buffer":0,
			"byteLength":204,
			"byteOffset":3848,
			"target":34963
		},
		{
			"buffer":0,
			"byteLength":552,
			"byteOffset":4052,
			"target":34962
		},
		{
			"buffer":0,
			"byteLength":552,
			"byteOffset":4604,
			"target":34962
		},
		{
			"buffer":0,
			"byteLength":368,
			"byteOffset":5156,
			"target":34962
		},
		{
			"buffer":0,
			"byteLength":228,
			"byteOffset":5524,
			"target":34963
		}
	],
	"buffers":[
		{
			"byteLength":5752,
			"uri":"wall_06.bin"
		}
	]
}
