{
	"asset":{
		"generator":"Khronos glTF Blender I/O v4.5.48",
		"version":"2.0"
	},
	"scene":0,
	"scenes":[
		{
			"name":"Scene",
			"nodes":[
				0
			]
		}
	],
	"nodes":[
		{
			"mesh":0,
			"name":"wall_07",
			"rotation":[
				-0.7071068286895752,
				0,
				0,
				0.7071068286895752
			],
			"scale":[
				-23.539400100708008,
				-0.24187399446964264,
				-2.8929200172424316
			],
			"translation":[
				0.19982683658599854,
				2.9433584213256836,
				-0.15887367725372314
			]
		}
	],
	"meshes":[
		{
			"name":"Cube.028",
			"primitives":[
				{
					"attributes":{
						"POSITION":0,
						"NORMAL":1,
						"TEXCOORD_0":2
					},
					"indices":3
				},
				{
					"attributes":{
						"POSITION":4,
						"NORMAL":5,
						"TEXCOORD_0":6
					},
					"indices":7
				}
			]
		}
	],
	"accessors":[
		{
			"bufferView":0,
			"componentType":5126,
			"count":278,
			"max":[
				0.3691703975200653,
				29.255752563476562,
				1.0728495121002197
			],
			"min":[
				-0.22371014952659607,
				-39.16489028930664,
				-0.9271502494812012
			],
			"type":"VEC3"
		},
		{
			"bufferView":1,
			"componentType":5126,
			"count":278,
			"type":"VEC3"
		},
		{
			"bufferView":2,
			"componentType":5126,
			"count":278,
			"type":"VEC2"
		},
		{
			"bufferView":3,
			"componentType":5123,
			"count":654,
			"type":"SCALAR"
		},
		{
			"bufferView":4,
			"componentType":5126,
			"count":4,
			"max":[
				-0.2185930758714676,
				-11.412137031555176,
				0.23766382038593292
			],
			"min":[
				-0.2185930758714676,
				-22.415363311767578,
				-0.554125964641571
			],
			"type":"VEC3"
		},
		{
			"bufferView":5,
			"componentType":5126,
			"count":4,
			"type":"VEC3"
		},
		{
			"bufferView":6,
			"componentType":5126,
			"count":4,
			"type":"VEC2"
		},
		{
			"bufferView":7,
			"componentType":5123,
			"count":6,
			"type":"SCALAR"
		}
	],
	"bufferViews":[
		{
			"buffer":0,
			"byteLength":3336,
			"byteOffset":0,
			"target":34962
		},
		{
			"buffer":0,
			"byteLength":3336,
			"byteOffset":3336,
			"target":34962
		},
		{
			"buffer":0,
			"byteLength":2224,
			"byteOffset":6672,
			"target":34962
		},
		{
			"buffer":0,
			"byteLength":1308,
			"byteOffset":8896,
			"target":34963
		},
		{
			"buffer":0,
			"byteLength":48,
			"byteOffset":10204,
			"target":34962
		},
		{
			"buffer":0,
			"byteLength":48,
			"byteOffset":10252,
			"target":34962
		},
		{
			"buffer":0,
			"byteLength":32,
			"byteOffset":10300,
			"target":34962
		},
		{
			"buffer":0,
			"byteLength":12,
			"byteOffset":10332,
			"target":34963
		}
	],
	"buffers":[
		{
			"byteLength":10344,
			"uri":"wall_07.bin"
		}
	]
}
