{
	"asset":{
		"generator":"Khronos glTF Blender I/O v4.5.48",
		"version":"2.0"
	},
	"scene":0,
	"scenes":[
		{
			"name":"Scene",
			"nodes":[
				0
			]
		}
	],
	"nodes":[
		{
			"mesh":0,
			"name":"wall_04",
			"rotation":[
				0,
				-0.7071068286895752,
				-0.7071068286895752,
				0
			],
			"scale":[
				-10.82878589630127,
				-0.24187350273132324,
				-2.8929200172424316
			],
			"translation":[
				1.7433576583862305,
				2.599325180053711,
				-0.05319519340991974
			]
		}
	],
	"meshes":[
		{
			"name":"Cube.012",
			"primitives":[
				{
					"attributes":{
						"POSITION":0,
						"NORMAL":1,
						"TEXCOORD_0":2
					},
					"indices":3
				},
				{
					"attributes":{
						"POSITION":4,
						"NORMAL":5,
						"TEXCOORD_0":6
					},
					"indices":7
				}
			]
		}
	],
	"accessors":[
		{
			"bufferView":0,
			"componentType":5126,
			"count":76,
			"max":[
				0.7724812030792236,
				0.7800701856613159,
				0.953927218914032
			],
			"min":[
				-1.2275187969207764,
				-1.219929814338684,
				-1.0460726022720337
			],
			"type":"VEC3"
		},
		{
			"bufferView":1,
			"componentType":5126,
			"count":76,
			"type":"VEC3"
		},
		{
			"bufferView":2,
			"componentType":5126,
			"count":76,
			"type":"VEC2"
		},
		{
			"bufferView":3,
			"componentType":5123,
			"count":150,
			"type":"SCALAR"
		},
		{
			"bufferView":4,
			"componentType":5126,
			"count":24,
			"max":[
				0.6314498782157898,
				0.6647894382476807,
				0.44436001777648926
			],
			"min":[
				0.3345075249671936,
				0.6547894477844238,
				-0.5797957181930542
			],
			"type":"VEC3"
		},
		{
			"bufferView":5,
			"componentType":5126,
			"count":24,
			"type":"VEC3"
		},
		{
			"bufferView":6,
			"componentType":5126,
			"count":24,
			"type":"VEC2"
		},
		{
			"bufferView":7,
			"componentType":5123,
			"count":36,
			"type":"SCALAR"
		}
	],
	"bufferViews":[
		{
			"buffer":0,
			"byteLength":912,
			"byteOffset":0,
			"target":34962
		},
		{
			"buffer":0,
			"byteLength":912,
			"byteOffset":912,
			"target":34962
		},
		{
			"buffer":0,
			"byteLength":608,
			"byteOffset":1824,
			"target":34962
		},
		{
			"buffer":0,
			"byteLength":300,
			"byteOffset":2432,
			"target":34963
		},
		{
			"buffer":0,
			"byteLength":288,
			"byteOffset":2732,
			"target":34962
		},
		{
			"buffer":0,
			"byteLength":288,
			"byteOffset":3020,
			"target":34962
		},
		{
			"buffer":0,
			"byteLength":192,
			"byteOffset":3308,
			"target":34962
		},
		{
			"buffer":0,
			"byteLength":72,
			"byteOffset":3500,
			"target":34963
		}
	],
	"buffers":[
		{
			"byteLength":3572,
			"uri":"wall_04.bin"
		}
	]
}
