{
	"asset":{
		"generator":"Khronos glTF Blender I/O v4.5.48",
		"version":"2.0"
	},
	"scene":0,
	"scenes":[
		{
			"name":"Scene",
			"nodes":[
				0
			]
		}
	],
	"nodes":[
		{
			"mesh":0,
			"name":"wall_05",
			"rotation":[
				0,
				-0.7071068286895752,
				-0.7071068286895752,
				0
			],
			"scale":[
				-10.887435913085938,
				-0.24187350273132324,
				-2.8929200172424316
			],
			"translation":[
				0,
				2.366176128387451,
				0
			]
		}
	],
	"meshes":[
		{
			"name":"wall_05",
			"primitives":[
				{
					"attributes":{
						"POSITION":0,
						"NORMAL":1,
						"TEXCOORD_0":2
					},
					"indices":3
				},
				{
					"attributes":{
						"POSITION":4,
						"NORMAL":5,
						"TEXCOORD_0":6
					},
					"indices":7
				}
			]
		}
	],
	"accessors":[
		{
			"bufferView":0,
			"componentType":5126,
			"count":32,
			"max":[
				1.2572848796844482,
				1,
				0.8733342289924622
			],
			"min":[
				-0.7427151799201965,
				-1,
				-1.126665711402893
			],
			"type":"VEC3"
		},
		{
			"bufferView":1,
			"componentType":5126,
			"count":32,
			"type":"VEC3"
		},
		{
			"bufferView":2,
			"componentType":5126,
			"count":32,
			"type":"VEC2"
		},
		{
			"bufferView":3,
			"componentType":5123,
			"count":72,
			"type":"SCALAR"
		},
		{
			"bufferView":4,
			"componentType":5126,
			"count":16,
			"max":[
				-0.13917326927185059,
				1,
				0.8567870259284973
			],
			"min":[
				-0.37539637088775635,
				-1,
				-0.6034554839134216
			],
			"type":"VEC3"
		},
		{
			"bufferView":5,
			"componentType":5126,
			"count":16,
			"type":"VEC3"
		},
		{
			"bufferView":6,
			"componentType":5126,
			"count":16,
			"type":"VEC2"
		},
		{
			"bufferView":7,
			"componentType":5123,
			"count":24,
			"type":"SCALAR"
		}
	],
	"bufferViews":[
		{
			"buffer":0,
			"byteLength":384,
			"byteOffset":0,
			"target":34962
		},
		{
			"buffer":0,
			"byteLength":384,
			"byteOffset":384,
			"target":34962
		},
		{
			"buffer":0,
			"byteLength":256,
			"byteOffset":768,
			"target":34962
		},
		{
			"buffer":0,
			"byteLength":144,
			"byteOffset":1024,
			"target":34963
		},
		{
			"buffer":0,
			"byteLength":192,
			"byteOffset":1168,
			"target":34962
		},
		{
			"buffer":0,
			"byteLength":192,
			"byteOffset":1360,
			"target":34962
		},
		{
			"buffer":0,
			"byteLength":128,
			"byteOffset":1552,
			"target":34962
		},
		{
			"buffer":0,
			"byteLength":48,
			"byteOffset":1680,
			"target":34963
		}
	],
	"buffers":[
		{
			"byteLength":1728,
			"uri":"wall_05.bin"
		}
	]
}
