{
	"asset":{
		"generator":"Khronos glTF Blender I/O v4.5.48",
		"version":"2.0"
	},
	"scene":0,
	"scenes":[
		{
			"name":"Scene",
			"nodes":[
				0
			]
		}
	],
	"nodes":[
		{
			"mesh":0,
			"name":"wall_02",
			"rotation":[
				0.7071068286895752,
				0.7071068286895752,
				0,
				0
			],
			"scale":[
				-2.8213047981262207,
				-0.27817055583000183,
				-13.131964683532715
			],
			"translation":[
				0,
				3.464359760284424,
				0
			]
		}
	],
	"meshes":[
		{
			"name":"Cube.014",
			"primitives":[
				{
					"attributes":{
						"POSITION":0,
						"NORMAL":1,
						"TEXCOORD_0":2
					},
					"indices":3
				},
				{
					"attributes":{
						"POSITION":4,
						"NORMAL":5,
						"TEXCOORD_0":6
					},
					"indices":7
				},
				{
					"attributes":{
						"POSITION":8,
						"NORMAL":9,
						"TEXCOORD_0":10
					},
					"indices":11
				}
			]
		}
	],
	"accessors":[
		{
			"bufferView":0,
			"componentType":5126,
			"count":144,
			"max":[
				1.27105712890625,
				1.0000003576278687,
				1.0023185014724731
			],
			"min":[
				-0.7647007703781128,
				-1.0000001192092896,
				-0.9976820349693298
			],
			"type":"VEC3"
		},
		{
			"bufferView":1,
			"componentType":5126,
			"count":144,
			"type":"VEC3"
		},
		{
			"bufferView":2,
			"componentType":5126,
			"count":144,
			"type":"VEC2"
		},
		{
			"bufferView":3,
			"componentType":5123,
			"count":360,
			"type":"SCALAR"
		},
		{
			"bufferView":4,
			"componentType":5126,
			"count":20,
			"max":[
				0.4952288866043091,
				0.9409474730491638,
				0.1966327577829361
			],
			"min":[
				-0.30534085631370544,
				-0.9409472346305847,
				-0.19528715312480927
			],
			"type":"VEC3"
		},
		{
			"bufferView":5,
			"componentType":5126,
			"count":20,
			"type":"VEC3"
		},
		{
			"bufferView":6,
			"componentType":5126,
			"count":20,
			"type":"VEC2"
		},
		{
			"bufferView":7,
			"componentType":5123,
			"count":36,
			"type":"SCALAR"
		},
		{
			"bufferView":8,
			"componentType":5126,
			"count":164,
			"max":[
				1.2661285400390625,
				1.0000003576278687,
				0.6874577403068542
			],
			"min":[
				-0.3224283754825592,
				-1.0000001192092896,
				-0.6880552172660828
			],
			"type":"VEC3"
		},
		{
			"bufferView":9,
			"componentType":5126,
			"count":164,
			"type":"VEC3"
		},
		{
			"bufferView":10,
			"componentType":5126,
			"count":164,
			"type":"VEC2"
		},
		{
			"bufferView":11,
			"componentType":5123,
			"count":246,
			"type":"SCALAR"
		}
	],
	"bufferViews":[
		{
			"buffer":0,
			"byteLength":1728,
			"byteOffset":0,
			"target":34962
		},
		{
			"buffer":0,
			"byteLength":1728,
			"byteOffset":1728,
			"target":34962
		},
		{
			"buffer":0,
			"byteLength":1152,
			"byteOffset":3456,
			"target":34962
		},
		{
			"buffer":0,
			"byteLength":720,
			"byteOffset":4608,
			"target":34963
		},
		{
			"buffer":0,
			"byteLength":240,
			"byteOffset":5328,
			"target":34962
		},
		{
			"buffer":0,
			"byteLength":240,
			"byteOffset":5568,
			"target":34962
		},
		{
			"buffer":0,
			"byteLength":160,
			"byteOffset":5808,
			"target":34962
		},
		{
			"buffer":0,
			"byteLength":72,
			"byteOffset":5968,
			"target":34963
		},
		{
			"buffer":0,
			"byteLength":1968,
			"byteOffset":6040,
			"target":34962
		},
		{
			"buffer":0,
			"byteLength":1968,
			"byteOffset":8008,
			"target":34962
		},
		{
			"buffer":0,
			"byteLength":1312,
			"byteOffset":9976,
			"target":34962
		},
		{
			"buffer":0,
			"byteLength":492,
			"byteOffset":11288,
			"target":34963
		}
	],
	"buffers":[
		{
			"byteLength":11780,
			"uri":"wall_02.bin"
		}
	]
}
