{
	"asset":{
		"generator":"Khronos glTF Blender I/O v4.5.48",
		"version":"2.0"
	},
	"scene":0,
	"scenes":[
		{
			"name":"Scene",
			"nodes":[
				0
			]
		}
	],
	"nodes":[
		{
			"mesh":0,
			"name":"kitchen_drawer"
		}
	],
	"meshes":[
		{
			"name":"kitchen_drawer",
			"primitives":[
				{
					"attributes":{
						"POSITION":0,
						"NORMAL":1,
						"TEXCOORD_0":2
					},
					"indices":3
				},
				{
					"attributes":{
						"POSITION":4,
						"NORMAL":5,
						"TEXCOORD_0":6
					},
					"indices":7
				}
			]
		}
	],
	"accessors":[
		{
			"bufferView":0,
			"componentType":5126,
			"count":104,
			"max":[
				1.309770107269287,
				0.24400214850902557,
				0.7603673338890076
			],
			"min":[
				0.002740209922194481,
				-0.20996752381324768,
				-0.7105841636657715
			],
			"type":"VEC3"
		},
		{
			"bufferView":1,
			"componentType":5126,
			"count":104,
			"type":"VEC3"
		},
		{
			"bufferView":2,
			"componentType":5126,
			"count":104,
			"type":"VEC2"
		},
		{
			"bufferView":3,
			"componentType":5123,
			"count":180,
			"type":"SCALAR"
		},
		{
			"bufferView":4,
			"componentType":5126,
			"count":1152,
			"max":[
				0.014569584280252457,
				0.09171507507562637,
				0.2255088835954666
			],
			"min":[
				-0.0768938735127449,
				0.03724304959177971,
				-0.2189086377620697
			],
			"type":"VEC3"
		},
		{
			"bufferView":5,
			"componentType":5126,
			"count":1152,
			"type":"VEC3"
		},
		{
			"bufferView":6,
			"componentType":5126,
			"count":1152,
			"type":"VEC2"
		},
		{
			"bufferView":7,
			"componentType":5123,
			"count":2268,
			"type":"SCALAR"
		}
	],
	"bufferViews":[
		{
			"buffer":0,
			"byteLength":1248,
			"byteOffset":0,
			"target":34962
		},
		{
			"buffer":0,
			"byteLength":1248,
			"byteOffset":1248,
			"target":34962
		},
		{
			"buffer":0,
			"byteLength":832,
			"byteOffset":2496,
			"target":34962
		},
		{
			"buffer":0,
			"byteLength":360,
			"byteOffset":3328,
			"target":34963
		},
		{
			"buffer":0,
			"byteLength":13824,
			"byteOffset":3688,
			"target":34962
		},
		{
			"buffer":0,
			"byteLength":13824,
			"byteOffset":17512,
			"target":34962
		},
		{
			"buffer":0,
			"byteLength":9216,
			"byteOffset":31336,
			"target":34962
		},
		{
			"buffer":0,
			"byteLength":4536,
			"byteOffset":40552,
			"target":34963
		}
	],
	"buffers":[
		{
			"byteLength":45088,
			"uri":"kitchen_drawer.bin"
		}
	]
}
