{
	"asset":{
		"generator":"Khronos glTF Blender I/O v4.5.48",
		"version":"2.0"
	},
	"scene":0,
	"scenes":[
		{
			"name":"Scene",
			"nodes":[
				0,
				1,
				2,
				3,
				4,
				5,
				6,
				7,
				8,
				9,
				10,
				11,
				12,
				13,
				14
			]
		}
	],
	"nodes":[
		{
			"mesh":0,
			"name":"stove_frame",
			"rotation":[
				-0.7071068286895752,
				0,
				-0.7071068286895752,
				1.1520233300643667e-07
			],
			"scale":[
				0.3943953216075897,
				0.34335434436798096,
				0.3943953216075897
			],
			"translation":[
				0,
				1.1723726987838745,
				0
			]
		},
		{
			"mesh":1,
			"name":"oven_door",
			"rotation":[
				0,
				-0.7071066498756409,
				0,
				0.7071069478988647
			],
			"scale":[
				0.3943953514099121,
				0.3943953514099121,
				0.3943953514099121
			],
			"translation":[
				0.003996299579739571,
				0.5278120040893555,
				-0.9454622268676758
			]
		},
		{
			"mesh":2,
			"name":"knob_06",
			"rotation":[
				0.5,
				-0.5,
				-0.5,
				0.5000000596046448
			],
			"scale":[
				0.07450389117002487,
				0.07450389117002487,
				0.07450389117002487
			],
			"translation":[
				-0.7826285362243652,
				1.8315190076828003,
				-1.0453195571899414
			]
		},
		{
			"mesh":3,
			"name":"knob_05",
			"rotation":[
				0.5,
				-0.5,
				-0.5,
				0.5000000596046448
			],
			"scale":[
				0.07450389117002487,
				0.07450389117002487,
				0.07450389117002487
			],
			"translation":[
				-0.4673924446105957,
				1.8315190076828003,
				-1.0453195571899414
			]
		},
		{
			"mesh":4,
			"name":"knob_04",
			"rotation":[
				0.5,
				-0.5,
				-0.5,
				0.5000000596046448
			],
			"scale":[
				0.07450389117002487,
				0.07450389117002487,
				0.07450389117002487
			],
			"translation":[
				-0.17114591598510742,
				1.8315190076828003,
				-1.0453195571899414
			]
		},
		{
			"mesh":5,
			"name":"knob_03",
			"rotation":[
				0.5,
				-0.5,
				-0.5,
				0.5000000596046448
			],
			"scale":[
				0.07450389117002487,
				0.07450389117002487,
				0.07450389117002487
			],
			"translation":[
				0.1440901756286621,
				1.8315190076828003,
				-1.0453195571899414
			]
		},
		{
			"mesh":6,
			"name":"knob_02",
			"rotation":[
				0.5,
				-0.5,
				-0.5,
				0.5000000596046448
			],
			"scale":[
				0.07450389117002487,
				0.07450389117002487,
				0.07450389117002487
			],
			"translation":[
				0.4441351890563965,
				1.8315190076828003,
				-1.0453195571899414
			]
		},
		{
			"mesh":7,
			"name":"knob_01",
			"rotation":[
				0.5,
				-0.5,
				-0.5,
				0.5000000596046448
			],
			"scale":[
				0.07450389117002487,
				0.07450389117002487,
				0.07450389117002487
			],
			"translation":[
				0.7555727958679199,
				1.8315190076828003,
				-1.0453195571899414
			]
		},
		{
			"mesh":8,
			"name":"grate",
			"rotation":[
				0,
				0.7071066498756409,
				0,
				0.70710688829422
			],
			"scale":[
				1,
				1,
				1.0476963520050049
			],
			"translation":[
				-0.02219390869140625,
				1.9669561386108398,
				-0.023255348205566406
			]
		},
		{
			"mesh":9,
			"name":"burner_middle",
			"rotation":[
				0,
				-0.7071066498756409,
				0,
				0.70710688829422
			],
			"scale":[
				0.8561221361160278,
				0.31766486167907715,
				0.2204778790473938
			],
			"translation":[
				-0.020270347595214844,
				1.9035494327545166,
				-0.022910118103027344
			]
		},
		{
			"mesh":10,
			"name":"burner_left_front",
			"rotation":[
				0,
				-0.7071066498756409,
				0,
				0.70710688829422
			],
			"scale":[
				0.3370063900947571,
				0.31766486167907715,
				0.3370063900947571
			],
			"translation":[
				0.5429997444152832,
				1.9035494327545166,
				-0.46044254302978516
			]
		},
		{
			"mesh":11,
			"name":"burner_front_right",
			"rotation":[
				0,
				-0.7071066498756409,
				0,
				0.70710688829422
			],
			"scale":[
				0.3370063900947571,
				0.31766486167907715,
				0.3370063900947571
			],
			"translation":[
				-0.547034740447998,
				1.9035494327545166,
				-0.46044254302978516
			]
		},
		{
			"mesh":12,
			"name":"burner_back_right",
			"rotation":[
				0,
				-0.7071066498756409,
				0,
				0.70710688829422
			],
			"scale":[
				0.26665836572647095,
				0.25135427713394165,
				0.26665836572647095
			],
			"translation":[
				-0.5584416389465332,
				1.886736512184143,
				0.3371429443359375
			]
		},
		{
			"mesh":13,
			"name":"burner_back_left",
			"rotation":[
				0,
				-0.7071066498756409,
				0,
				0.70710688829422
			],
			"scale":[
				0.26665836572647095,
				0.25135427713394165,
				0.26665836572647095
			],
			"translation":[
				0.5616183280944824,
				1.886527180671692,
				0.3371429443359375
			]
		},
		{
			"mesh":14,
			"name":"bottom_drawer",
			"rotation":[
				0,
				-0.7071066498756409,
				0,
				0.7071069478988647
			],
			"scale":[
				0.3943953514099121,
				0.3943953514099121,
				0.3943953514099121
			],
			"translation":[
				-0.0098724365234375,
				0.34498947858810425,
				-0.7325906753540039
			]
		}
	],
	"meshes":[
		{
			"name":"Cube.025",
			"primitives":[
				{
					"attributes":{
						"POSITION":0,
						"NORMAL":1,
						"TEXCOORD_0":2
					},
					"indices":3
				},
				{
					"attributes":{
						"POSITION":4,
						"NORMAL":5,
						"TEXCOORD_0":6
					},
					"indices":7
				}
			]
		},
		{
			"name":"Cube.038",
			"primitives":[
				{
					"attributes":{
						"POSITION":8,
						"NORMAL":9,
						"TEXCOORD_0":10
					},
					"indices":11
				},
				{
					"attributes":{
						"POSITION":12,
						"NORMAL":13,
						"TEXCOORD_0":14
					},
					"indices":15
				},
				{
					"attributes":{
						"POSITION":16,
						"NORMAL":17,
						"TEXCOORD_0":18
					},
					"indices":19
				}
			]
		},
		{
			"name":"Cylinder.007",
			"primitives":[
				{
					"attributes":{
						"POSITION":20,
						"NORMAL":21,
						"TEXCOORD_0":22
					},
					"indices":23
				},
				{
					"attributes":{
						"POSITION":24,
						"NORMAL":25,
						"TEXCOORD_0":26
					},
					"indices":27
				},
				{
					"attributes":{
						"POSITION":28,
						"NORMAL":29,
						"TEXCOORD_0":30
					},
					"indices":31
				}
			]
		},
		{
			"name":"Cylinder.008",
			"primitives":[
				{
					"attributes":{
						"POSITION":32,
						"NORMAL":33,
						"TEXCOORD_0":34
					},
					"indices":23
				},
				{
					"attributes":{
						"POSITION":35,
						"NORMAL":36,
						"TEXCOORD_0":37
					},
					"indices":27
				},
				{
					"attributes":{
						"POSITION":38,
						"NORMAL":39,
						"TEXCOORD_0":40
					},
					"indices":31
				}
			]
		},
		{
			"name":"Cylinder.009",
			"primitives":[
				{
					"attributes":{
						"POSITION":41,
						"NORMAL":42,
						"TEXCOORD_0":43
					},
					"indices":23
				},
				{
					"attributes":{
						"POSITION":44,
						"NORMAL":45,
						"TEXCOORD_0":46
					},
					"indices":27
				},
				{
					"attributes":{
						"POSITION":47,
						"NORMAL":48,
						"TEXCOORD_0":49
					},
					"indices":31
				}
			]
		},
		{
			"name":"Cylinder.011",
			"primitives":[
				{
					"attributes":{
						"POSITION":50,
						"NORMAL":51,
						"TEXCOORD_0":52
					},
					"indices":23
				},
				{
					"attributes":{
						"POSITION":53,
						"NORMAL":54,
						"TEXCOORD_0":55
					},
					"indices":27
				},
				{
					"attributes":{
						"POSITION":56,
						"NORMAL":57,
						"TEXCOORD_0":58
					},
					"indices":31
				}
			]
		},
		{
			"name":"Cylinder.006",
			"primitives":[
				{
					"attributes":{
						"POSITION":59,
						"NORMAL":60,
						"TEXCOORD_0":61
					},
					"indices":23
				},
				{
					"attributes":{
						"POSITION":62,
						"NORMAL":63,
						"TEXCOORD_0":64
					},
					"indices":27
				},
				{
					"attributes":{
						"POSITION":65,
						"NORMAL":66,
						"TEXCOORD_0":67
					},
					"indices":31
				}
			]
		},
		{
			"name":"Cylinder.010",
			"primitives":[
				{
					"attributes":{
						"POSITION":68,
						"NORMAL":69,
						"TEXCOORD_0":70
					},
					"indices":23
				},
				{
					"attributes":{
						"POSITION":71,
						"NORMAL":72,
						"TEXCOORD_0":73
					},
					"indices":27
				},
				{
					"attributes":{
						"POSITION":74,
						"NORMAL":75,
						"TEXCOORD_0":76
					},
					"indices":31
				}
			]
		},
		{
			"name":"NurbsPath.061",
			"primitives":[
				{
					"attributes":{
						"POSITION":77,
						"NORMAL":78,
						"TEXCOORD_0":79
					},
					"indices":80
				}
			]
		},
		{
			"name":"Cylinder.021",
			"primitives":[
				{
					"attributes":{
						"POSITION":81,
						"NORMAL":82,
						"TEXCOORD_0":83
					},
					"indices":84
				},
				{
					"attributes":{
						"POSITION":85,
						"NORMAL":86,
						"TEXCOORD_0":87
					},
					"indices":88
				},
				{
					"attributes":{
						"POSITION":89,
						"NORMAL":90,
						"TEXCOORD_0":91
					},
					"indices":92
				}
			]
		},
		{
			"name":"Cylinder.001",
			"primitives":[
				{
					"attributes":{
						"POSITION":93,
						"NORMAL":94,
						"TEXCOORD_0":95
					},
					"indices":84
				},
				{
					"attributes":{
						"POSITION":96,
						"NORMAL":97,
						"TEXCOORD_0":98
					},
					"indices":88
				},
				{
					"attributes":{
						"POSITION":99,
						"NORMAL":100,
						"TEXCOORD_0":101
					},
					"indices":92
				}
			]
		},
		{
			"name":"Cylinder.020",
			"primitives":[
				{
					"attributes":{
						"POSITION":102,
						"NORMAL":103,
						"TEXCOORD_0":104
					},
					"indices":84
				},
				{
					"attributes":{
						"POSITION":105,
						"NORMAL":106,
						"TEXCOORD_0":107
					},
					"indices":88
				},
				{
					"attributes":{
						"POSITION":108,
						"NORMAL":109,
						"TEXCOORD_0":110
					},
					"indices":92
				}
			]
		},
		{
			"name":"Cylinder.019",
			"primitives":[
				{
					"attributes":{
						"POSITION":111,
						"NORMAL":112,
						"TEXCOORD_0":113
					},
					"indices":84
				},
				{
					"attributes":{
						"POSITION":114,
						"NORMAL":115,
						"TEXCOORD_0":116
					},
					"indices":88
				},
				{
					"attributes":{
						"POSITION":117,
						"NORMAL":118,
						"TEXCOORD_0":119
					},
					"indices":92
				}
			]
		},
		{
			"name":"Cylinder.018",
			"primitives":[
				{
					"attributes":{
						"POSITION":120,
						"NORMAL":121,
						"TEXCOORD_0":122
					},
					"indices":84
				},
				{
					"attributes":{
						"POSITION":123,
						"NORMAL":124,
						"TEXCOORD_0":125
					},
					"indices":88
				},
				{
					"attributes":{
						"POSITION":126,
						"NORMAL":127,
						"TEXCOORD_0":128
					},
					"indices":92
				}
			]
		},
		{
			"name":"Cube.039",
			"primitives":[
				{
					"attributes":{
						"POSITION":129,
						"NORMAL":130,
						"TEXCOORD_0":131
					},
					"indices":132
				},
				{
					"attributes":{
						"POSITION":133,
						"NORMAL":134,
						"TEXCOORD_0":135
					},
					"indices":136
				}
			]
		}
	],
	"accessors":[
		{
			"bufferView":0,
			"componentType":5126,
			"count":3582,
			"max":[
				2.7889373302459717,
				3.6164369583129883,
				2.504589796066284
			],
			"min":[
				-2.2821168899536133,
				-2.38089919090271,
				-2.5664658546447754
			],
			"type":"VEC3"
		},
		{
			"bufferView":1,
			"componentType":5126,
			"count":3582,
			"type":"VEC3"
		},
		{
			"bufferView":2,
			"componentType":5126,
			"count":3582,
			"type":"VEC2"
		},
		{
			"bufferView":3,
			"componentType":5123,
			"count":5610,
			"type":"SCALAR"
		},
		{
			"bufferView":4,
			"componentType":5126,
			"count":240,
			"max":[
				-2.274003505706787,
				-1.5124094486236572,
				2.4956138134002686
			],
			"min":[
				-2.5029444694519043,
				-2.193221092224121,
				-2.5620524883270264
			],
			"type":"VEC3"
		},
		{
			"bufferView":5,
			"componentType":5126,
			"count":240,
			"type":"VEC3"
		},
		{
			"bufferView":6,
			"componentType":5126,
			"count":240,
			"type":"VEC2"
		},
		{
			"bufferView":7,
			"componentType":5123,
			"count":372,
			"type":"SCALAR"
		},
		{
			"bufferView":8,
			"componentType":5126,
			"count":552,
			"max":[
				0.1232384741306305,
				2.940624475479126,
				2.5756218433380127
			],
			"min":[
				-0.10570260882377625,
				-7.152557373046875e-07,
				-2.4820444583892822
			],
			"type":"VEC3"
		},
		{
			"bufferView":9,
			"componentType":5126,
			"count":552,
			"type":"VEC3"
		},
		{
			"bufferView":10,
			"componentType":5126,
			"count":552,
			"type":"VEC2"
		},
		{
			"bufferView":11,
			"componentType":5123,
			"count":912,
			"type":"SCALAR"
		},
		{
			"bufferView":12,
			"componentType":5126,
			"count":828,
			"max":[
				-0.136947900056839,
				2.8172645568847656,
				2.3668766021728516
			],
			"min":[
				-0.4583394527435303,
				2.4033193588256836,
				-2.2791831493377686
			],
			"type":"VEC3"
		},
		{
			"bufferView":13,
			"componentType":5126,
			"count":828,
			"type":"VEC3"
		},
		{
			"bufferView":14,
			"componentType":5126,
			"count":828,
			"type":"VEC2"
		},
		{
			"bufferView":15,
			"componentType":5123,
			"count":3948,
			"type":"SCALAR"
		},
		{
			"bufferView":16,
			"componentType":5126,
			"count":224,
			"max":[
				-0.09570245444774628,
				2.331076145172119,
				2.0924031734466553
			],
			"min":[
				-0.10570245236158371,
				0.33036577701568604,
				-2.0505902767181396
			],
			"type":"VEC3"
		},
		{
			"bufferView":17,
			"componentType":5126,
			"count":224,
			"type":"VEC3"
		},
		{
			"bufferView":18,
			"componentType":5126,
			"count":224,
			"type":"VEC2"
		},
		{
			"bufferView":19,
			"componentType":5123,
			"count":660,
			"type":"SCALAR"
		},
		{
			"bufferView":20,
			"componentType":5126,
			"count":742,
			"max":[
				0.9851228594779968,
				0.8278324007987976,
				1.0044265985488892
			],
			"min":[
				-1.0148769617080688,
				-1.1721673011779785,
				-0.9955731630325317
			],
			"type":"VEC3"
		},
		{
			"bufferView":21,
			"componentType":5126,
			"count":742,
			"type":"VEC3"
		},
		{
			"bufferView":22,
			"componentType":5126,
			"count":742,
			"type":"VEC2"
		},
		{
			"bufferView":23,
			"componentType":5123,
			"count":1302,
			"type":"SCALAR"
		},
		{
			"bufferView":24,
			"componentType":5126,
			"count":231,
			"max":[
				0.8875136375427246,
				-0.03163282573223114,
				1.0044265985488892
			],
			"min":[
				-0.9275201559066772,
				-1.1721673011779785,
				0.354311466217041
			],
			"type":"VEC3"
		},
		{
			"bufferView":25,
			"componentType":5126,
			"count":231,
			"type":"VEC3"
		},
		{
			"bufferView":26,
			"componentType":5126,
			"count":231,
			"type":"VEC2"
		},
		{
			"bufferView":27,
			"componentType":5123,
			"count":393,
			"type":"SCALAR"
		},
		{
			"bufferView":28,
			"componentType":5126,
			"count":231,
			"max":[
				0.8773840665817261,
				-0.031632840633392334,
				-0.36854931712150574
			],
			"min":[
				-0.9171654582023621,
				-1.1721673011779785,
				-0.9955731630325317
			],
			"type":"VEC3"
		},
		{
			"bufferView":29,
			"componentType":5126,
			"count":231,
			"type":"VEC3"
		},
		{
			"bufferView":30,
			"componentType":5126,
			"count":231,
			"type":"VEC2"
		},
		{
			"bufferView":31,
			"componentType":5123,
			"count":393,
			"type":"SCALAR"
		},
		{
			"bufferView":32,
			"componentType":5126,
			"count":742,
			"max":[
				0.9851228594779968,
				0.8278324007987976,
				1.0044265985488892
			],
			"min":[
				-1.0148769617080688,
				-1.1721673011779785,
				-0.9955731630325317
			],
			"type":"VEC3"
		},
		{
			"bufferView":33,
			"componentType":5126,
			"count":742,
			"type":"VEC3"
		},
		{
			"bufferView":34,
			"componentType":5126,
			"count":742,
			"type":"VEC2"
		},
		{
			"bufferView":35,
			"componentType":5126,
			"count":231,
			"max":[
				0.8875136375427246,
				-0.03163282573223114,
				1.0044265985488892
			],
			"min":[
				-0.9275201559066772,
				-1.1721673011779785,
				0.354311466217041
			],
			"type":"VEC3"
		},
		{
			"bufferView":36,
			"componentType":5126,
			"count":231,
			"type":"VEC3"
		},
		{
			"bufferView":37,
			"componentType":5126,
			"count":231,
			"type":"VEC2"
		},
		{
			"bufferView":38,
			"componentType":5126,
			"count":231,
			"max":[
				0.8773840665817261,
				-0.031632840633392334,
				-0.36854931712150574
			],
			"min":[
				-0.9171654582023621,
				-1.1721673011779785,
				-0.9955731630325317
			],
			"type":"VEC3"
		},
		{
			"bufferView":39,
			"componentType":5126,
			"count":231,
			"type":"VEC3"
		},
		{
			"bufferView":40,
			"componentType":5126,
			"count":231,
			"type":"VEC2"
		},
		{
			"bufferView":41,
			"componentType":5126,
			"count":742,
			"max":[
				0.9851228594779968,
				0.8278324007987976,
				1.0044265985488892
			],
			"min":[
				-1.0148769617080688,
				-1.1721673011779785,
				-0.9955731630325317
			],
			"type":"VEC3"
		},
		{
			"bufferView":42,
			"componentType":5126,
			"count":742,
			"type":"VEC3"
		},
		{
			"bufferView":43,
			"componentType":5126,
			"count":742,
			"type":"VEC2"
		},
		{
			"bufferView":44,
			"componentType":5126,
			"count":231,
			"max":[
				0.8875136375427246,
				-0.03163282573223114,
				1.0044265985488892
			],
			"min":[
				-0.9275201559066772,
				-1.1721673011779785,
				0.354311466217041
			],
			"type":"VEC3"
		},
		{
			"bufferView":45,
			"componentType":5126,
			"count":231,
			"type":"VEC3"
		},
		{
			"bufferView":46,
			"componentType":5126,
			"count":231,
			"type":"VEC2"
		},
		{
			"bufferView":47,
			"componentType":5126,
			"count":231,
			"max":[
				0.8773840665817261,
				-0.031632840633392334,
				-0.36854931712150574
			],
			"min":[
				-0.9171654582023621,
				-1.1721673011779785,
				-0.9955731630325317
			],
			"type":"VEC3"
		},
		{
			"bufferView":48,
			"componentType":5126,
			"count":231,
			"type":"VEC3"
		},
		{
			"bufferView":49,
			"componentType":5126,
			"count":231,
			"type":"VEC2"
		},
		{
			"bufferView":50,
			"componentType":5126,
			"count":742,
			"max":[
				0.9851228594779968,
				0.8278324007987976,
				1.0044265985488892
			],
			"min":[
				-1.0148769617080688,
				-1.1721673011779785,
				-0.9955731630325317
			],
			"type":"VEC3"
		},
		{
			"bufferView":51,
			"componentType":5126,
			"count":742,
			"type":"VEC3"
		},
		{
			"bufferView":52,
			"componentType":5126,
			"count":742,
			"type":"VEC2"
		},
		{
			"bufferView":53,
			"componentType":5126,
			"count":231,
			"max":[
				0.8875136375427246,
				-0.03163282573223114,
				1.0044265985488892
			],
			"min":[
				-0.9275201559066772,
				-1.1721673011779785,
				0.354311466217041
			],
			"type":"VEC3"
		},
		{
			"bufferView":54,
			"componentType":5126,
			"count":231,
			"type":"VEC3"
		},
		{
			"bufferView":55,
			"componentType":5126,
			"count":231,
			"type":"VEC2"
		},
		{
			"bufferView":56,
			"componentType":5126,
			"count":231,
			"max":[
				0.8773840665817261,
				-0.031632840633392334,
				-0.36854931712150574
			],
			"min":[
				-0.9171654582023621,
				-1.1721673011779785,
				-0.9955731630325317
			],
			"type":"VEC3"
		},
		{
			"bufferView":57,
			"componentType":5126,
			"count":231,
			"type":"VEC3"
		},
		{
			"bufferView":58,
			"componentType":5126,
			"count":231,
			"type":"VEC2"
		},
		{
			"bufferView":59,
			"componentType":5126,
			"count":742,
			"max":[
				0.9851228594779968,
				0.8278324007987976,
				1.0044265985488892
			],
			"min":[
				-1.0148769617080688,
				-1.1721673011779785,
				-0.9955731630325317
			],
			"type":"VEC3"
		},
		{
			"bufferView":60,
			"componentType":5126,
			"count":742,
			"type":"VEC3"
		},
		{
			"bufferView":61,
			"componentType":5126,
			"count":742,
			"type":"VEC2"
		},
		{
			"bufferView":62,
			"componentType":5126,
			"count":231,
			"max":[
				0.8875136375427246,
				-0.03163282573223114,
				1.0044265985488892
			],
			"min":[
				-0.9275201559066772,
				-1.1721673011779785,
				0.354311466217041
			],
			"type":"VEC3"
		},
		{
			"bufferView":63,
			"componentType":5126,
			"count":231,
			"type":"VEC3"
		},
		{
			"bufferView":64,
			"componentType":5126,
			"count":231,
			"type":"VEC2"
		},
		{
			"bufferView":65,
			"componentType":5126,
			"count":231,
			"max":[
				0.8773840665817261,
				-0.031632840633392334,
				-0.36854931712150574
			],
			"min":[
				-0.9171654582023621,
				-1.1721673011779785,
				-0.9955731630325317
			],
			"type":"VEC3"
		},
		{
			"bufferView":66,
			"componentType":5126,
			"count":231,
			"type":"VEC3"
		},
		{
			"bufferView":67,
			"componentType":5126,
			"count":231,
			"type":"VEC2"
		},
		{
			"bufferView":68,
			"componentType":5126,
			"count":742,
			"max":[
				0.9851228594779968,
				0.8278324007987976,
				1.0044265985488892
			],
			"min":[
				-1.0148769617080688,
				-1.1721673011779785,
				-0.9955731630325317
			],
			"type":"VEC3"
		},
		{
			"bufferView":69,
			"componentType":5126,
			"count":742,
			"type":"VEC3"
		},
		{
			"bufferView":70,
			"componentType":5126,
			"count":742,
			"type":"VEC2"
		},
		{
			"bufferView":71,
			"componentType":5126,
			"count":231,
			"max":[
				0.8875136375427246,
				-0.03163282573223114,
				1.0044265985488892
			],
			"min":[
				-0.9275201559066772,
				-1.1721673011779785,
				0.354311466217041
			],
			"type":"VEC3"
		},
		{
			"bufferView":72,
			"componentType":5126,
			"count":231,
			"type":"VEC3"
		},
		{
			"bufferView":73,
			"componentType":5126,
			"count":231,
			"type":"VEC2"
		},
		{
			"bufferView":74,
			"componentType":5126,
			"count":231,
			"max":[
				0.8773840665817261,
				-0.031632840633392334,
				-0.36854931712150574
			],
			"min":[
				-0.9171654582023621,
				-1.1721673011779785,
				-0.9955731630325317
			],
			"type":"VEC3"
		},
		{
			"bufferView":75,
			"componentType":5126,
			"count":231,
			"type":"VEC3"
		},
		{
			"bufferView":76,
			"componentType":5126,
			"count":231,
			"type":"VEC2"
		},
		{
			"bufferView":77,
			"componentType":5126,
			"count":3473,
			"max":[
				0.818727970123291,
				0.026446804404258728,
				0.9260872602462769
			],
			"min":[
				-0.8180923461914062,
				-0.04817189648747444,
				-0.9150984883308411
			],
			"type":"VEC3"
		},
		{
			"bufferView":78,
			"componentType":5126,
			"count":3473,
			"type":"VEC3"
		},
		{
			"bufferView":79,
			"componentType":5126,
			"count":3473,
			"type":"VEC2"
		},
		{
			"bufferView":80,
			"componentType":5123,
			"count":7725,
			"type":"SCALAR"
		},
		{
			"bufferView":81,
			"componentType":5126,
			"count":144,
			"max":[
				0.5798192024230957,
				0.11281299591064453,
				0.5800082683563232
			],
			"min":[
				-0.5798190832138062,
				0.11281299591064453,
				-0.5796300172805786
			],
			"type":"VEC3"
		},
		{
			"bufferView":82,
			"componentType":5126,
			"count":144,
			"type":"VEC3"
		},
		{
			"bufferView":83,
			"componentType":5126,
			"count":144,
			"type":"VEC2"
		},
		{
			"bufferView":84,
			"componentType":5123,
			"count":426,
			"type":"SCALAR"
		},
		{
			"bufferView":85,
			"componentType":5126,
			"count":1920,
			"max":[
				0.3795047402381897,
				0.11281299591064453,
				0.3796938359737396
			],
			"min":[
				-0.3795046806335449,
				-0.01250314712524414,
				-0.379315584897995
			],
			"type":"VEC3"
		},
		{
			"bufferView":86,
			"componentType":5126,
			"count":1920,
			"type":"VEC3"
		},
		{
			"bufferView":87,
			"componentType":5126,
			"count":1920,
			"type":"VEC2"
		},
		{
			"bufferView":88,
			"componentType":5123,
			"count":2880,
			"type":"SCALAR"
		},
		{
			"bufferView":89,
			"componentType":5126,
			"count":1392,
			"max":[
				0.7921286821365356,
				0.11281299591064453,
				0.7911433577537537
			],
			"min":[
				-0.7921286821365356,
				-0.1791008710861206,
				-0.7931140065193176
			],
			"type":"VEC3"
		},
		{
			"bufferView":90,
			"componentType":5126,
			"count":1392,
			"type":"VEC3"
		},
		{
			"bufferView":91,
			"componentType":5126,
			"count":1392,
			"type":"VEC2"
		},
		{
			"bufferView":92,
			"componentType":5123,
			"count":2346,
			"type":"SCALAR"
		},
		{
			"bufferView":93,
			"componentType":5126,
			"count":144,
			"max":[
				0.5798192024230957,
				0.11281299591064453,
				0.5800082683563232
			],
			"min":[
				-0.5798190832138062,
				0.11281299591064453,
				-0.5796300172805786
			],
			"type":"VEC3"
		},
		{
			"bufferView":94,
			"componentType":5126,
			"count":144,
			"type":"VEC3"
		},
		{
			"bufferView":95,
			"componentType":5126,
			"count":144,
			"type":"VEC2"
		},
		{
			"bufferView":96,
			"componentType":5126,
			"count":1920,
			"max":[
				0.3795047402381897,
				0.11281299591064453,
				0.3796938359737396
			],
			"min":[
				-0.3795046806335449,
				-0.01250314712524414,
				-0.379315584897995
			],
			"type":"VEC3"
		},
		{
			"bufferView":97,
			"componentType":5126,
			"count":1920,
			"type":"VEC3"
		},
		{
			"bufferView":98,
			"componentType":5126,
			"count":1920,
			"type":"VEC2"
		},
		{
			"bufferView":99,
			"componentType":5126,
			"count":1392,
			"max":[
				0.7921286821365356,
				0.11281299591064453,
				0.7911433577537537
			],
			"min":[
				-0.7921286821365356,
				-0.1791008710861206,
				-0.7931140065193176
			],
			"type":"VEC3"
		},
		{
			"bufferView":100,
			"componentType":5126,
			"count":1392,
			"type":"VEC3"
		},
		{
			"bufferView":101,
			"componentType":5126,
			"count":1392,
			"type":"VEC2"
		},
		{
			"bufferView":102,
			"componentType":5126,
			"count":144,
			"max":[
				0.5798192024230957,
				0.11281299591064453,
				0.5800082683563232
			],
			"min":[
				-0.5798190832138062,
				0.11281299591064453,
				-0.5796300172805786
			],
			"type":"VEC3"
		},
		{
			"bufferView":103,
			"componentType":5126,
			"count":144,
			"type":"VEC3"
		},
		{
			"bufferView":104,
			"componentType":5126,
			"count":144,
			"type":"VEC2"
		},
		{
			"bufferView":105,
			"componentType":5126,
			"count":1920,
			"max":[
				0.3795047402381897,
				0.11281299591064453,
				0.3796938359737396
			],
			"min":[
				-0.3795046806335449,
				-0.01250314712524414,
				-0.379315584897995
			],
			"type":"VEC3"
		},
		{
			"bufferView":106,
			"componentType":5126,
			"count":1920,
			"type":"VEC3"
		},
		{
			"bufferView":107,
			"componentType":5126,
			"count":1920,
			"type":"VEC2"
		},
		{
			"bufferView":108,
			"componentType":5126,
			"count":1392,
			"max":[
				0.7921286821365356,
				0.11281299591064453,
				0.7911433577537537
			],
			"min":[
				-0.7921286821365356,
				-0.1791008710861206,
				-0.7931140065193176
			],
			"type":"VEC3"
		},
		{
			"bufferView":109,
			"componentType":5126,
			"count":1392,
			"type":"VEC3"
		},
		{
			"bufferView":110,
			"componentType":5126,
			"count":1392,
			"type":"VEC2"
		},
		{
			"bufferView":111,
			"componentType":5126,
			"count":144,
			"max":[
				0.5798192024230957,
				0.11281299591064453,
				0.5800082683563232
			],
			"min":[
				-0.5798190832138062,
				0.11281299591064453,
				-0.5796300172805786
			],
			"type":"VEC3"
		},
		{
			"bufferView":112,
			"componentType":5126,
			"count":144,
			"type":"VEC3"
		},
		{
			"bufferView":113,
			"componentType":5126,
			"count":144,
			"type":"VEC2"
		},
		{
			"bufferView":114,
			"componentType":5126,
			"count":1920,
			"max":[
				0.3795047402381897,
				0.11281299591064453,
				0.3796938359737396
			],
			"min":[
				-0.3795046806335449,
				-0.01250314712524414,
				-0.379315584897995
			],
			"type":"VEC3"
		},
		{
			"bufferView":115,
			"componentType":5126,
			"count":1920,
			"type":"VEC3"
		},
		{
			"bufferView":116,
			"componentType":5126,
			"count":1920,
			"type":"VEC2"
		},
		{
			"bufferView":117,
			"componentType":5126,
			"count":1392,
			"max":[
				0.7921286821365356,
				0.11281299591064453,
				0.7911433577537537
			],
			"min":[
				-0.7921286821365356,
				-0.1791008710861206,
				-0.7931140065193176
			],
			"type":"VEC3"
		},
		{
			"bufferView":118,
			"componentType":5126,
			"count":1392,
			"type":"VEC3"
		},
		{
			"bufferView":119,
			"componentType":5126,
			"count":1392,
			"type":"VEC2"
		},
		{
			"bufferView":120,
			"componentType":5126,
			"count":144,
			"max":[
				0.5798192024230957,
				0.11281299591064453,
				0.5800082683563232
			],
			"min":[
				-0.5798190832138062,
				0.11281299591064453,
				-0.5796300172805786
			],
			"type":"VEC3"
		},
		{
			"bufferView":121,
			"componentType":5126,
			"count":144,
			"type":"VEC3"
		},
		{
			"bufferView":122,
			"componentType":5126,
			"count":144,
			"type":"VEC2"
		},
		{
			"bufferView":123,
			"componentType":5126,
			"count":1920,
			"max":[
				0.3795047402381897,
				0.11281299591064453,
				0.3796938359737396
			],
			"min":[
				-0.3795046806335449,
				-0.01250314712524414,
				-0.379315584897995
			],
			"type":"VEC3"
		},
		{
			"bufferView":124,
			"componentType":5126,
			"count":1920,
			"type":"VEC3"
		},
		{
			"bufferView":125,
			"componentType":5126,
			"count":1920,
			"type":"VEC2"
		},
		{
			"bufferView":126,
			"componentType":5126,
			"count":1392,
			"max":[
				0.7921286821365356,
				0.11281299591064453,
				0.7911433577537537
			],
			"min":[
				-0.7921286821365356,
				-0.1791008710861206,
				-0.7931140065193176
			],
			"type":"VEC3"
		},
		{
			"bufferView":127,
			"componentType":5126,
			"count":1392,
			"type":"VEC3"
		},
		{
			"bufferView":128,
			"componentType":5126,
			"count":1392,
			"type":"VEC2"
		},
		{
			"bufferView":129,
			"componentType":5126,
			"count":2224,
			"max":[
				2.870636224746704,
				0.4387357234954834,
				2.5404553413391113
			],
			"min":[
				-0.6371378302574158,
				-1.0384782552719116,
				-2.5172109603881836
			],
			"type":"VEC3"
		},
		{
			"bufferView":130,
			"componentType":5126,
			"count":2224,
			"type":"VEC3"
		},
		{
			"bufferView":131,
			"componentType":5126,
			"count":2224,
			"type":"VEC2"
		},
		{
			"bufferView":132,
			"componentType":5123,
			"count":3432,
			"type":"SCALAR"
		},
		{
			"bufferView":133,
			"componentType":5126,
			"count":828,
			"max":[
				-0.6767265796661377,
				0.4016760587692261,
				2.3317103385925293
			],
			"min":[
				-0.9981181025505066,
				-0.012269237078726292,
				-2.31434965133667
			],
			"type":"VEC3"
		},
		{
			"bufferView":134,
			"componentType":5126,
			"count":828,
			"type":"VEC3"
		},
		{
			"bufferView":135,
			"componentType":5126,
			"count":828,
			"type":"VEC2"
		},
		{
			"bufferView":136,
			"componentType":5123,
			"count":3948,
			"type":"SCALAR"
		}
	],
	"bufferViews":[
		{
			"buffer":0,
			"byteLength":42984,
			"byteOffset":0,
			"target":34962
		},
		{
			"buffer":0,
			"byteLength":42984,
			"byteOffset":42984,
			"target":34962
		},
		{
			"buffer":0,
			"byteLength":28656,
			"byteOffset":85968,
			"target":34962
		},
		{
			"buffer":0,
			"byteLength":11220,
			"byteOffset":114624,
			"target":34963
		},
		{
			"buffer":0,
			"byteLength":2880,
			"byteOffset":125844,
			"target":34962
		},
		{
			"buffer":0,
			"byteLength":2880,
			"byteOffset":128724,
			"target":34962
		},
		{
			"buffer":0,
			"byteLength":1920,
			"byteOffset":131604,
			"target":34962
		},
		{
			"buffer":0,
			"byteLength":744,
			"byteOffset":133524,
			"target":34963
		},
		{
			"buffer":0,
			"byteLength":6624,
			"byteOffset":134268,
			"target":34962
		},
		{
			"buffer":0,
			"byteLength":6624,
			"byteOffset":140892,
			"target":34962
		},
		{
			"buffer":0,
			"byteLength":4416,
			"byteOffset":147516,
			"target":34962
		},
		{
			"buffer":0,
			"byteLength":1824,
			"byteOffset":151932,
			"target":34963
		},
		{
			"buffer":0,
			"byteLength":9936,
			"byteOffset":153756,
			"target":34962
		},
		{
			"buffer":0,
			"byteLength":9936,
			"byteOffset":163692,
			"target":34962
		},
		{
			"buffer":0,
			"byteLength":6624,
			"byteOffset":173628,
			"target":34962
		},
		{
			"buffer":0,
			"byteLength":7896,
			"byteOffset":180252,
			"target":34963
		},
		{
			"buffer":0,
			"byteLength":2688,
			"byteOffset":188148,
			"target":34962
		},
		{
			"buffer":0,
			"byteLength":2688,
			"byteOffset":190836,
			"target":34962
		},
		{
			"buffer":0,
			"byteLength":1792,
			"byteOffset":193524,
			"target":34962
		},
		{
			"buffer":0,
			"byteLength":1320,
			"byteOffset":195316,
			"target":34963
		},
		{
			"buffer":0,
			"byteLength":8904,
			"byteOffset":196636,
			"target":34962
		},
		{
			"buffer":0,
			"byteLength":8904,
			"byteOffset":205540,
			"target":34962
		},
		{
			"buffer":0,
			"byteLength":5936,
			"byteOffset":214444,
			"target":34962
		},
		{
			"buffer":0,
			"byteLength":2604,
			"byteOffset":220380,
			"target":34963
		},
		{
			"buffer":0,
			"byteLength":2772,
			"byteOffset":222984,
			"target":34962
		},
		{
			"buffer":0,
			"byteLength":2772,
			"byteOffset":225756,
			"target":34962
		},
		{
			"buffer":0,
			"byteLength":1848,
			"byteOffset":228528,
			"target":34962
		},
		{
			"buffer":0,
			"byteLength":786,
			"byteOffset":230376,
			"target":34963
		},
		{
			"buffer":0,
			"byteLength":2772,
			"byteOffset":231164,
			"target":34962
		},
		{
			"buffer":0,
			"byteLength":2772,
			"byteOffset":233936,
			"target":34962
		},
		{
			"buffer":0,
			"byteLength":1848,
			"byteOffset":236708,
			"target":34962
		},
		{
			"buffer":0,
			"byteLength":786,
			"byteOffset":238556,
			"target":34963
		},
		{
			"buffer":0,
			"byteLength":8904,
			"byteOffset":239344,
			"target":34962
		},
		{
			"buffer":0,
			"byteLength":8904,
			"byteOffset":248248,
			"target":34962
		},
		{
			"buffer":0,
			"byteLength":5936,
			"byteOffset":257152,
			"target":34962
		},
		{
			"buffer":0,
			"byteLength":2772,
			"byteOffset":263088,
			"target":34962
		},
		{
			"buffer":0,
			"byteLength":2772,
			"byteOffset":265860,
			"target":34962
		},
		{
			"buffer":0,
			"byteLength":1848,
			"byteOffset":268632,
			"target":34962
		},
		{
			"buffer":0,
			"byteLength":2772,
			"byteOffset":270480,
			"target":34962
		},
		{
			"buffer":0,
			"byteLength":2772,
			"byteOffset":273252,
			"target":34962
		},
		{
			"buffer":0,
			"byteLength":1848,
			"byteOffset":276024,
			"target":34962
		},
		{
			"buffer":0,
			"byteLength":8904,
			"byteOffset":277872,
			"target":34962
		},
		{
			"buffer":0,
			"byteLength":8904,
			"byteOffset":286776,
			"target":34962
		},
		{
			"buffer":0,
			"byteLength":5936,
			"byteOffset":295680,
			"target":34962
		},
		{
			"buffer":0,
			"byteLength":2772,
			"byteOffset":301616,
			"target":34962
		},
		{
			"buffer":0,
			"byteLength":2772,
			"byteOffset":304388,
			"target":34962
		},
		{
			"buffer":0,
			"byteLength":1848,
			"byteOffset":307160,
			"target":34962
		},
		{
			"buffer":0,
			"byteLength":2772,
			"byteOffset":309008,
			"target":34962
		},
		{
			"buffer":0,
			"byteLength":2772,
			"byteOffset":311780,
			"target":34962
		},
		{
			"buffer":0,
			"byteLength":1848,
			"byteOffset":314552,
			"target":34962
		},
		{
			"buffer":0,
			"byteLength":8904,
			"byteOffset":316400,
			"target":34962
		},
		{
			"buffer":0,
			"byteLength":8904,
			"byteOffset":325304,
			"target":34962
		},
		{
			"buffer":0,
			"byteLength":5936,
			"byteOffset":334208,
			"target":34962
		},
		{
			"buffer":0,
			"byteLength":2772,
			"byteOffset":340144,
			"target":34962
		},
		{
			"buffer":0,
			"byteLength":2772,
			"byteOffset":342916,
			"target":34962
		},
		{
			"buffer":0,
			"byteLength":1848,
			"byteOffset":345688,
			"target":34962
		},
		{
			"buffer":0,
			"byteLength":2772,
			"byteOffset":347536,
			"target":34962
		},
		{
			"buffer":0,
			"byteLength":2772,
			"byteOffset":350308,
			"target":34962
		},
		{
			"buffer":0,
			"byteLength":1848,
			"byteOffset":353080,
			"target":34962
		},
		{
			"buffer":0,
			"byteLength":8904,
			"byteOffset":354928,
			"target":34962
		},
		{
			"buffer":0,
			"byteLength":8904,
			"byteOffset":363832,
			"target":34962
		},
		{
			"buffer":0,
			"byteLength":5936,
			"byteOffset":372736,
			"target":34962
		},
		{
			"buffer":0,
			"byteLength":2772,
			"byteOffset":378672,
			"target":34962
		},
		{
			"buffer":0,
			"byteLength":2772,
			"byteOffset":381444,
			"target":34962
		},
		{
			"buffer":0,
			"byteLength":1848,
			"byteOffset":384216,
			"target":34962
		},
		{
			"buffer":0,
			"byteLength":2772,
			"byteOffset":386064,
			"target":34962
		},
		{
			"buffer":0,
			"byteLength":2772,
			"byteOffset":388836,
			"target":34962
		},
		{
			"buffer":0,
			"byteLength":1848,
			"byteOffset":391608,
			"target":34962
		},
		{
			"buffer":0,
			"byteLength":8904,
			"byteOffset":393456,
			"target":34962
		},
		{
			"buffer":0,
			"byteLength":8904,
			"byteOffset":402360,
			"target":34962
		},
		{
			"buffer":0,
			"byteLength":5936,
			"byteOffset":411264,
			"target":34962
		},
		{
			"buffer":0,
			"byteLength":2772,
			"byteOffset":417200,
			"target":34962
		},
		{
			"buffer":0,
			"byteLength":2772,
			"byteOffset":419972,
			"target":34962
		},
		{
			"buffer":0,
			"byteLength":1848,
			"byteOffset":422744,
			"target":34962
		},
		{
			"buffer":0,
			"byteLength":2772,
			"byteOffset":424592,
			"target":34962
		},
		{
			"buffer":0,
			"byteLength":2772,
			"byteOffset":427364,
			"target":34962
		},
		{
			"buffer":0,
			"byteLength":1848,
			"byteOffset":430136,
			"target":34962
		},
		{
			"buffer":0,
			"byteLength":41676,
			"byteOffset":431984,
			"target":34962
		},
		{
			"buffer":0,
			"byteLength":41676,
			"byteOffset":473660,
			"target":34962
		},
		{
			"buffer":0,
			"byteLength":27784,
			"byteOffset":515336,
			"target":34962
		},
		{
			"buffer":0,
			"byteLength":15450,
			"byteOffset":543120,
			"target":34963
		},
		{
			"buffer":0,
			"byteLength":1728,
			"byteOffset":558572,
			"target":34962
		},
		{
			"buffer":0,
			"byteLength":1728,
			"byteOffset":560300,
			"target":34962
		},
		{
			"buffer":0,
			"byteLength":1152,
			"byteOffset":562028,
			"target":34962
		},
		{
			"buffer":0,
			"byteLength":852,
			"byteOffset":563180,
			"target":34963
		},
		{
			"buffer":0,
			"byteLength":23040,
			"byteOffset":564032,
			"target":34962
		},
		{
			"buffer":0,
			"byteLength":23040,
			"byteOffset":587072,
			"target":34962
		},
		{
			"buffer":0,
			"byteLength":15360,
			"byteOffset":610112,
			"target":34962
		},
		{
			"buffer":0,
			"byteLength":5760,
			"byteOffset":625472,
			"target":34963
		},
		{
			"buffer":0,
			"byteLength":16704,
			"byteOffset":631232,
			"target":34962
		},
		{
			"buffer":0,
			"byteLength":16704,
			"byteOffset":647936,
			"target":34962
		},
		{
			"buffer":0,
			"byteLength":11136,
			"byteOffset":664640,
			"target":34962
		},
		{
			"buffer":0,
			"byteLength":4692,
			"byteOffset":675776,
			"target":34963
		},
		{
			"buffer":0,
			"byteLength":1728,
			"byteOffset":680468,
			"target":34962
		},
		{
			"buffer":0,
			"byteLength":1728,
			"byteOffset":682196,
			"target":34962
		},
		{
			"buffer":0,
			"byteLength":1152,
			"byteOffset":683924,
			"target":34962
		},
		{
			"buffer":0,
			"byteLength":23040,
			"byteOffset":685076,
			"target":34962
		},
		{
			"buffer":0,
			"byteLength":23040,
			"byteOffset":708116,
			"target":34962
		},
		{
			"buffer":0,
			"byteLength":15360,
			"byteOffset":731156,
			"target":34962
		},
		{
			"buffer":0,
			"byteLength":16704,
			"byteOffset":746516,
			"target":34962
		},
		{
			"buffer":0,
			"byteLength":16704,
			"byteOffset":763220,
			"target":34962
		},
		{
			"buffer":0,
			"byteLength":11136,
			"byteOffset":779924,
			"target":34962
		},
		{
			"buffer":0,
			"byteLength":1728,
			"byteOffset":791060,
			"target":34962
		},
		{
			"buffer":0,
			"byteLength":1728,
			"byteOffset":792788,
			"target":34962
		},
		{
			"buffer":0,
			"byteLength":1152,
			"byteOffset":794516,
			"target":34962
		},
		{
			"buffer":0,
			"byteLength":23040,
			"byteOffset":795668,
			"target":34962
		},
		{
			"buffer":0,
			"byteLength":23040,
			"byteOffset":818708,
			"target":34962
		},
		{
			"buffer":0,
			"byteLength":15360,
			"byteOffset":841748,
			"target":34962
		},
		{
			"buffer":0,
			"byteLength":16704,
			"byteOffset":857108,
			"target":34962
		},
		{
			"buffer":0,
			"byteLength":16704,
			"byteOffset":873812,
			"target":34962
		},
		{
			"buffer":0,
			"byteLength":11136,
			"byteOffset":890516,
			"target":34962
		},
		{
			"buffer":0,
			"byteLength":1728,
			"byteOffset":901652,
			"target":34962
		},
		{
			"buffer":0,
			"byteLength":1728,
			"byteOffset":903380,
			"target":34962
		},
		{
			"buffer":0,
			"byteLength":1152,
			"byteOffset":905108,
			"target":34962
		},
		{
			"buffer":0,
			"byteLength":23040,
			"byteOffset":906260,
			"target":34962
		},
		{
			"buffer":0,
			"byteLength":23040,
			"byteOffset":929300,
			"target":34962
		},
		{
			"buffer":0,
			"byteLength":15360,
			"byteOffset":952340,
			"target":34962
		},
		{
			"buffer":0,
			"byteLength":16704,
			"byteOffset":967700,
			"target":34962
		},
		{
			"buffer":0,
			"byteLength":16704,
			"byteOffset":984404,
			"target":34962
		},
		{
			"buffer":0,
			"byteLength":11136,
			"byteOffset":1001108,
			"target":34962
		},
		{
			"buffer":0,
			"byteLength":1728,
			"byteOffset":1012244,
			"target":34962
		},
		{
			"buffer":0,
			"byteLength":1728,
			"byteOffset":1013972,
			"target":34962
		},
		{
			"buffer":0,
			"byteLength":1152,
			"byteOffset":1015700,
			"target":34962
		},
		{
			"buffer":0,
			"byteLength":23040,
			"byteOffset":1016852,
			"target":34962
		},
		{
			"buffer":0,
			"byteLength":23040,
			"byteOffset":1039892,
			"target":34962
		},
		{
			"buffer":0,
			"byteLength":15360,
			"byteOffset":1062932,
			"target":34962
		},
		{
			"buffer":0,
			"byteLength":16704,
			"byteOffset":1078292,
			"target":34962
		},
		{
			"buffer":0,
			"byteLength":16704,
			"byteOffset":1094996,
			"target":34962
		},
		{
			"buffer":0,
			"byteLength":11136,
			"byteOffset":1111700,
			"target":34962
		},
		{
			"buffer":0,
			"byteLength":26688,
			"byteOffset":1122836,
			"target":34962
		},
		{
			"buffer":0,
			"byteLength":26688,
			"byteOffset":1149524,
			"target":34962
		},
		{
			"buffer":0,
			"byteLength":17792,
			"byteOffset":1176212,
			"target":34962
		},
		{
			"buffer":0,
			"byteLength":6864,
			"byteOffset":1194004,
			"target":34963
		},
		{
			"buffer":0,
			"byteLength":9936,
			"byteOffset":1200868,
			"target":34962
		},
		{
			"buffer":0,
			"byteLength":9936,
			"byteOffset":1210804,
			"target":34962
		},
		{
			"buffer":0,
			"byteLength":6624,
			"byteOffset":1220740,
			"target":34962
		},
		{
			"buffer":0,
			"byteLength":7896,
			"byteOffset":1227364,
			"target":34963
		}
	],
	"buffers":[
		{
			"byteLength":1235260,
			"uri":"oven.bin"
		}
	]
}
