{
	"asset":{
		"generator":"Khronos glTF Blender I/O v4.5.48",
		"version":"2.0"
	},
	"scene":0,
	"scenes":[
		{
			"name":"Scene",
			"nodes":[
				0
			]
		}
	],
	"nodes":[
		{
			"mesh":0,
			"name":"static_kitchen_drawer_02"
		}
	],
	"meshes":[
		{
			"name":"Cube.077",
			"primitives":[
				{
					"attributes":{
						"POSITION":0,
						"NORMAL":1,
						"TEXCOORD_0":2
					},
					"indices":3
				},
				{
					"attributes":{
						"POSITION":4,
						"NORMAL":5,
						"TEXCOORD_0":6
					},
					"indices":7
				}
			]
		}
	],
	"accessors":[
		{
			"bufferView":0,
			"componentType":5126,
			"count":488,
			"max":[
				0.9341952204704285,
				1.5767208337783813,
				4.453347206115723
			],
			"min":[
				-0.7483136653900146,
				0.001443624496459961,
				-4.323244571685791
			],
			"type":"VEC3"
		},
		{
			"bufferView":1,
			"componentType":5126,
			"count":488,
			"type":"VEC3"
		},
		{
			"bufferView":2,
			"componentType":5126,
			"count":488,
			"type":"VEC2"
		},
		{
			"bufferView":3,
			"componentType":5123,
			"count":1176,
			"type":"SCALAR"
		},
		{
			"bufferView":4,
			"componentType":5126,
			"count":16,
			"max":[
				-0.6897366046905518,
				1.4721208810806274,
				0.15754684805870056
			],
			"min":[
				-0.7459388375282288,
				0.10819423198699951,
				-0.033918529748916626
			],
			"type":"VEC3"
		},
		{
			"bufferView":5,
			"componentType":5126,
			"count":16,
			"type":"VEC3"
		},
		{
			"bufferView":6,
			"componentType":5126,
			"count":16,
			"type":"VEC2"
		},
		{
			"bufferView":7,
			"componentType":5123,
			"count":24,
			"type":"SCALAR"
		}
	],
	"bufferViews":[
		{
			"buffer":0,
			"byteLength":5856,
			"byteOffset":0,
			"target":34962
		},
		{
			"buffer":0,
			"byteLength":5856,
			"byteOffset":5856,
			"target":34962
		},
		{
			"buffer":0,
			"byteLength":3904,
			"byteOffset":11712,
			"target":34962
		},
		{
			"buffer":0,
			"byteLength":2352,
			"byteOffset":15616,
			"target":34963
		},
		{
			"buffer":0,
			"byteLength":192,
			"byteOffset":17968,
			"target":34962
		},
		{
			"buffer":0,
			"byteLength":192,
			"byteOffset":18160,
			"target":34962
		},
		{
			"buffer":0,
			"byteLength":128,
			"byteOffset":18352,
			"target":34962
		},
		{
			"buffer":0,
			"byteLength":48,
			"byteOffset":18480,
			"target":34963
		}
	],
	"buffers":[
		{
			"byteLength":18528,
			"uri":"static_kitchen_drawer_02.bin"
		}
	]
}
