{
	"asset":{
		"generator":"Khronos glTF Blender I/O v4.5.48",
		"version":"2.0"
	},
	"scene":0,
	"scenes":[
		{
			"name":"Scene",
			"nodes":[
				0,
				1,
				2
			]
		}
	],
	"nodes":[
		{
			"mesh":0,
			"name":"stove_hood_button_02",
			"rotation":[
				0,
				-0.6287155747413635,
				0,
				0.7776353359222412
			],
			"scale":[
				-0.07001686841249466,
				-0.025147702544927597,
				-0.07001686841249466
			],
			"translation":[
				0.47898101806640625,
				0.09206175804138184,
				-0.8719587326049805
			]
		},
		{
			"mesh":1,
			"name":"stove_hood_button_01",
			"rotation":[
				0,
				-0.6287155747413635,
				0,
				0.7776353359222412
			],
			"scale":[
				-0.07001686841249466,
				-0.025147702544927597,
				-0.07001686841249466
			],
			"translation":[
				0.7160139083862305,
				0.09206175804138184,
				-0.8719587326049805
			]
		},
		{
			"mesh":2,
			"name":"stove_hood"
		}
	],
	"meshes":[
		{
			"name":"stove_hood_button_02",
			"primitives":[
				{
					"attributes":{
						"POSITION":0,
						"NORMAL":1,
						"TEXCOORD_0":2
					},
					"indices":3
				},
				{
					"attributes":{
						"POSITION":4,
						"NORMAL":5,
						"TEXCOORD_0":6
					},
					"indices":7
				}
			]
		},
		{
			"name":"stove_hood_button_01",
			"primitives":[
				{
					"attributes":{
						"POSITION":8,
						"NORMAL":9,
						"TEXCOORD_0":10
					},
					"indices":3
				},
				{
					"attributes":{
						"POSITION":11,
						"NORMAL":12,
						"TEXCOORD_0":13
					},
					"indices":7
				}
			]
		},
		{
			"name":"stove_hood",
			"primitives":[
				{
					"attributes":{
						"POSITION":14,
						"NORMAL":15,
						"TEXCOORD_0":16
					},
					"indices":17
				},
				{
					"attributes":{
						"POSITION":18,
						"NORMAL":19,
						"TEXCOORD_0":20
					},
					"indices":21
				}
			]
		}
	],
	"accessors":[
		{
			"bufferView":0,
			"componentType":5126,
			"count":252,
			"max":[
				0.6864049434661865,
				1,
				1.003479242324829
			],
			"min":[
				-0.6254942417144775,
				-0.9999999403953552,
				-0.9965207576751709
			],
			"type":"VEC3"
		},
		{
			"bufferView":1,
			"componentType":5126,
			"count":252,
			"type":"VEC3"
		},
		{
			"bufferView":2,
			"componentType":5126,
			"count":252,
			"type":"VEC2"
		},
		{
			"bufferView":3,
			"componentType":5123,
			"count":504,
			"type":"SCALAR"
		},
		{
			"bufferView":4,
			"componentType":5126,
			"count":24,
			"max":[
				0.6864049434661865,
				1,
				0.9526857137680054
			],
			"min":[
				0.6292428970336914,
				-0.9999999403953552,
				-0.9479589462280273
			],
			"type":"VEC3"
		},
		{
			"bufferView":5,
			"componentType":5126,
			"count":24,
			"type":"VEC3"
		},
		{
			"bufferView":6,
			"componentType":5126,
			"count":24,
			"type":"VEC2"
		},
		{
			"bufferView":7,
			"componentType":5123,
			"count":36,
			"type":"SCALAR"
		},
		{
			"bufferView":8,
			"componentType":5126,
			"count":252,
			"max":[
				0.6864049434661865,
				1,
				1.003479242324829
			],
			"min":[
				-0.6254942417144775,
				-0.9999999403953552,
				-0.9965207576751709
			],
			"type":"VEC3"
		},
		{
			"bufferView":9,
			"componentType":5126,
			"count":252,
			"type":"VEC3"
		},
		{
			"bufferView":10,
			"componentType":5126,
			"count":252,
			"type":"VEC2"
		},
		{
			"bufferView":11,
			"componentType":5126,
			"count":24,
			"max":[
				0.6864049434661865,
				1,
				0.9526857137680054
			],
			"min":[
				0.6292428970336914,
				-0.9999999403953552,
				-0.9479589462280273
			],
			"type":"VEC3"
		},
		{
			"bufferView":12,
			"componentType":5126,
			"count":24,
			"type":"VEC3"
		},
		{
			"bufferView":13,
			"componentType":5126,
			"count":24,
			"type":"VEC2"
		},
		{
			"bufferView":14,
			"componentType":5126,
			"count":2592,
			"max":[
				0.8987816572189331,
				2.3351457118988037,
				0.9735057950019836
			],
			"min":[
				-0.9568280577659607,
				-0.00011229515075683594,
				-0.8750976920127869
			],
			"type":"VEC3"
		},
		{
			"bufferView":15,
			"componentType":5126,
			"count":2592,
			"type":"VEC3"
		},
		{
			"bufferView":16,
			"componentType":5126,
			"count":2592,
			"type":"VEC2"
		},
		{
			"bufferView":17,
			"componentType":5123,
			"count":4140,
			"type":"SCALAR"
		},
		{
			"bufferView":18,
			"componentType":5126,
			"count":96,
			"max":[
				0.8082137703895569,
				0.12321096658706665,
				-0.8304013013839722
			],
			"min":[
				0.38605016469955444,
				0.060992658138275146,
				-0.8897061347961426
			],
			"type":"VEC3"
		},
		{
			"bufferView":19,
			"componentType":5126,
			"count":96,
			"type":"VEC3"
		},
		{
			"bufferView":20,
			"componentType":5126,
			"count":96,
			"type":"VEC2"
		},
		{
			"bufferView":21,
			"componentType":5123,
			"count":168,
			"type":"SCALAR"
		}
	],
	"bufferViews":[
		{
			"buffer":0,
			"byteLength":3024,
			"byteOffset":0,
			"target":34962
		},
		{
			"buffer":0,
			"byteLength":3024,
			"byteOffset":3024,
			"target":34962
		},
		{
			"buffer":0,
			"byteLength":2016,
			"byteOffset":6048,
			"target":34962
		},
		{
			"buffer":0,
			"byteLength":1008,
			"byteOffset":8064,
			"target":34963
		},
		{
			"buffer":0,
			"byteLength":288,
			"byteOffset":9072,
			"target":34962
		},
		{
			"buffer":0,
			"byteLength":288,
			"byteOffset":9360,
			"target":34962
		},
		{
			"buffer":0,
			"byteLength":192,
			"byteOffset":9648,
			"target":34962
		},
		{
			"buffer":0,
			"byteLength":72,
			"byteOffset":9840,
			"target":34963
		},
		{
			"buffer":0,
			"byteLength":3024,
			"byteOffset":9912,
			"target":34962
		},
		{
			"buffer":0,
			"byteLength":3024,
			"byteOffset":12936,
			"target":34962
		},
		{
			"buffer":0,
			"byteLength":2016,
			"byteOffset":15960,
			"target":34962
		},
		{
			"buffer":0,
			"byteLength":288,
			"byteOffset":17976,
			"target":34962
		},
		{
			"buffer":0,
			"byteLength":288,
			"byteOffset":18264,
			"target":34962
		},
		{
			"buffer":0,
			"byteLength":192,
			"byteOffset":18552,
			"target":34962
		},
		{
			"buffer":0,
			"byteLength":31104,
			"byteOffset":18744,
			"target":34962
		},
		{
			"buffer":0,
			"byteLength":31104,
			"byteOffset":49848,
			"target":34962
		},
		{
			"buffer":0,
			"byteLength":20736,
			"byteOffset":80952,
			"target":34962
		},
		{
			"buffer":0,
			"byteLength":8280,
			"byteOffset":101688,
			"target":34963
		},
		{
			"buffer":0,
			"byteLength":1152,
			"byteOffset":109968,
			"target":34962
		},
		{
			"buffer":0,
			"byteLength":1152,
			"byteOffset":111120,
			"target":34962
		},
		{
			"buffer":0,
			"byteLength":768,
			"byteOffset":112272,
			"target":34962
		},
		{
			"buffer":0,
			"byteLength":336,
			"byteOffset":113040,
			"target":34963
		}
	],
	"buffers":[
		{
			"byteLength":113376,
			"uri":"stove_hood.bin"
		}
	]
}
