{
	"asset":{
		"generator":"Khronos glTF Blender I/O v4.5.48",
		"version":"2.0"
	},
	"scene":0,
	"scenes":[
		{
			"name":"Scene",
			"nodes":[
				0,
				1
			]
		}
	],
	"nodes":[
		{
			"mesh":0,
			"name":"trash_can_lid",
			"rotation":[
				1,
				0,
				0,
				2.654314790152216e-14
			],
			"scale":[
				0.512779176235199,
				0.07783033698797226,
				0.7118961215019226
			],
			"translation":[
				0.028792357072234154,
				1.5827021598815918,
				-0.741829514503479
			]
		},
		{
			"mesh":1,
			"name":"trash_can_bottom"
		}
	],
	"meshes":[
		{
			"name":"trash_can_lid",
			"primitives":[
				{
					"attributes":{
						"POSITION":0,
						"NORMAL":1,
						"TEXCOORD_0":2
					},
					"indices":3
				},
				{
					"attributes":{
						"POSITION":4,
						"NORMAL":5,
						"TEXCOORD_0":6
					},
					"indices":7
				},
				{
					"attributes":{
						"POSITION":8,
						"NORMAL":9,
						"TEXCOORD_0":10
					},
					"indices":11
				}
			]
		},
		{
			"name":"trash_can_bottom",
			"primitives":[
				{
					"attributes":{
						"POSITION":12,
						"NORMAL":13,
						"TEXCOORD_0":14
					},
					"indices":15
				},
				{
					"attributes":{
						"POSITION":16,
						"NORMAL":17,
						"TEXCOORD_0":18
					},
					"indices":19
				}
			]
		}
	],
	"accessors":[
		{
			"bufferView":0,
			"componentType":5126,
			"count":534,
			"max":[
				0.9994246959686279,
				0.8760643005371094,
				-1.1920928955078125e-07
			],
			"min":[
				-1.000575304031372,
				-1.1239356994628906,
				-2
			],
			"type":"VEC3"
		},
		{
			"bufferView":1,
			"componentType":5126,
			"count":534,
			"type":"VEC3"
		},
		{
			"bufferView":2,
			"componentType":5126,
			"count":534,
			"type":"VEC2"
		},
		{
			"bufferView":3,
			"componentType":5123,
			"count":846,
			"type":"SCALAR"
		},
		{
			"bufferView":4,
			"componentType":5126,
			"count":138,
			"max":[
				0.38973820209503174,
				0.6930361390113831,
				-1.9345316886901855
			],
			"min":[
				-0.39347440004348755,
				-0.9552930593490601,
				-2
			],
			"type":"VEC3"
		},
		{
			"bufferView":5,
			"componentType":5126,
			"count":138,
			"type":"VEC3"
		},
		{
			"bufferView":6,
			"componentType":5126,
			"count":138,
			"type":"VEC2"
		},
		{
			"bufferView":7,
			"componentType":5123,
			"count":210,
			"type":"SCALAR"
		},
		{
			"bufferView":8,
			"componentType":5126,
			"count":578,
			"max":[
				0.9228698015213013,
				0.8655974268913269,
				-0.07655489444732666
			],
			"min":[
				-0.9240204095840454,
				-0.9552930593490601,
				-2
			],
			"type":"VEC3"
		},
		{
			"bufferView":9,
			"componentType":5126,
			"count":578,
			"type":"VEC3"
		},
		{
			"bufferView":10,
			"componentType":5126,
			"count":578,
			"type":"VEC2"
		},
		{
			"bufferView":11,
			"componentType":5123,
			"count":876,
			"type":"SCALAR"
		},
		{
			"bufferView":12,
			"componentType":5126,
			"count":242,
			"max":[
				0.5412745475769043,
				1.5132181644439697,
				0.6819629669189453
			],
			"min":[
				-0.4842842221260071,
				-0.0008445382118225098,
				-0.7418296337127686
			],
			"type":"VEC3"
		},
		{
			"bufferView":13,
			"componentType":5126,
			"count":242,
			"type":"VEC3"
		},
		{
			"bufferView":14,
			"componentType":5126,
			"count":242,
			"type":"VEC2"
		},
		{
			"bufferView":15,
			"componentType":5123,
			"count":408,
			"type":"SCALAR"
		},
		{
			"bufferView":16,
			"componentType":5126,
			"count":298,
			"max":[
				0.5020187497138977,
				1.5132181644439697,
				0.6274638175964355
			],
			"min":[
				-0.4450284242630005,
				0.18697667121887207,
				-0.6873304843902588
			],
			"type":"VEC3"
		},
		{
			"bufferView":17,
			"componentType":5126,
			"count":298,
			"type":"VEC3"
		},
		{
			"bufferView":18,
			"componentType":5126,
			"count":298,
			"type":"VEC2"
		},
		{
			"bufferView":19,
			"componentType":5123,
			"count":456,
			"type":"SCALAR"
		}
	],
	"bufferViews":[
		{
			"buffer":0,
			"byteLength":6408,
			"byteOffset":0,
			"target":34962
		},
		{
			"buffer":0,
			"byteLength":6408,
			"byteOffset":6408,
			"target":34962
		},
		{
			"buffer":0,
			"byteLength":4272,
			"byteOffset":12816,
			"target":34962
		},
		{
			"buffer":0,
			"byteLength":1692,
			"byteOffset":17088,
			"target":34963
		},
		{
			"buffer":0,
			"byteLength":1656,
			"byteOffset":18780,
			"target":34962
		},
		{
			"buffer":0,
			"byteLength":1656,
			"byteOffset":20436,
			"target":34962
		},
		{
			"buffer":0,
			"byteLength":1104,
			"byteOffset":22092,
			"target":34962
		},
		{
			"buffer":0,
			"byteLength":420,
			"byteOffset":23196,
			"target":34963
		},
		{
			"buffer":0,
			"byteLength":6936,
			"byteOffset":23616,
			"target":34962
		},
		{
			"buffer":0,
			"byteLength":6936,
			"byteOffset":30552,
			"target":34962
		},
		{
			"buffer":0,
			"byteLength":4624,
			"byteOffset":37488,
			"target":34962
		},
		{
			"buffer":0,
			"byteLength":1752,
			"byteOffset":42112,
			"target":34963
		},
		{
			"buffer":0,
			"byteLength":2904,
			"byteOffset":43864,
			"target":34962
		},
		{
			"buffer":0,
			"byteLength":2904,
			"byteOffset":46768,
			"target":34962
		},
		{
			"buffer":0,
			"byteLength":1936,
			"byteOffset":49672,
			"target":34962
		},
		{
			"buffer":0,
			"byteLength":816,
			"byteOffset":51608,
			"target":34963
		},
		{
			"buffer":0,
			"byteLength":3576,
			"byteOffset":52424,
			"target":34962
		},
		{
			"buffer":0,
			"byteLength":3576,
			"byteOffset":56000,
			"target":34962
		},
		{
			"buffer":0,
			"byteLength":2384,
			"byteOffset":59576,
			"target":34962
		},
		{
			"buffer":0,
			"byteLength":912,
			"byteOffset":61960,
			"target":34963
		}
	],
	"buffers":[
		{
			"byteLength":62872,
			"uri":"trash_can.bin"
		}
	]
}
